<svg width="53" height="75" viewBox="0 0 53 75" fill="none" xmlns="http://www.w3.org/2000/svg">
<path d="M2.55603 57C-0.613237 50.5 5.33764 28.2142 8.38676 12.5L45.3868 1.5C49.2941 17.5821 53.3868 52.5 50.3868 56.5C47.3868 60.5 5.72529 63.5 2.55603 57Z" fill="#ECC65A" stroke="#292929" stroke-width="1.5" stroke-linejoin="round"/>
<path d="M13.2202 71.5C10.2202 68 13.2202 57.5 13.2202 57.5H38.2202C38.2202 57.5 39.2202 66.5 38.2202 70.5C37.2202 74.5 16.2202 75 13.2202 71.5Z" fill="#EBEBEB" stroke="#292929" stroke-width="1.5" stroke-linejoin="round"/>
<path d="M22.3153 35.7318L22.4143 50.0284L20.6077 50.0409L20.5243 38.0002L16.891 39.3535L16.8797 37.7227L22.0321 35.7338L22.3153 35.7318ZM36.6646 46.082C36.6706 46.9478 36.4739 47.6849 36.0744 48.2931C35.6815 48.8948 35.1443 49.3543 34.4629 49.6715C33.7879 49.9887 33.0241 50.1502 32.1712 50.1561C31.3184 50.162 30.5491 50.0111 29.8634 49.7034C29.1776 49.3956 28.6341 48.9436 28.2328 48.3474C27.8315 47.7447 27.6279 47.0104 27.6219 46.1446C27.6179 45.5782 27.7218 45.0599 27.9334 44.5896C28.1514 44.1129 28.4578 43.6973 28.8525 43.343C29.2537 42.9887 29.7271 42.7152 30.2726 42.5226C30.8246 42.3235 31.4327 42.2216 32.0967 42.217C32.9691 42.211 33.7482 42.3748 34.4342 42.7086C35.12 43.0359 35.6603 43.4912 36.055 44.0744C36.4562 44.6576 36.6594 45.3268 36.6646 46.082ZM34.848 46.0555C34.8443 45.5281 34.7272 45.0634 34.4965 44.6614C34.2658 44.2528 33.9446 43.936 33.5329 43.711C33.1212 43.486 32.6451 43.3753 32.1048 43.3791C31.5514 43.3829 31.0737 43.5002 30.6716 43.7308C30.2761 43.9614 29.969 44.2826 29.7505 44.6942C29.532 45.0994 29.4245 45.5657 29.4282 46.093C29.432 46.6399 29.5426 47.1079 29.7602 47.497C29.9842 47.8796 30.2987 48.1736 30.7038 48.3791C31.1154 48.5781 31.6011 48.6757 32.161 48.6718C32.7208 48.6679 33.2019 48.5637 33.6041 48.3591C34.0063 48.1479 34.3135 47.8496 34.5257 47.464C34.7443 47.0718 34.8518 46.6023 34.848 46.0555ZM36.2864 39.4145C36.2912 40.1046 36.1132 40.7276 35.7525 41.2835C35.3917 41.8394 34.8967 42.279 34.2674 42.6024C33.6381 42.9258 32.9231 43.0902 32.1223 43.0958C31.3086 43.1014 30.5816 42.9469 29.9413 42.6323C29.3076 42.3177 28.8098 41.8849 28.4479 41.334C28.0861 40.7832 27.9027 40.1627 27.8979 39.4726C27.8922 38.6458 28.0664 37.9414 28.4204 37.3595C28.781 36.7776 29.276 36.3314 29.9053 36.0211C30.5347 35.7107 31.253 35.5528 32.0603 35.5472C32.8741 35.5415 33.5978 35.6895 34.2314 35.9911C34.865 36.2927 35.3629 36.732 35.7249 37.309C36.0935 37.8858 36.2807 38.5877 36.2864 39.4145ZM34.48 39.4563C34.4767 38.981 34.3729 38.5618 34.1686 38.1987C33.9642 37.8355 33.6823 37.551 33.3228 37.3451C32.9632 37.1328 32.5458 37.0282 32.0706 37.0315C31.5953 37.0348 31.1794 37.1386 30.8227 37.3429C30.4725 37.5406 30.1978 37.8225 29.9985 38.1885C29.8057 38.5544 29.711 38.988 29.7145 39.4893C29.7179 39.9776 29.8185 40.4033 30.0163 40.7665C30.2207 41.1297 30.5026 41.411 30.862 41.6103C31.2215 41.8096 31.6388 41.9077 32.1141 41.9044C32.5893 41.9011 33.002 41.7973 33.3522 41.5931C33.7089 41.3888 33.9868 41.1036 34.1861 40.7377C34.3854 40.3717 34.4834 39.9446 34.48 39.4563Z" fill="#292929"/>
</svg>
