<svg width="244" height="245" viewBox="0 0 244 245" fill="none" xmlns="http://www.w3.org/2000/svg">
<path d="M176.279 175.238C205.356 145.3 204.725 97.5374 174.869 68.5564C145.012 39.5754 97.2374 40.3509 68.1602 70.2886C39.0829 100.226 39.7143 147.989 69.5706 176.97C99.4268 205.951 147.202 205.176 176.279 175.238Z" fill="#FF725E"/>
<path d="M110.016 149.528C110.171 152.777 111.282 155.904 113.209 158.514C115.136 161.123 117.792 163.098 120.842 164.189C123.891 165.28 127.197 165.437 130.341 164.641C133.486 163.844 136.327 162.131 138.506 159.716C140.685 157.302 142.104 154.295 142.583 151.076C143.063 147.857 142.581 144.57 141.199 141.631C139.817 138.693 137.598 136.234 134.82 134.566C132.043 132.899 128.833 132.097 125.597 132.262C121.259 132.492 117.184 134.438 114.264 137.674C111.343 140.91 109.816 145.172 110.016 149.528Z" fill="#FF725E"/>
<g opacity="0.3">
<path d="M110.04 149.496C110.201 152.75 111.317 155.884 113.247 158.501C115.176 161.119 117.832 163.102 120.88 164.2C123.927 165.298 127.229 165.462 130.367 164.671C133.505 163.88 136.339 162.169 138.511 159.756C140.682 157.342 142.093 154.334 142.565 151.111C143.038 147.889 142.55 144.596 141.165 141.651C139.779 138.705 137.558 136.239 134.781 134.564C132.005 132.888 128.798 132.079 125.566 132.238C121.235 132.459 117.169 134.4 114.259 137.635C111.349 140.869 109.832 145.135 110.04 149.496Z" fill="black"/>
</g>
<path d="M108.135 149.805C108.182 151.921 108.649 154.005 109.509 155.935C110.369 157.865 111.604 159.602 113.143 161.044C114.681 162.487 116.492 163.605 118.469 164.335C120.445 165.064 122.548 165.39 124.654 165.292C126.806 165.101 128.9 164.485 130.817 163.48C132.734 162.476 134.436 161.101 135.824 159.437C137.213 157.772 138.262 155.849 138.911 153.779C139.559 151.709 139.795 149.532 139.604 147.372C139.551 145.282 139.074 143.226 138.203 141.329C137.331 139.432 136.084 137.735 134.536 136.34C132.988 134.946 131.172 133.884 129.199 133.219C127.227 132.553 125.139 132.299 123.063 132.471C120.938 132.588 118.857 133.135 116.945 134.078C115.033 135.021 113.329 136.342 111.935 137.96C110.541 139.579 109.486 141.462 108.833 143.497C108.18 145.533 107.943 147.678 108.135 149.805Z" fill="#FF725E"/>
<g opacity="0.3">
<path d="M94.4689 52.3403C86.0708 58.2179 78.9548 65.7621 73.5571 74.5104C68.1594 83.2587 64.5939 93.0266 63.0791 103.215C64.0895 103.984 64.9331 104.952 65.5576 106.061C66.1822 107.17 66.5746 108.396 66.7106 109.664C66.8037 112.865 63.5059 114.386 62.301 114.809C62.3076 115.911 62.3142 117.013 62.3554 118.139C62.6409 123.725 63.5402 129.262 65.0369 134.649C65.2692 134.762 72.1755 138.314 73.2154 142.423C73.8013 145.503 73.3649 148.69 71.9736 151.493C72.6362 152.696 73.3234 153.864 74.0645 154.991C79.9489 164.259 87.7659 172.126 96.972 178.046C98.2918 177.177 99.7749 176.589 101.33 176.32C102.884 176.051 104.478 176.105 106.011 176.481C110.672 177.94 110.426 184.479 110.426 184.479L109.925 184.749C127.575 191.789 147.214 191.825 164.877 184.85C156.182 190.696 146.367 194.643 136.064 196.437C125.76 198.232 115.195 197.835 105.049 195.271C94.9035 192.707 85.4009 188.034 77.1526 181.551C68.9044 175.068 62.0932 166.92 57.1571 157.63C52.221 148.34 49.2692 138.115 48.4916 127.61C47.714 117.106 49.1279 106.557 52.6422 96.6395C56.1565 86.7224 61.6935 77.6577 68.897 70.0283C76.1006 62.3989 84.8113 56.3738 94.4689 52.3403Z" fill="black"/>
</g>
<g opacity="0.3">
<path d="M65.8255 119.077C65.852 119.561 66.0681 120.014 66.4264 120.337C66.7846 120.661 67.2556 120.828 67.7357 120.801C68.2159 120.775 68.6659 120.558 68.9867 120.198C69.3075 119.837 69.4729 119.363 69.4464 118.88C69.4243 118.4 69.2138 117.948 68.8612 117.623C68.5085 117.299 68.0426 117.129 67.5657 117.15C67.0839 117.181 66.633 117.4 66.3082 117.759C65.9835 118.119 65.8104 118.591 65.8255 119.077Z" fill="black"/>
</g>
<path d="M155.713 151.546C155.997 148.025 157.002 144.597 158.666 141.48C159.631 139.444 160.99 137.217 163.41 137.1L165.357 137.067C166.612 136.335 168.055 135.995 169.501 136.092C170.946 136.189 172.329 136.717 173.472 137.609C174.474 138.506 175.263 139.617 175.781 140.862C176.299 142.106 176.533 143.452 176.465 144.8C176.301 147.509 175.506 150.143 174.145 152.491C172.716 155.174 170.918 157.641 168.804 159.821C167.715 161.131 166.265 162.087 164.636 162.57C163.71 162.695 162.768 162.62 161.874 162.348C160.981 162.076 160.156 161.615 159.457 160.994C158.162 159.808 157.153 158.341 156.504 156.705C155.856 155.069 155.585 153.305 155.713 151.546Z" fill="#FF725E"/>
<g opacity="0.3">
<path d="M155.462 151.545C155.714 148.021 156.702 144.59 158.361 141.477C159.35 139.436 160.85 137.183 163.119 137.097L165.033 137.072C166.287 136.335 167.732 135.993 169.182 136.092C170.632 136.191 172.019 136.725 173.165 137.626C174.167 138.526 174.957 139.64 175.477 140.887C175.996 142.134 176.232 143.482 176.168 144.832C176.009 147.544 175.221 150.179 173.866 152.527C172.435 155.204 170.646 157.67 168.548 159.856C167.464 161.165 166.017 162.12 164.392 162.599C163.467 162.727 162.526 162.652 161.632 162.378C160.739 162.104 159.915 161.638 159.218 161.012C157.923 159.821 156.912 158.351 156.262 156.711C155.611 155.072 155.338 153.305 155.462 151.545Z" fill="black"/>
</g>
<path d="M153.927 151.651C154.187 148.131 155.183 144.702 156.85 141.59C157.318 140.578 157.98 139.67 158.8 138.917C159.62 138.164 160.58 137.582 161.625 137.206L164.506 136.213C165.746 135.875 167.047 135.833 168.305 136.092C169.562 136.351 170.74 136.903 171.745 137.704C172.747 138.601 173.536 139.712 174.054 140.956C174.572 142.201 174.806 143.546 174.738 144.895C174.574 147.603 173.779 150.238 172.418 152.585C170.98 155.262 169.183 157.728 167.078 159.916C166.05 161.121 164.664 161.964 163.125 162.32C162.256 162.396 161.381 162.269 160.57 161.949C159.758 161.628 159.033 161.123 158.449 160.473C157.066 159.457 155.937 158.131 155.152 156.6C154.368 155.069 153.948 153.375 153.927 151.651Z" fill="#FF725E"/>
<path d="M137.565 181.869C134.902 182.484 132.151 182.611 129.446 182.245C127.739 182.084 125.768 181.631 125.283 180.213L125.065 178.933C124.305 178.296 123.795 177.407 123.628 176.425C123.461 175.444 123.647 174.434 124.153 173.575C124.7 172.686 125.417 171.914 126.261 171.304C127.106 170.693 128.062 170.256 129.074 170.018C131.061 169.527 133.126 169.448 135.142 169.786C137.344 170.098 139.497 170.691 141.549 171.548C142.672 171.922 143.649 172.641 144.342 173.604C144.596 174.195 144.706 174.838 144.661 175.481C144.617 176.124 144.419 176.746 144.085 177.297C142.584 179.613 140.245 181.253 137.565 181.869Z" fill="#FF725E"/>
<g opacity="0.3">
<path d="M137.965 181.854C135.307 182.458 132.563 182.59 129.858 182.245C128.147 182.05 126.178 181.592 125.719 180.166L125.351 178.908C124.595 178.264 124.088 177.373 123.92 176.391C123.751 175.408 123.932 174.398 124.43 173.536C125.541 171.749 127.304 170.472 129.34 169.981C131.328 169.513 133.386 169.438 135.403 169.76C137.604 170.076 139.757 170.673 141.808 171.539C142.945 171.907 143.929 172.644 144.608 173.635C144.876 174.219 144.993 174.862 144.949 175.503C144.904 176.145 144.699 176.765 144.353 177.305C142.898 179.606 140.605 181.24 137.965 181.854Z" fill="black"/>
</g>
<path d="M136.05 182.504C133.39 183.129 130.641 183.266 127.936 182.91C127.143 182.857 126.37 182.648 125.659 182.293C124.949 181.938 124.316 181.446 123.797 180.843L122.55 179.253C122.088 178.513 121.832 177.662 121.807 176.789C121.781 175.915 121.988 175.05 122.406 174.281C123.516 172.487 125.281 171.2 127.322 170.694C129.359 170.19 131.477 170.112 133.543 170.466C135.745 170.777 137.898 171.369 139.95 172.228C140.987 172.581 141.872 173.281 142.455 174.212C143.038 175.306 142.534 176.467 141.881 177.654C141.288 178.818 140.465 179.849 139.462 180.683C138.46 181.517 137.298 182.137 136.05 182.504Z" fill="#FF725E"/>
<path d="M80.5607 83.1295C82.5023 80.1664 85.0339 77.6383 87.9953 75.7048C88.8182 74.9222 89.8305 74.3694 90.9312 74.102C92.0319 73.8345 93.1824 73.8617 94.2676 74.1807L95.982 75.1066C97.4369 75.0786 98.866 75.4856 100.088 76.276C101.309 77.0663 102.268 78.2042 102.842 79.545C103.285 80.823 103.436 82.1854 103.285 83.5318C103.134 84.8782 102.685 86.1744 101.969 87.3249C100.513 89.6137 98.5367 91.5234 96.2029 92.896C93.6629 94.5582 90.904 95.8546 88.0071 96.7471C86.4197 97.3651 84.6846 97.4865 83.0302 97.0953C82.1703 96.752 81.394 96.2277 80.7534 95.5576C80.1129 94.8876 79.6229 94.0871 79.3164 93.2102C78.762 91.5454 78.586 89.7761 78.8013 88.0317C79.0166 86.2874 79.6177 84.6124 80.5607 83.1295Z" fill="#FF725E"/>
<g opacity="0.3">
<path d="M80.5684 83.1055C82.5021 80.1414 85.0258 77.6141 87.9801 75.6834C88.8005 74.9011 89.8106 74.3494 90.9095 74.0837C92.0084 73.818 93.1576 73.8474 94.2422 74.1691L95.9563 75.0999C97.4096 75.0748 98.8378 75.4853 100.06 76.2793C101.281 77.0734 102.241 78.215 102.817 79.5592C103.262 80.8402 103.416 82.2051 103.268 83.5534C103.119 84.9017 102.673 86.1991 101.961 87.3501C100.511 89.6398 98.54 91.5487 96.2116 92.9189C93.6778 94.5788 90.9246 95.8719 88.0328 96.7602C86.4484 97.3761 84.7156 97.4943 83.0623 97.0992C82.2027 96.7535 81.4262 96.2269 80.7851 95.5544C80.144 94.882 79.6531 94.0793 79.3452 93.2003C78.7882 91.5317 78.609 89.7591 78.8206 88.0123C79.0322 86.2656 79.6295 84.589 80.5684 83.1055Z" fill="black"/>
</g>
<path d="M77.9281 84.3858C79.8642 81.4184 82.3968 78.8892 85.3626 76.9614C87.1687 75.6353 89.4209 75.0769 91.6297 75.4076L94.5881 75.9325C95.8271 76.2569 96.9749 76.8621 97.9432 77.7019C98.9116 78.5417 99.6748 79.5935 100.174 80.7769C100.617 82.0549 100.769 83.4172 100.618 84.7636C100.466 86.1099 100.017 87.4061 99.3014 88.5565C97.8592 90.8509 95.8945 92.769 93.57 94.152C91.015 95.8033 88.2451 97.091 85.3397 97.9783C83.8596 98.5354 82.2402 98.5922 80.728 98.1403C79.9243 97.7886 79.2154 97.2508 78.6593 96.5706C78.1032 95.8905 77.7156 95.0873 77.5284 94.2269C76.8351 92.6689 76.5104 90.97 76.5798 89.2628C76.6491 87.5557 77.1106 85.8865 77.9281 84.3858Z" fill="#FF725E"/>
<path d="M160.171 124.561C160.245 123.707 160.616 122.906 161.219 122.297C162.169 121.6 163.329 121.257 164.501 121.326C165.025 121.355 165.537 121.501 165.997 121.755C166.457 122.008 166.854 122.362 167.16 122.79C167.645 123.277 168.029 123.856 168.289 124.494C168.549 125.131 168.681 125.815 168.677 126.505C168.667 127.302 168.425 128.079 167.98 128.741C167.535 129.402 166.906 129.919 166.173 130.226C165.439 130.533 164.633 130.618 163.853 130.47C163.074 130.321 162.355 129.946 161.787 129.391C161.14 128.785 160.653 128.026 160.371 127.183C160.089 126.34 160.02 125.439 160.171 124.561Z" fill="#FF725E"/>
<g opacity="0.3">
<path d="M159.933 124.568C160.005 123.713 160.374 122.911 160.975 122.303C161.922 121.607 163.079 121.265 164.25 121.337C164.774 121.367 165.284 121.514 165.744 121.769C166.204 122.024 166.602 122.379 166.908 122.808C167.394 123.296 167.777 123.878 168.033 124.518C168.29 125.159 168.414 125.845 168.4 126.536C168.376 127.22 168.187 127.887 167.848 128.48C167.509 129.073 167.032 129.574 166.457 129.938C165.677 130.358 164.788 130.526 163.91 130.42C163.031 130.315 162.206 129.94 161.545 129.348C160.909 128.744 160.429 127.993 160.148 127.159C159.867 126.326 159.793 125.436 159.933 124.568Z" fill="black"/>
</g>
<path d="M159.403 124.729C159.49 123.946 159.839 123.216 160.393 122.658C161.229 122.035 162.256 121.726 163.294 121.784C163.774 121.813 164.241 121.946 164.664 122.173C165.087 122.4 165.456 122.717 165.745 123.101C166.184 123.556 166.529 124.094 166.76 124.684C166.992 125.274 167.105 125.904 167.093 126.539C167.081 127.175 166.913 127.799 166.603 128.355C166.293 128.911 165.852 129.382 165.318 129.726C164.596 130.112 163.774 130.269 162.963 130.175C162.152 130.082 161.389 129.743 160.775 129.203C160.205 128.624 159.782 127.915 159.543 127.136C159.304 126.357 159.256 125.531 159.403 124.729Z" fill="#FF725E"/>
<g opacity="0.2">
<path d="M159.407 124.719C159.492 123.936 159.839 123.206 160.391 122.648C161.225 122.026 162.249 121.719 163.286 121.779C163.765 121.809 164.231 121.943 164.654 122.171C165.077 122.399 165.446 122.717 165.736 123.102C166.175 123.559 166.52 124.098 166.752 124.689C166.984 125.28 167.098 125.912 167.088 126.547C167.077 127.184 166.91 127.808 166.602 128.365C166.294 128.921 165.854 129.391 165.322 129.735C164.601 130.12 163.782 130.275 162.972 130.18C162.161 130.085 161.399 129.744 160.785 129.202C160.214 128.621 159.791 127.911 159.551 127.13C159.311 126.35 159.261 125.523 159.407 124.719Z" fill="black"/>
</g>
<path d="M159.507 78.781C159.572 78.0916 159.871 77.445 160.354 76.9495C161.115 76.3829 162.049 76.1007 162.994 76.1518C163.416 76.1854 163.827 76.3084 164.198 76.5126C164.569 76.7169 164.893 76.9978 165.148 77.3369C165.534 77.7339 165.837 78.2042 166.04 78.7205C166.243 79.2368 166.342 79.7887 166.331 80.3444C166.313 80.9006 166.16 81.4446 165.887 81.9295C165.614 82.4144 165.227 82.8259 164.761 83.1285C164.132 83.4649 163.415 83.5999 162.709 83.5154C162.002 83.4308 161.338 83.1309 160.807 82.6558C160.294 82.1647 159.908 81.5555 159.681 80.8806C159.455 80.2057 159.395 79.4852 159.507 78.781Z" fill="#FF725E"/>
<g opacity="0.3">
<path d="M159.297 78.781C159.369 78.1008 159.668 77.4654 160.145 76.9787C160.898 76.4009 161.834 76.1188 162.779 76.1852C163.198 76.2168 163.605 76.3364 163.975 76.5364C164.345 76.7364 164.669 77.0123 164.927 77.3462C165.711 78.1483 166.148 79.2299 166.144 80.3548C166.14 80.9959 165.948 81.6215 165.594 82.1535C165.239 82.6854 164.736 83.1001 164.148 83.3458C163.56 83.5915 162.913 83.6574 162.288 83.5351C161.663 83.4128 161.087 83.1077 160.633 82.6581C160.115 82.1688 159.723 81.5604 159.49 80.885C159.258 80.2096 159.191 79.4876 159.297 78.781Z" fill="black"/>
</g>
<path d="M158.888 78.922C158.97 78.2983 159.244 77.7153 159.671 77.2546C160.371 76.7244 161.236 76.4646 162.109 76.5229C162.496 76.5467 162.873 76.654 163.215 76.8373C163.557 77.0205 163.855 77.2756 164.089 77.5851C164.459 77.9616 164.747 78.4106 164.936 78.9042C165.125 79.3978 165.211 79.9254 165.188 80.4543C165.168 80.9611 165.028 81.4563 164.78 81.8988C164.531 82.3413 164.182 82.7185 163.761 82.9993C163.181 83.3086 162.521 83.4328 161.87 83.355C161.218 83.2772 160.607 83.0011 160.118 82.564C159.629 82.1067 159.261 81.5349 159.047 80.8995C158.832 80.2641 158.777 79.5847 158.888 78.922Z" fill="#FF725E"/>
<g opacity="0.2">
<path d="M158.89 78.9144C158.971 78.2901 159.244 77.7069 159.67 77.2465C160.367 76.717 161.23 76.4586 162.102 76.5186C162.489 76.5433 162.865 76.6514 163.207 76.8356C163.548 77.0198 163.847 77.2757 164.081 77.5861C164.451 77.9639 164.74 78.414 164.929 78.9086C165.119 79.4031 165.206 79.9316 165.184 80.4611C165.165 80.9686 165.026 81.4641 164.779 81.9066C164.532 82.3492 164.184 82.7262 163.764 83.0065C163.185 83.3151 162.527 83.4381 161.876 83.3589C161.226 83.2797 160.615 83.0021 160.126 82.5634C159.637 82.1046 159.269 81.5314 159.053 80.8947C158.838 80.2581 158.782 79.5777 158.89 78.9144Z" fill="black"/>
</g>
<path d="M116.143 63.3881C116.252 62.4904 116.643 61.6501 117.26 60.9891C118.27 60.2534 119.499 59.8874 120.743 59.9522C121.294 59.9988 121.828 60.1622 122.31 60.4315C122.792 60.7008 123.212 61.0701 123.541 61.5147C124.561 62.5598 125.129 63.9668 125.123 65.4321C125.103 66.161 124.904 66.8741 124.543 67.5083C124.183 68.1425 123.673 68.6782 123.058 69.068C122.233 69.5111 121.294 69.6916 120.366 69.5857C119.438 69.4798 118.565 69.0924 117.863 68.4751C117.19 67.8297 116.682 67.0303 116.383 66.1448C116.083 65.2593 116.001 64.3136 116.143 63.3881Z" fill="#FF725E"/>
<g opacity="0.3">
<path d="M115.904 63.387C116.001 62.4854 116.391 61.6416 117.014 60.9873C118.011 60.2543 119.229 59.8917 120.461 59.9611C121.016 60.0022 121.556 60.1633 122.043 60.4334C122.531 60.7034 122.955 61.076 123.287 61.5259C123.794 62.0433 124.194 62.6577 124.461 63.3328C124.729 64.0079 124.859 64.73 124.845 65.4565C124.826 66.1863 124.628 66.8999 124.27 67.5342C123.912 68.1685 123.403 68.7039 122.79 69.093C121.973 69.5361 121.039 69.7154 120.116 69.6065C119.194 69.4975 118.326 69.1057 117.632 68.484C116.954 67.8395 116.442 67.0383 116.141 66.1502C115.84 65.262 115.759 64.3136 115.904 63.387Z" fill="black"/>
</g>
<path d="M115.375 63.5569C115.444 62.7317 115.797 61.9556 116.374 61.3622C117.299 60.6864 118.426 60.3492 119.567 60.4068C120.074 60.4437 120.568 60.589 121.014 60.8331C121.461 61.0771 121.85 61.4142 122.156 61.8219C122.625 62.3007 122.994 62.8688 123.242 63.493C123.489 64.1172 123.611 64.7849 123.599 65.4574C123.583 66.1344 123.403 66.7977 123.073 67.3891C122.743 67.9805 122.273 68.4818 121.706 68.849C120.951 69.2596 120.089 69.4275 119.238 69.3298C118.386 69.232 117.586 68.8735 116.946 68.3028C116.317 67.7019 115.846 66.9551 115.572 66.1278C115.298 65.3004 115.23 64.4177 115.375 63.5569Z" fill="#FF725E"/>
<g opacity="0.2">
<path d="M115.379 63.5472C115.446 62.7211 115.797 61.9448 116.372 61.3517C117.294 60.6769 118.419 60.3416 119.558 60.4015C120.065 60.4394 120.558 60.5859 121.004 60.8311C121.45 61.0764 121.84 61.4146 122.146 61.8234C122.615 62.3038 122.985 62.8734 123.233 63.4988C123.482 64.1243 123.604 64.7931 123.594 65.4664C123.58 66.1442 123.401 66.808 123.072 67.3995C122.744 67.9909 122.276 68.4919 121.71 68.8585C120.957 69.2682 120.097 69.4345 119.247 69.335C118.396 69.2354 117.597 68.8748 116.956 68.3021C116.328 67.6993 115.855 66.9506 115.58 66.1217C115.305 65.2928 115.236 64.4088 115.379 63.5472Z" fill="black"/>
</g>
<path d="M131.159 63.3934C131.194 62.9466 131.395 62.5289 131.723 62.2236C132.208 61.8421 132.815 61.6493 133.43 61.6807C133.71 61.7011 133.981 61.7826 134.226 61.9197C134.47 62.0567 134.682 62.246 134.846 62.4742C135.104 62.7258 135.307 63.0283 135.443 63.3628C135.578 63.6973 135.644 64.0565 135.634 64.418C135.642 64.8419 135.523 65.2588 135.292 65.6145C135.061 65.9701 134.728 66.248 134.338 66.4119C133.948 66.5758 133.518 66.6181 133.105 66.5334C132.691 66.4486 132.313 66.2408 132.019 65.9369C131.673 65.6215 131.412 65.2225 131.262 64.7776C131.111 64.3327 131.076 63.8564 131.159 63.3934Z" fill="#FF725E"/>
<g opacity="0.3">
<path d="M131.013 63.4167C131.07 62.9683 131.264 62.5488 131.569 62.2168C132.069 61.8438 132.685 61.6612 133.307 61.7013C133.582 61.7213 133.851 61.8001 134.094 61.9324C134.337 62.0647 134.549 62.2476 134.717 62.4687C135.213 63.0087 135.496 63.7118 135.514 64.4464C135.5 64.8087 135.399 65.1621 135.22 65.4762C135.04 65.7904 134.788 66.0559 134.484 66.2497C134.072 66.4737 133.602 66.5664 133.137 66.5156C132.671 66.4648 132.232 66.2729 131.877 65.9652C131.547 65.6364 131.298 65.2351 131.148 64.7929C130.998 64.3507 130.952 63.8797 131.013 63.4167Z" fill="black"/>
</g>
<path d="M130.749 63.5007C130.789 63.086 130.971 62.6975 131.263 62.4008C131.726 62.0646 132.286 61.8914 132.857 61.9082C133.11 61.9295 133.356 62.0053 133.577 62.1303C133.798 62.2554 133.99 62.4269 134.139 62.6332C134.381 62.8642 134.571 63.1439 134.698 63.4541C134.824 63.7644 134.884 64.0982 134.873 64.4336C134.874 64.8213 134.761 65.2009 134.547 65.5246C134.334 65.8482 134.029 66.1014 133.673 66.2521C133.317 66.4027 132.925 66.4441 132.546 66.371C132.167 66.2979 131.818 66.1136 131.544 65.8414C131.23 65.5476 130.993 65.1802 130.854 64.7719C130.715 64.3636 130.679 63.927 130.749 63.5007Z" fill="#FF725E"/>
<g opacity="0.2">
<path d="M130.751 63.4959C130.79 63.0807 130.971 62.6921 131.262 62.3956C131.724 62.0599 132.283 61.8876 132.852 61.9056C133.105 61.9274 133.351 62.0037 133.572 62.1294C133.793 62.2551 133.985 62.4271 134.134 62.634C134.376 62.8657 134.567 63.1462 134.694 63.4571C134.82 63.768 134.881 64.1023 134.87 64.4381C134.872 64.8263 134.76 65.2062 134.547 65.5298C134.334 65.8535 134.031 66.1063 133.676 66.2565C133.321 66.4066 132.929 66.4473 132.55 66.3734C132.172 66.2994 131.823 66.1142 131.549 65.8411C131.235 65.5463 130.998 65.178 130.858 64.7689C130.719 64.3598 130.682 63.9225 130.751 63.4959Z" fill="black"/>
</g>
<g opacity="0.2">
<path d="M108.159 149.775C108.21 151.894 108.681 153.982 109.543 155.916C110.406 157.85 111.643 159.592 113.182 161.04C114.721 162.487 116.531 163.611 118.507 164.345C120.482 165.079 122.583 165.409 124.685 165.316C126.834 165.129 128.924 164.516 130.836 163.514C132.748 162.512 134.445 161.139 135.828 159.475C137.212 157.811 138.255 155.887 138.899 153.816C139.543 151.744 139.774 149.564 139.579 147.402C139.522 145.308 139.042 143.248 138.168 141.347C137.294 139.446 136.045 137.744 134.496 136.345C132.948 134.945 131.132 133.878 129.161 133.208C127.19 132.538 125.105 132.279 123.032 132.448C120.91 132.561 118.833 133.104 116.926 134.044C115.018 134.985 113.319 136.304 111.931 137.922C110.542 139.54 109.492 141.423 108.844 143.46C108.196 145.497 107.963 147.645 108.159 149.775Z" fill="black"/>
</g>
<g opacity="0.2">
<path d="M153.949 151.633C154.202 148.109 155.19 144.679 156.848 141.566C157.312 140.554 157.972 139.646 158.789 138.894C159.606 138.142 160.564 137.561 161.606 137.186L164.481 136.197C165.719 135.861 167.018 135.823 168.273 136.084C169.529 136.346 170.707 136.901 171.711 137.704C172.713 138.605 173.503 139.719 174.023 140.966C174.542 142.212 174.778 143.56 174.714 144.91C174.555 147.622 173.767 150.257 172.412 152.605C170.981 155.282 169.192 157.748 167.095 159.934C166.071 161.138 164.689 161.979 163.153 162.333C162.285 162.408 161.412 162.279 160.601 161.956C159.79 161.634 159.065 161.127 158.481 160.475C157.098 159.454 155.968 158.125 155.182 156.59C154.396 155.056 153.974 153.359 153.949 151.633Z" fill="black"/>
</g>
<g opacity="0.2">
<path d="M136.058 182.524C133.402 183.145 130.655 183.277 127.951 182.915C127.159 182.861 126.386 182.649 125.676 182.292C124.965 181.935 124.332 181.441 123.812 180.836L122.562 179.24C122.1 178.497 121.842 177.644 121.816 176.769C121.789 175.893 121.994 175.026 122.409 174.257C123.516 172.462 125.277 171.175 127.315 170.672C129.349 170.17 131.465 170.096 133.53 170.455C135.732 170.771 137.884 171.369 139.936 172.234C140.973 172.589 141.858 173.293 142.443 174.227C143.028 175.324 142.526 176.487 141.876 177.675C141.286 178.84 140.465 179.871 139.465 180.705C138.464 181.539 137.305 182.158 136.058 182.524Z" fill="black"/>
</g>
<g opacity="0.2">
<path d="M77.9365 84.3611C79.8645 81.3927 82.3892 78.8645 85.3478 76.9394C87.1492 75.6148 89.3976 75.06 91.6045 75.3955L94.5604 75.9271C95.7987 76.2544 96.9462 76.863 97.9151 77.706C98.8839 78.5491 99.6483 79.6042 100.15 80.7904C100.594 82.0714 100.748 83.4362 100.6 84.7844C100.452 86.1327 100.005 87.43 99.2928 88.5809C97.8567 90.8761 95.8981 92.7934 93.5789 94.1741C91.0302 95.823 88.2661 97.1073 85.3658 97.9903C83.8885 98.5453 82.2712 98.5991 80.7598 98.1434C79.9563 97.7896 79.2472 97.2495 78.6904 96.5672C78.1337 95.8848 77.745 95.0796 77.5563 94.2174C76.8608 92.6555 76.5332 90.9532 76.5992 89.2434C76.6651 87.5336 77.1228 85.8626 77.9365 84.3611Z" fill="black"/>
</g>
<path d="M190.671 149.711C190.671 149.711 191.24 147.684 192.169 144.002C193.419 138.856 194.168 133.6 194.406 128.311C195.187 110.376 189.573 92.7697 178.573 78.6553L179.349 78.9175L178.876 79.0002L178.528 78.5713C177.297 77.0725 176.041 75.4253 174.677 73.858C171.036 69.8463 166.958 66.2577 162.519 63.1591C158.289 60.3273 153.794 57.9148 149.097 55.9554C141.166 52.7028 132.773 50.7197 124.223 50.0782C118.436 49.642 112.618 49.7865 106.856 50.5099C102.804 51.0645 100.579 51.606 100.539 51.3683C101.046 51.1345 101.582 50.969 102.132 50.8759C103.198 50.6898 104.732 50.2076 106.78 49.8805C121.242 47.5394 136.054 49.1835 149.635 54.6373C154.493 56.5993 159.145 59.0359 163.527 61.9121C168.074 65.0758 172.257 68.7383 175.996 72.832C177.4 74.4535 178.667 76.1602 179.873 77.6939L179.062 77.4071L179.565 77.3192L179.878 77.7236C186.009 85.6054 190.512 94.6396 193.123 104.299C195.248 112.122 196.086 120.245 195.601 128.347C195.26 133.693 194.331 138.987 192.831 144.132C192.438 145.542 191.973 146.931 191.436 148.292C191.281 148.777 191.074 149.244 190.819 149.685L190.671 149.711Z" fill="white"/>
<path d="M219.936 131.858C221.174 131.008 222.693 130.68 224.166 130.943C225.639 131.206 226.949 132.04 227.813 133.265C228.677 134.49 229.027 136.008 228.786 137.492C228.546 138.977 227.735 140.309 226.527 141.202C225.32 142.094 223.813 142.477 222.332 142.266C220.85 142.055 219.512 141.268 218.605 140.075C217.698 138.881 217.296 137.377 217.484 135.885C217.672 134.393 218.436 133.033 219.611 132.098" fill="#FF725E"/>
</svg>
