<svg width="24" height="357" viewBox="0 0 24 357" fill="none" xmlns="http://www.w3.org/2000/svg">
<path d="M23.5342 356.518C20.9703 344.704 23.4896 332.857 23.2336 321.017C22.9982 309.772 18.0332 299.132 13.9002 288.289C9.89453 277.82 6.47868 267.194 6.48189 256.36C6.48775 244.356 11.091 232.56 12.6828 220.634C13.5448 214.563 13.4783 208.451 12.4842 202.387C11.4464 196.497 9.6914 190.679 8.1763 184.832C6.54024 179.083 5.57959 173.262 5.30257 167.42C5.28643 161.127 6.02026 154.842 7.49763 148.622C10.0622 136.929 13.9961 125.346 14.8194 113.52C15.3226 107.668 14.7808 101.798 13.2048 96.0265C11.5966 90.4618 9.62503 84.9636 8.54308 79.3436C6.30219 67.5666 8.529 55.9273 9.57987 44.147C10.6307 32.3667 10.7736 20.6764 6.7742 9.15936C5.78192 6.31283 4.54456 3.50425 3.06791 0.746838C2.63242 -0.0426312 0.426081 0.0803596 0.883577 1.02327C6.56439 12.3208 7.97431 24.4361 7.3909 36.2331C6.80749 48.0301 3.79746 59.8591 4.6213 71.6761C5.06406 77.1262 6.10461 82.549 7.7351 87.904C9.74823 93.5596 11.1691 99.2965 11.988 105.076C12.9195 117.098 9.47872 128.973 6.49685 140.774C3.51498 152.574 1.27959 164.41 3.44703 176.349C5.56068 188.042 10.4375 199.512 10.5308 211.34C10.6264 223.731 6.21399 235.798 4.35416 248.07C3.04524 258.631 4.27839 269.259 8.00971 279.576C9.72806 284.753 11.7817 289.892 13.7889 295.028C16.1548 300.422 18.0959 305.889 19.6046 311.41C22.3557 323.374 18.9884 335.376 20.2784 347.361C20.6001 350.404 21.2217 353.431 22.1392 356.423C22.3117 356.951 23.6565 357.21 23.4877 356.515L23.5342 356.518Z" fill="#E0E0E0"/>
</svg>
