<svg width="221" height="217" viewBox="0 0 221 217" fill="none" xmlns="http://www.w3.org/2000/svg">
<path d="M147.148 170.942C183.334 150.953 196.35 106.705 176.219 72.1125C156.089 37.5195 110.435 25.6805 74.2481 45.6695C38.0616 65.6585 25.0457 109.906 45.1765 144.499C65.3072 179.092 110.961 190.931 147.148 170.942Z" fill="#329FD2"/>
<g opacity="0.3">
<path d="M148.948 138.937C147.804 142.131 147.36 145.513 147.643 148.866C147.96 152.214 147.07 155.581 145.125 158.392C142.917 160.96 138.211 161.6 136.177 158.864C135.464 157.189 134.923 155.448 134.562 153.666C133.285 151.678 131.863 149.782 130.307 147.993C129.384 146.181 128.793 144.223 128.562 142.206C126.487 131.348 121.991 120.414 113.183 113.636C112.157 112.727 110.884 112.12 109.511 111.883C108.692 111.823 107.871 111.996 107.146 112.38C106.421 112.764 105.824 113.343 105.428 114.047C105.095 114.987 104.677 115.898 104.18 116.769C103.777 117.131 103.301 117.406 102.782 117.577C102.264 117.747 101.715 117.808 101.173 117.756C100.63 117.703 100.107 117.539 99.639 117.273C99.1705 117.007 98.7673 116.647 98.4565 116.216C97.2586 114.369 96.6484 112.216 96.7011 110.022C96.4833 107.35 96.2898 104.645 96.0963 101.94C95.8332 100.55 96.0281 99.1097 96.6536 97.8226C97.7455 96.1184 100.074 95.6567 101.488 94.0717C103.33 92.1792 103.141 89.1526 104.107 86.7127C105.073 84.2729 109.092 82.6152 110.114 85.0605C113.032 75.0567 124.969 87.2657 130.592 85.3012C132.108 84.4872 133.749 83.9177 135.449 83.615C138.45 83.5614 140.557 86.547 142.032 89.1761C144.441 93.5663 146.874 97.9232 149.312 102.308C149.653 103.191 150.179 103.992 150.859 104.662C151.539 105.332 152.357 105.855 153.261 106.199C154.698 106.503 156.208 105.834 157.669 106.105C161.527 106.836 161.232 112.656 158.702 115.629C156.173 118.602 152.338 120.81 151.513 124.595C150.888 127.442 152.192 130.305 151.538 133.332C150.859 135.273 149.992 137.15 148.948 138.937Z" fill="#23451A"/>
</g>
<g opacity="0.3">
<path d="M74.1562 172.239C74.9886 172.706 75.8454 173.14 76.7021 173.574C77.5588 174.009 78.0797 174.239 78.7612 174.529C79.4428 174.818 80.1339 175.165 80.8446 175.449L82.3002 176.042C82.2759 175.9 82.2565 175.787 82.2371 175.674C80.0233 172.417 79.1446 167.471 82.3643 165.02C83.0337 164.665 83.6461 164.215 84.1811 163.686C85.482 161.975 83.7404 159.189 85.0705 157.473C85.8111 156.53 87.1987 156.377 88.1972 155.708C88.9991 154.96 89.5717 154.011 89.8502 152.969C90.1286 151.927 90.102 150.834 89.773 149.814C89.0282 147.8 88.4799 145.72 88.1353 143.602C87.9958 140.335 89.9598 136.703 88.1158 134.022C86.2717 131.342 81.2902 132.292 77.746 131.45C72.7753 130.184 70.5675 124.683 66.7178 121.185C63.4376 118.025 56.4375 115.101 51.7622 116.96C50.438 117.379 49.2958 118.223 48.5262 119.353C47.7567 120.483 47.4061 121.829 47.5327 123.168L47.0943 123.244C45.7797 123.297 44.1289 123.496 43.3601 122.522C42.5913 121.549 42.8359 119.467 41.809 118.393C41.1914 117.915 40.4867 117.553 39.7305 117.326C39.0392 116.979 38.3725 116.25 38.6358 115.505C38.8991 114.761 39.6637 114.657 39.9854 114.077C40.1184 113.843 40.1664 113.573 40.1214 113.311C40.0764 113.049 39.9413 112.811 39.7378 112.635C38.1511 111.278 37.0879 114.725 36.5713 115.572C36.3715 115.81 36.2303 116.039 36.0501 116.215C36.0501 116.215 36.0986 116.498 36.1229 116.64C36.1472 116.781 36.2734 117.517 36.3462 117.941C36.419 118.365 36.4967 118.818 36.5744 119.27C36.6521 119.723 36.6958 119.978 36.754 120.317L37.0259 121.901C38.5253 129.836 41.3186 137.473 45.3015 144.527C47.051 147.577 49.0301 150.495 51.2228 153.259C52.1522 154.467 53.1643 155.632 54.2057 156.791C55.2471 157.951 57.0574 159.734 58.4542 161.036C59.8509 162.338 61.1018 163.49 62.5133 164.527C64.4559 166.097 66.4853 167.564 68.5926 168.921C70.4672 170.128 72.4054 171.241 74.3997 172.255" fill="#23451A"/>
</g>
<g opacity="0.3">
<path d="M176.088 71.8413C175.653 71.1465 175.267 70.4237 174.933 69.6775C170.794 62.2523 163.023 59.8336 157.507 54.3978C155.697 52.6391 154.303 51.188 151.624 51.2142C147.652 51.2601 146.026 53.7304 142.71 50.5693C141.808 49.7042 140.393 49.0154 139.378 49.7749C139.802 50.4894 140.202 51.2372 140.631 51.98C140.707 52.1388 140.737 52.315 140.719 52.4902C140.811 53.0286 139.928 53.3275 139.435 53.0919C138.949 52.7835 138.524 52.3925 138.182 51.9373C137.798 51.5805 137.34 51.3072 136.838 51.1351C136.336 50.9631 135.801 50.8964 135.267 50.9392C134.734 50.9819 134.215 51.1333 133.743 51.3834C133.272 51.6336 132.859 51.9768 132.531 52.3906C132.44 52.0354 132.254 51.7108 131.993 51.4489C131.731 51.1871 131.402 50.9972 131.039 50.8981C131.037 51.2516 130.959 51.6018 130.81 51.9261C130.66 52.2504 130.443 52.5416 130.172 52.781C129.9 53.0204 129.581 53.2027 129.235 53.3161C128.888 53.4295 128.521 53.4717 128.159 53.4397C127.832 52.7667 129.101 52.4302 129.438 51.759C129.775 51.0878 129.205 50.3986 128.536 50.0183C126.929 49.0458 125.018 48.6449 123.126 48.8833C121.972 49.2375 120.747 49.2988 119.569 49.0616C118.92 48.7946 118.384 48.3038 117.74 48.0652C116.994 47.9233 116.22 47.9713 115.495 48.2044C114.769 48.4375 114.115 48.8478 113.597 49.3956C111.839 50.5318 110.576 52.2603 110.057 54.2402C109.709 56.2556 111.562 58.6195 113.543 58.0429C114.049 57.8546 114.585 57.7617 115.124 57.7691C115.861 57.8458 116.329 58.6403 116.514 59.367C116.584 60.1087 116.82 60.8247 117.206 61.465C117.64 62.0611 118.782 62.2136 119.085 61.5191C119.4 60.9299 119.566 60.2775 119.568 59.6169C119.57 58.9562 119.408 58.3067 119.096 57.7233C118.472 56.5488 118.345 55.1792 118.742 53.9033C119.382 52.7127 121.553 52.716 121.777 54.0197C121.908 54.7849 121.005 55.4958 121.166 56.2559C121.326 57.016 122.37 57.3022 123.156 57.1369C123.923 56.8883 124.722 56.7499 125.527 56.7262C126.352 56.7877 127.137 57.6731 126.649 58.3413C125.868 59.5856 123.024 58.1228 122.73 59.5744C122.789 59.9145 122.857 60.3113 122.92 60.6797C123.115 61.8133 121.631 62.4789 120.479 62.7951C119.38 63.2124 118.185 63.3181 117.034 63.0998C116.748 63.0326 116.479 62.9106 116.243 62.7409C116.007 62.5711 115.809 62.3571 115.66 62.1112C115.511 61.8654 115.415 61.5926 115.376 61.3088C115.337 61.025 115.358 60.736 115.435 60.4585C115.261 60.4011 115.076 60.3803 114.893 60.3974C114.709 60.4145 114.53 60.4692 114.369 60.5578C114.207 60.6464 114.067 60.767 113.956 60.9115C113.846 61.056 113.768 61.2213 113.727 61.3963C113.638 62.1169 113.763 62.8446 114.087 63.4935C112.838 63.418 111.901 64.631 111.456 65.7294C111.012 66.8278 110.426 68.155 109.313 68.6979C108.2 69.2408 106.356 69.0349 105.984 70.2082C105.613 71.3814 108.047 73.0903 107.431 74.5977C107.094 75.444 105.948 75.6134 105.108 75.9923C104.585 76.3124 104.143 76.7444 103.817 77.2547C103.49 77.765 103.289 78.3399 103.228 78.9347C103.167 79.5296 103.247 80.1284 103.464 80.6847C103.68 81.2411 104.027 81.7399 104.476 82.1427C104.971 82.4893 105.534 82.7355 106.131 82.8667C106.728 82.9979 107.348 83.0115 107.953 82.9066C108.559 82.8017 109.139 82.5804 109.658 82.2559C110.177 81.9314 110.625 81.5101 110.976 81.017C111.783 79.5269 112.403 77.9497 112.822 76.3197C113.457 74.7506 114.849 73.1964 116.542 73.3993C117.207 73.5246 117.837 73.7833 118.39 74.1589L121.073 75.737C121.38 75.8634 121.651 76.0574 121.866 76.3037C122.081 76.55 122.234 76.842 122.312 77.1568C122.404 77.6952 122.004 78.1731 121.911 78.6854C121.652 80.1602 123.92 81.2557 125.179 80.1621C125.706 79.6077 125.993 78.8782 125.977 78.1289C125.961 77.3796 125.644 76.6695 125.093 76.1497C123.606 74.6855 120.708 74.3119 120.47 72.2228C121.685 70.8741 124.071 71.5991 125.188 73.1859C126.304 74.7727 126.577 76.5349 127.532 78.062C128.488 79.5891 130.653 80.7899 132.157 79.7124C131.499 78.338 130.85 77.0204 130.222 75.6409C131.115 74.6983 132.671 76.7343 133.837 76.1529C134.53 75.7994 134.467 74.7306 134.023 74.0778C133.502 73.4806 133.039 72.8381 132.639 72.1581C132.56 71.8024 132.567 71.4329 132.659 71.0781C132.75 70.7232 132.924 70.3924 133.166 70.1109C133.409 69.8294 133.714 69.6048 134.058 69.4542C134.403 69.3037 134.777 69.2311 135.153 69.2421C135.895 69.2939 136.6 69.5648 137.173 70.0183C137.747 70.4719 138.162 71.0865 138.362 71.7797C138.516 72.3279 138.728 72.8584 138.996 73.3626C139.717 74.405 141.181 74.5017 142.259 74.811C143.337 75.1204 144.879 76.0208 144.59 77.3256C144.439 77.848 143.994 78.421 144.258 78.9007C144.521 79.3804 145.219 79.4055 145.301 79.8873C145.384 80.3691 145.013 80.4917 144.745 80.6841C144.003 81.1044 143.203 81.3598 142.5 81.8317C142.136 82.0472 141.84 82.3572 141.648 82.7261C141.455 83.095 141.373 83.5078 141.411 83.9172C141.61 85.0791 143.171 85.3924 143.981 86.2444C144.594 87.1855 145.082 88.1991 145.433 89.2614C146.059 90.1011 146.797 90.8563 147.628 91.5078C149.699 94.0735 151.315 96.9589 152.41 100.047C153.063 101.393 154.068 102.678 155.575 102.855C156.394 102.787 157.18 102.499 157.845 102.024C159.94 101.018 161.755 99.5313 163.131 97.6944C163.789 96.7588 164.098 95.6355 164.004 94.5141C163.91 93.3926 163.42 92.3416 162.617 91.5383C162.408 91.3392 162.13 91.2213 161.836 91.2066C161.437 91.2858 161.071 91.4816 160.787 91.7677C160.269 92.076 159.668 92.2246 159.064 92.1935C158.461 92.1624 157.884 91.9531 157.411 91.5937C156.447 90.9177 155.627 90.0697 154.992 89.0943L152.729 85.9258C153.073 85.6249 153.51 85.4439 153.969 85.412C154.429 85.3801 154.884 85.499 155.262 85.7498C156.009 86.2825 156.698 86.8865 157.32 87.5529C159.543 89.2769 162.388 90.0738 165.238 89.7711C165.959 89.6974 166.686 89.729 167.394 89.8646C169.638 90.4681 170.715 93.4042 173.023 93.6757C173.667 93.6786 174.309 93.7234 174.945 93.8098C175.396 93.997 175.799 94.2747 176.129 94.6248C176.46 94.9749 176.709 95.3896 176.862 95.8417C177.477 97.5142 178.209 99.1424 179.055 100.715C179.48 101.497 180.123 102.146 180.913 102.587C181.703 103.028 182.607 103.244 183.523 103.209C184.036 103.149 184.53 102.979 184.969 102.711C185.408 102.443 185.781 102.084 186.061 101.661L186.027 101.463C185.755 99.8755 185.863 98.5727 185.6 96.8672C185.542 96.5271 185.469 96.102 185.41 95.7619C185.23 94.7133 185.06 93.7214 184.88 92.6728C184.7 91.6242 184.31 90.4077 184.042 89.3743C183.774 88.3409 183.584 87.9361 183.356 87.1294C183.127 86.3228 182.761 85.423 182.469 84.5982C181.616 82.0902 179.676 77.6401 178.575 75.2628" fill="#23451A"/>
</g>
<g opacity="0.3">
<path d="M163.24 139.485C162.099 139.857 160.593 139.506 159.818 140.427C159.437 141.027 159.242 141.719 159.257 142.419C159.142 143.398 158.668 144.308 157.92 144.982C157.558 145.314 157.103 145.537 156.614 145.622C156.126 145.706 155.624 145.649 155.171 145.458C154.73 145.23 154.4 144.841 154.253 144.377C154.106 143.912 154.152 143.408 154.383 142.971C154.617 142.581 154.997 142.34 155.265 141.973C156.626 140.251 155.102 137.688 156.029 135.72C156.585 134.574 157.521 133.363 158.131 132.179C158.741 130.995 158.731 130.588 159.808 130.198C164.478 128.456 168.226 138.009 163.24 139.485Z" fill="#23451A"/>
</g>
<g opacity="0.3">
<path d="M84.7576 57.5397C83.4396 58.6435 82.9264 60.396 81.9693 61.8459C81.0122 63.2958 79.172 64.5192 77.6695 63.6704C77.3147 63.4483 77.0108 63.1582 76.7762 62.8176C76.5415 62.477 76.3809 62.0931 76.3042 61.6888C76.0121 60.5398 76.1104 59.3256 76.5841 58.2257C77.0531 57.0938 77.883 56.1329 78.2642 55.0162C78.6453 53.8995 78.2752 52.2709 77.075 51.9534C76.4408 51.7714 75.6991 52.0166 75.1039 51.7111C74.5088 51.4055 74.4707 49.4275 75.4957 48.7247C76.6124 48.2836 77.81 48.0762 79.0093 48.1161C83.3669 47.6825 86.0912 44.4089 88.952 41.5786C91.1683 39.3852 96.1712 36.3882 99.391 37.7568C99.7076 37.8854 99.9907 38.0796 100.221 38.3261C100.45 38.5725 100.622 38.8652 100.722 39.1838C100.823 39.5024 100.85 39.8393 100.803 40.1711C100.756 40.5029 100.635 40.8216 100.448 41.1051C100.014 41.5598 99.355 41.7614 98.9547 42.2394C98.5543 42.7173 98.5587 43.6213 98.3486 44.3289C97.7963 46.2049 95.556 47.2058 95.0915 49.0665C94.7982 50.168 95.1978 51.4413 94.6508 52.47C94.1159 53.2305 93.3272 53.7901 92.42 54.0529L87.0418 56.2685C86.2136 56.5653 85.4413 56.9951 84.7576 57.5397Z" fill="#23451A"/>
</g>
<g opacity="0.3">
<path d="M37.9794 98.6492C38.2575 98.2958 38.6045 97.9985 39.0003 97.7748C39.3961 97.5511 39.8329 97.4054 40.2851 97.3461C40.7374 97.2867 41.1961 97.315 41.6348 97.4292C42.0735 97.5435 42.4834 97.7414 42.8406 98.0115C43.6273 99.0717 43.9807 100.381 43.8334 101.688L43.8358 106.966C43.7768 107.491 43.8676 108.02 44.0983 108.495C44.7804 109.485 46.565 109.001 47.0238 107.988C47.451 106.822 47.4044 105.547 46.8938 104.424C46.3718 103.321 46.1621 102.1 46.2861 100.885C46.9993 97.8453 51.2507 97.6923 53.3774 95.5162C54.5137 93.9928 55.3043 92.2553 55.6958 90.4203C56.3256 88.6492 57.5696 86.7718 59.4614 86.5608C60.0758 86.4544 60.7339 86.6029 61.3727 86.4631C61.8076 86.3237 62.1987 86.0766 62.5069 85.7463C62.815 85.4161 63.0295 85.0143 63.1289 84.5811C63.2282 84.1478 63.2091 83.6982 63.0732 83.2772C62.9374 82.8562 62.6896 82.4785 62.3547 82.1818C62.0428 81.9442 61.6283 81.8119 61.3945 81.5025C61.2083 81.2009 61.1367 80.8447 61.192 80.4947C61.2473 80.1447 61.4262 79.8227 61.6977 79.5838C62.2293 79.1285 62.8678 78.8075 63.5557 78.6498L68.1734 77.1212C69.8898 76.5907 71.9916 75.3228 71.461 73.6361C70.9304 71.9493 68.8633 71.8407 68.318 70.419C68.2281 70.061 68.1076 69.7112 67.9577 69.3733C67.3243 68.4916 65.9248 69.1131 65.0322 69.8799C64.8662 69.5696 64.6271 69.3024 64.3338 69.0997C64.0405 68.897 63.7013 68.7646 63.3436 68.7131C62.986 68.6615 62.62 68.6923 62.2748 68.803C61.9296 68.9136 61.615 69.1011 61.3564 69.3502C60.7201 70.3918 60.4221 71.5922 60.5016 72.793C59.89 75.6565 58.4805 78.3114 56.427 80.4674C55.9204 81.3059 55.1198 81.9418 54.1736 82.2572C53.2082 82.4244 52.0141 81.6106 52.3363 80.6801C52.6585 79.7495 53.3218 79.5764 53.1563 78.9636C52.9909 78.3507 51.4695 78.4392 51.075 77.7203C51.2711 75.3537 53.7731 73.9582 55.6167 72.4143C58.061 70.4615 59.6999 67.7214 60.2276 64.7054C60.2914 64.4796 60.304 64.2436 60.2646 64.0138C60.2251 63.784 60.1345 63.5659 59.9991 63.3745C59.6093 62.8589 58.7999 62.8824 58.1563 62.9938C56.5765 63.2674 54.6165 63.6068 54.3037 65.2939C54.2849 66.125 54.327 66.9557 54.4293 67.7797C54.2575 70.2879 50.9613 71.0919 49.2736 72.8421C48.6505 73.5929 47.9774 74.3036 47.2589 74.9696C46.3016 75.5704 45.2429 76.0006 44.1332 76.2398L43.5773 76.3361C43.0845 77.3253 42.5915 78.3146 42.1327 79.3271C41.6739 80.3396 41.2494 81.3754 40.8637 82.4627C38.9252 87.4111 37.5335 92.5394 36.7123 97.7606C36.4237 99.5892 36.1938 101.408 36.032 103.273C35.8702 105.138 35.7961 106.987 35.7903 108.884C36.1733 107.3 36.3705 105.681 36.3778 104.058C36.2779 102.14 36.8415 100.236 37.9794 98.6492Z" fill="#23451A"/>
</g>
<path d="M93.3761 39.8039C93.3761 39.8039 91.4733 40.4853 88.0528 41.8099C83.2087 43.68 78.5579 46.0022 74.1671 48.7432C67.6468 52.8703 61.8112 57.9413 56.8688 63.7753C50.7204 71.0334 46.0783 79.362 43.2036 88.2924L43.069 87.5017L43.424 87.8177L43.2962 88.3053C42.7657 89.9683 42.2787 91.7109 41.7333 93.4637C41.188 95.2165 40.9933 97.0826 40.6087 98.8946C38.9614 109.412 39.855 120.117 43.2187 130.165C45.9294 138.388 50.0514 146.091 55.4137 152.956C59.0774 157.564 63.2385 161.779 67.8284 165.53C69.468 166.843 70.8259 167.74 71.6675 168.436C72.5092 169.132 73.025 169.508 72.9712 169.546C72.4539 169.309 71.9617 169.025 71.5011 168.698C70.5813 168.073 69.1452 167.248 67.4519 165.974C55.4558 156.951 46.5551 144.64 41.877 130.603C38.3555 120.369 37.4032 109.434 39.098 98.6932C39.473 96.8247 39.7848 94.9383 40.2572 93.1109L41.83 87.8344L41.9694 88.6534L41.5851 88.3425L41.7469 87.878C47.0928 71.3504 58.4271 57.1663 73.6425 47.9624C78.1104 45.2569 82.865 43.0317 87.82 41.3271C89.5617 40.7611 90.9373 40.3463 91.8641 40.1263C92.339 39.9789 92.831 39.893 93.3271 39.8707L93.3761 39.8039Z" fill="white"/>
<g opacity="0.4">
<path d="M184.613 95.794L184.356 94.2938C184.355 94.2166 184.342 94.1401 184.317 94.0673C184.258 93.5436 184.168 93.0239 184.049 92.5105C183.967 92.0293 183.879 91.5198 183.797 91.0386C183.714 90.5574 183.549 89.595 183.223 88.9228C182.707 87.1467 182.113 85.4424 181.461 83.7482C181.433 83.5007 181.391 83.255 181.335 83.0123L181.218 82.3329C181.111 81.7102 180.707 81.1098 180.459 80.5407C178.998 77.1662 177.271 73.9086 175.293 70.7966C174.806 70.0648 174.353 69.3563 173.841 68.6578C173.33 67.9594 172.41 66.6323 171.669 65.6529L169.828 63.3485C169.078 62.4874 168.328 61.6262 167.559 60.8268L166.638 59.8495C166.389 59.6302 166.165 59.3775 165.946 59.1531L165.586 58.8075L164.173 57.4199L163.671 56.953C163.547 56.8538 163.428 56.7478 163.316 56.6357L162.609 56.0293C161.679 55.1703 160.695 54.3497 159.726 53.614C158.888 52.943 158.025 52.3053 157.168 51.696L156.379 51.1331L155.794 50.7097C154.225 49.6406 152.632 48.6049 150.995 47.6642L150.259 47.2378L149.192 46.6356C148.525 46.2557 147.867 45.9324 147.205 45.5807L146.644 45.2989L145.66 44.8281C142.997 43.5509 140.252 42.4395 137.44 41.5006C137.986 41.6975 138.507 41.9278 139.029 42.1582C139.591 42.3912 140.146 42.6448 140.695 42.9189L141.679 43.3897L142.239 43.6716L144.227 44.7264L145.294 45.3286L146.03 45.755C147.701 46.719 149.377 47.7112 150.863 48.8238L151.472 49.2139C152.607 50.0374 153.708 50.8378 154.911 51.7078L154.936 51.8494L155.316 52.1333C156.402 53.0236 157.498 53.9706 158.536 54.9276C158.66 55.0268 158.779 55.1328 158.891 55.245C159.073 55.3857 159.241 55.5419 159.393 55.7119L160.401 56.674L161.161 57.4168L161.858 58.1415C162.335 58.6417 162.812 59.142 163.261 59.6474C163.709 60.1527 164.449 60.9572 165.019 61.6455C165.589 62.3338 166.5 63.4294 167.206 64.3855C167.912 65.3417 168.457 66.0634 169.066 66.9781C169.675 67.8928 170.065 68.4083 170.522 69.1452C170.98 69.882 170.985 69.9103 171.229 70.2762C173.264 73.5948 175.01 77.0753 176.448 80.6815L176.716 81.3638C176.745 81.5337 176.779 81.7318 176.813 81.9299C177.246 83.05 177.65 84.1751 177.995 85.3103C178.107 85.9614 178.428 86.6052 178.599 87.2461C178.954 88.4379 179.246 89.6116 179.542 90.8135L179.8 92.3138C179.907 92.9365 180.014 93.5592 180.116 94.1536L180.568 96.7861C180.82 98.258 181.054 99.6166 181.053 101.191L181.213 103.699C181.254 103.857 181.282 104.018 181.295 104.18C181.353 105.569 181.401 107.077 181.352 108.368C181.415 108.736 181.312 109.19 181.317 109.569C181.057 116.137 179.865 122.65 177.774 128.924C177.481 129.849 177.155 130.751 176.823 131.624C174.949 136.5 172.563 141.181 169.706 145.594C168.823 146.942 167.901 148.239 166.95 149.54C164.945 152.215 162.756 154.756 160.397 157.146C156.79 160.781 152.81 164.049 148.52 166.897C147.199 167.797 145.805 168.621 144.411 169.445C143.67 169.865 142.958 170.28 142.207 170.643C141.457 171.006 139.916 171.856 138.742 172.38C136.234 173.562 133.656 174.592 131.021 175.466C127.206 176.782 123.291 177.791 119.313 178.484C111.483 179.841 103.495 179.975 95.6524 178.88C94.0199 178.667 92.5483 178.339 90.7794 178.034C89.0105 177.728 88.1822 177.463 86.9201 177.128C85.6581 176.793 84.3911 176.429 83.1194 176.037L81.487 175.475C82.364 175.848 83.2362 176.192 84.1328 176.503C84.4934 176.674 84.8735 176.783 85.2292 176.925L85.4339 176.89L85.8188 177.027L87.992 177.758C90.488 178.58 93.0366 179.248 95.6228 179.76C97.2503 180.119 98.8926 180.389 100.53 180.63C115.177 182.638 130.163 180.377 143.59 174.135L144.76 173.582L147.085 172.392L149.283 171.166C153.089 169.001 156.693 166.513 160.052 163.734C162.824 161.463 165.42 158.997 167.819 156.356C170.366 153.534 172.689 150.53 174.768 147.37C175.602 146.089 176.378 144.818 177.119 143.524C178.6 140.933 179.921 138.261 181.075 135.522L181.934 133.333C182.29 132.426 182.588 131.53 182.915 130.628C183.384 129.147 183.833 127.554 184.223 126.146C185.873 119.847 186.635 113.371 186.489 106.895L186.363 106.159C186.329 105.864 186.278 105.571 186.212 105.281L186.174 104.006L185.96 102.76L185.809 101.883C185.702 101.26 185.595 100.637 185.488 100.015C185.381 99.3918 185.313 98.9955 185.221 98.4577C185.129 97.9199 185.012 97.2406 184.905 96.6178C184.824 96.3378 184.727 96.0627 184.613 95.794Z" fill="#23451A"/>
</g>
</svg>
