<svg width="165" height="166" viewBox="0 0 165 166" fill="none" xmlns="http://www.w3.org/2000/svg">
<path d="M94.4555 153.19C132.838 146.488 158.636 109.829 152.077 71.3106C145.518 32.7919 109.086 6.99943 70.7033 13.7014C32.3206 20.4034 6.52242 57.062 13.0814 95.5806C19.6404 134.099 56.0728 159.892 94.4555 153.19Z" fill="#0C6DC7"/>
<g opacity="0.3">
<path d="M59.1243 130.323C72.5473 133.346 86.308 134.558 100.045 133.927C110.275 133.632 120.085 133.556 129.549 136.235C127.905 137.736 126.187 139.152 124.401 140.479C114.05 140.066 103.49 141.244 93.3112 141.699C79.2884 142.498 65.2271 141.055 51.6491 137.423C43.0842 135.058 34.8095 131.73 26.9809 127.502C22.7682 122.214 19.3301 116.343 16.7719 110.07C18.2534 111.27 19.7542 112.442 21.3365 113.527C32.7853 121.451 45.6015 127.148 59.1243 130.323Z" fill="black"/>
</g>
<g opacity="0.1">
<path d="M45.6122 140.79C46.9826 140.092 49.4774 141.185 49.1531 142.936C49.1204 143.225 48.9964 143.496 48.7993 143.709C48.6022 143.921 48.3424 144.065 48.0582 144.118C47.9305 144.162 47.7965 144.185 47.6614 144.186L47.498 144.215C46.879 144.322 46.2429 144.177 45.7295 143.812C45.2161 143.447 44.8676 142.892 44.7606 142.268C44.7292 141.963 44.7947 141.655 44.9477 141.39C45.1007 141.124 45.3333 140.914 45.6122 140.79Z" fill="black"/>
</g>
<g opacity="0.2">
<path d="M109.384 125.606C118.132 126.004 126.501 128.961 134.986 131.051C137.726 127.97 140.198 124.657 142.375 121.15C144.702 117.41 146.68 113.46 148.284 109.351C145.503 109.121 142.761 108.538 140.124 107.617C135.048 105.422 130.511 102.133 126.833 97.981C118.401 89.7556 109.375 83.2554 97.3952 81.6741C91.2473 80.8744 84.834 82.5906 78.8466 80.6251C75.6871 79.4467 72.7163 77.8074 70.0293 75.7596C71.66 76.1551 73.31 76.5232 75.0179 76.8085C82.3748 77.9442 89.887 77.469 97.0421 75.4151C102.959 73.5678 109.281 73.4819 115.248 75.1675C126.867 78.8455 137.341 88.4607 150.102 87.7274C151.097 87.6679 152.087 87.5368 153.064 87.3354C153.266 83.2389 153.124 79.1324 152.639 75.0593L150.953 75.1819C144.468 75.2156 138.399 71.3754 132.959 68.3949C126.328 64.4532 119.079 61.6797 111.524 60.1939C103.718 58.9792 96.4857 61.2489 88.9289 62.6063C81.3721 63.9636 75.334 61.9826 68.308 60.2696C62.2712 59.0541 56.1382 58.3901 49.9837 58.2858C38.4605 57.5455 31.7031 48.013 29.113 37.686C25.1436 42.3784 21.8001 47.5732 19.1672 53.1386C23.1199 60.8217 29.5133 66.9521 37.3271 70.5515C39.3602 71.4419 41.4958 72.0726 43.684 72.4289C45.3824 73.0791 47.1195 73.6742 48.8219 74.3479C54.5085 76.6216 59.8004 79.7919 64.499 83.7399C69.2612 88.0303 75.0119 91.0546 81.2281 92.5379C87.8191 93.8178 94.4589 92.8614 100.916 95.1815C112.222 99.2769 118.29 110.261 128.121 116.549C126.863 115.943 129.31 117.311 128.121 116.549C123.098 113.617 120.471 113.999 113.923 113.39C104.367 112.624 93.3184 115.07 83.7447 114.622C55.1949 113.295 30.3099 98.8635 12.4736 77.5927C12.0379 82.8615 12.1899 88.1634 12.9269 93.3992C15.4351 96.2037 18.099 98.8629 20.9058 101.364C32.2634 111.504 43.6493 121.809 58.4711 125.659C66.253 127.758 74.2315 129.03 82.2755 129.454C90.5818 129.662 101.022 125.214 109.384 125.606ZM56.7421 117.967C53.612 118.921 49.6856 116.356 47.0391 114.805C43.7172 112.523 40.5856 109.972 37.6754 107.177C37.4368 107.022 37.2641 106.783 37.1914 106.507C37.1187 106.23 37.1511 105.937 37.2823 105.684C37.4135 105.43 37.634 105.236 37.9005 105.138C38.1671 105.04 38.4604 105.046 38.7229 105.155C42.059 106.535 45.2003 108.352 48.0654 110.559C50.8843 112.274 55.4944 113.219 57.4932 115.9C57.6303 116.073 57.7209 116.279 57.7563 116.497C57.7916 116.715 57.7705 116.939 57.6951 117.147C57.6196 117.354 57.4923 117.539 57.3254 117.683C57.1585 117.826 56.9576 117.924 56.7421 117.967ZM46.9302 64.8685C46.8918 64.9892 46.8199 65.0964 46.7231 65.1775C46.6264 65.2585 46.5086 65.3101 46.3837 65.3263L46.1269 65.3708C45.2644 65.1085 44.4366 64.7677 43.562 64.4349C42.6874 64.1021 41.4568 63.5161 40.4292 62.9919C38.391 61.9331 36.4824 60.6383 34.7421 59.134C33.8743 58.3738 33.0525 57.562 32.2812 56.7029C31.3926 55.7053 30.5691 54.6508 29.8159 53.5461L29.3284 52.8072C29.0214 52.2792 28.7418 51.7708 28.4815 51.2347C28.0901 50.4689 27.7897 49.6593 27.5866 48.8228C27.2554 47.5705 27.4235 46.2378 28.0551 45.1095C28.121 45.0796 28.1933 45.0671 28.2653 45.0731C28.3288 45.0361 28.4033 45.0232 28.4754 45.0367C29.8568 46.0808 29.9096 47.0887 30.5971 48.7131C30.8461 49.3325 31.1267 49.9386 31.4377 50.5289C32.0552 51.7073 32.7709 52.8308 33.577 53.8874C33.9815 54.4228 34.4052 54.9305 34.829 55.4382C38.3377 58.962 42.3339 61.9564 46.6933 64.3284C46.7762 64.3896 46.8403 64.4732 46.8781 64.5695C46.9159 64.6658 46.9259 64.7708 46.9069 64.8725L46.9302 64.8685ZM93.5811 90.6888L93.2776 90.7414C86.2083 90.4914 79.2796 88.6736 72.9855 85.4178C66.3878 81.7176 61.4002 75.6319 54.1862 73.1039C54.071 73.131 53.9501 73.1178 53.8432 73.0664C53.7632 72.9776 53.7058 72.8704 53.6759 72.7543C53.6461 72.6381 53.6448 72.5165 53.6721 72.3997C53.6994 72.283 53.7545 72.1747 53.8326 72.0843C53.9107 71.9938 54.0095 71.9238 54.1205 71.8803L54.3539 71.8399C55.1536 72.0162 55.9339 72.22 56.6715 72.4555C58.1338 72.9258 59.5498 73.5317 60.9011 74.2654C62.2059 74.9997 63.4684 75.8078 64.6825 76.6857L66.5254 78.0373C67.7658 78.9606 68.9869 79.9114 70.278 80.8501C72.8383 82.6925 75.648 84.1549 78.6208 85.1924C82.5343 86.5007 86.5117 87.606 90.5374 88.504C91.5541 88.7314 92.5841 88.9889 93.6272 89.2764C94.4035 89.4567 94.1954 90.4856 93.5618 90.7164L93.5811 90.6888ZM115.875 122.52C109.627 122.36 103.376 122.634 97.1661 123.339C86.3973 124.333 73.7359 126.066 63.9857 120.248C62.6762 119.482 63.4933 117.379 64.9862 117.532C71.2256 118.568 77.5294 119.159 83.8507 119.301C90.5658 119.204 97.2371 118.29 103.934 117.808C113.291 117.132 127.374 115.976 134.655 123.238C135.525 124.105 134.592 125.671 133.477 125.477C127.471 125.088 121.845 122.842 115.786 122.56L115.875 122.52Z" fill="black"/>
</g>
<g opacity="0.3">
<path d="M136.8 59.8288C138.876 61.8692 141.068 63.7864 143.364 65.5707C143.364 65.5707 146.659 66.6954 146.711 67.5584L146.744 67.7465C146.771 67.9313 146.756 68.1199 146.7 68.298C146.645 68.4761 146.55 68.6393 146.423 68.7753C146.296 68.9114 146.14 69.0168 145.967 69.0838C145.794 69.1508 145.608 69.1776 145.424 69.1622C141.523 69.1354 137.731 66.377 134.435 64.4047C132.189 62.9584 129.769 61.8066 127.234 60.9773C124.478 60.4852 121.792 59.6572 119.235 58.5116C117.308 57.368 118.343 54.5727 120.214 54.1274C125.739 52.8311 132.637 56.3111 136.8 59.8288Z" fill="black"/>
</g>
<g opacity="0.3">
<path d="M56.4672 95.8276C56.8921 96.1588 57.2026 96.6163 57.3548 97.135C57.5069 97.6538 57.4928 98.2075 57.3146 98.7175C57.1364 99.2275 56.803 99.6678 56.3619 99.9759C55.9209 100.284 55.3944 100.444 54.8575 100.434C42.7418 99.7761 33.176 93.6966 24.5064 85.2861C20.3866 81.302 16.5623 77.0193 13.0644 72.4723C13.9394 67.9078 15.0984 63.4034 16.5343 58.9857C21.0268 64.1791 22.8706 71.9827 27.2865 76.73C35.0268 85.1806 47.7024 88.4006 56.4672 95.8276Z" fill="black"/>
</g>
<g opacity="0.3">
<path d="M57.3077 144.204C66.9489 145.31 76.6394 145.922 86.3418 146.037C93.7675 146.204 101.446 145.598 108.058 148.754C104.38 150.782 100.363 150.824 96.2799 152.167C96.2799 152.167 96.029 151.968 95.9079 151.964C90.9505 152 86.1643 154.025 81.2132 153.816C72.5215 153.431 63.6312 151.742 56.4615 146.444C56.2469 146.281 56.0905 146.053 56.016 145.792C55.9414 145.532 55.9528 145.255 56.0484 145.001C56.144 144.748 56.3186 144.534 56.5458 144.39C56.773 144.246 57.0405 144.18 57.3077 144.204Z" fill="black"/>
</g>
<g opacity="0.3">
<path d="M122.957 87.099C121.76 84.8855 124.18 83.1591 126.091 83.6512C131.724 85.0966 136.16 90.2112 141.402 92.741C144.768 94.3499 148.351 95.4505 152.035 96.0075C151.665 98.0567 151.218 100.071 150.669 102.054C147.464 101.912 144.303 101.241 141.313 100.067C134.915 97.6652 126.352 93.2897 122.957 87.099Z" fill="black"/>
</g>
<g opacity="0.1">
<path d="M124.439 32.7724C118.292 34.5419 112.861 33.4703 106.661 32.6778C100.46 31.8854 94.2617 32.936 88.4165 30.9902C82.5714 29.0445 72.4259 21.9498 75.1663 15.1916C75.1663 15.1916 76.3238 13.0987 76.331 13.0004C85.3854 11.9221 94.5654 12.8116 103.253 15.6089C113.269 18.6302 122.471 23.9118 130.161 31.0523C129.122 31.3416 128.057 31.5262 126.982 31.6036C126.199 32.1222 125.341 32.5163 124.439 32.7724Z" fill="black"/>
</g>
<g opacity="0.1">
<path d="M146.13 57.1679C146.796 57.1391 147.458 57.0647 148.114 56.9452C146.62 53.224 144.806 49.6416 142.692 46.2391C139.961 45.375 137.279 44.3578 134.66 43.1922C131.674 42.0603 128.688 40.9283 125.625 40.0523C120.188 38.3606 114.466 37.8091 108.811 38.4317C105.839 38.9632 102.924 39.7776 100.105 40.8639L99.2781 40.8132C92.6226 40.0607 86.2776 37.5642 80.8749 33.5722C75.5357 29.6801 71.0299 24.7427 67.6272 19.0556C66.8824 17.6986 66.2165 16.2991 65.6331 14.8642C64.3942 15.0791 63.3319 15.4818 62.0512 15.8738C62.3964 16.011 62.7106 16.2172 62.9749 16.4799C63.2392 16.7426 63.448 17.0565 63.5889 17.4026C65.1009 21.168 68.05 24.6114 68.1562 28.7421C68.1148 29.2192 67.9166 29.6686 67.593 30.0192C67.2694 30.3698 66.839 30.6015 66.3698 30.6775C60.0187 30.9785 57.3907 23.7914 57.3203 18.4657C57.3164 18.1037 57.3859 17.7449 57.5247 17.4111C56.1005 17.9493 54.6884 18.5583 53.3038 19.1867C55.0251 27.487 59.7162 34.8606 66.4827 39.9023C62.4927 38.7301 58.6048 37.2297 54.858 35.4162C49.1983 32.5886 47.6566 29.071 48.5492 23.0444C48.6319 22.5363 48.6887 22.0243 48.7195 21.5104C46.6924 22.628 44.7249 23.8521 42.8251 25.1776C44.1397 27.2303 44.9886 29.655 46.1405 31.8815C46.5074 32.6518 46.9397 33.3886 47.4326 34.0837C50.086 37.5876 53.2907 40.6299 56.9195 43.0898C57.1543 43.2334 57.3402 43.4457 57.4525 43.6983C57.5648 43.9509 57.5981 44.232 57.5481 44.5041C57.498 44.7761 57.367 45.0264 57.1724 45.2214C56.9777 45.4165 56.7287 45.5472 56.4585 45.5961L55.991 45.6772C54.5286 45.6474 53.0777 45.4089 51.6814 44.969C50.9601 44.7531 50.2548 44.4863 49.5707 44.1705C47.489 43.2441 45.5673 41.9883 43.8784 40.4508C43.3221 39.9519 42.7967 39.4191 42.3051 38.8554C41.8126 38.3262 41.3546 37.7654 40.9342 37.1764C40.7913 36.9806 40.6599 36.7765 40.5406 36.5653C40.369 36.3282 40.2137 36.0794 40.076 35.8209C38.8762 33.8567 37.9319 31.7454 37.2662 29.5388C35.8382 30.7571 34.4691 32.0379 33.1081 33.3658C33.6755 34.8743 34.399 36.3184 35.2667 37.6742C39.549 43.764 45.7002 48.265 52.7707 50.4819C66.5817 55.3653 85.2431 58.7764 99.3859 53.7997C103.041 52.1163 106.835 50.7598 110.726 49.7459C115.008 49.2576 119.344 49.6792 123.455 50.9834C130.712 52.8788 138.508 57.4953 146.13 57.1679ZM74.932 34.9913C74.9823 35.1517 75.0108 35.3181 75.0169 35.4861C74.9268 35.7999 74.724 36.0686 74.448 36.2399C74.3093 36.3442 74.148 36.4138 73.9773 36.4429C73.4278 36.5489 72.8597 36.496 72.3385 36.2904C71.6623 36.1149 71.0491 35.7502 70.5696 35.2385C70.116 34.8844 69.7435 34.4359 69.4776 33.9235C69.3888 33.4052 69.1323 32.8916 68.9692 32.3618C68.9112 32.1409 68.9229 31.9072 69.0027 31.6933C69.0826 31.4794 69.2265 31.296 69.4146 31.1685C69.6788 30.9555 70.0106 30.8462 70.3487 30.8609C70.4635 30.8642 70.5758 30.8946 70.6769 30.9495L71.2944 31.1821L71.912 31.4147C72.0361 31.4687 72.1531 31.538 72.2603 31.6211L73.2198 32.3039C74.1021 32.9566 74.719 33.9103 74.9554 34.9873L74.932 34.9913ZM85.1475 41.2262C85.2038 41.484 85.1739 41.7534 85.0624 41.9922C84.951 42.231 84.7642 42.4258 84.5313 42.5463C84.1994 42.7296 83.8337 42.8426 83.4569 42.8782C83.0367 42.9208 82.6127 42.9045 82.1969 42.8299C81.4219 42.7321 80.6711 42.4923 79.9815 42.1223C79.6447 41.9309 79.325 41.7103 79.0261 41.4631C78.0301 40.8171 77.0973 40.0771 76.2402 39.2531C76.0612 39.0854 75.9417 38.8633 75.9001 38.6206C75.8585 38.378 75.8971 38.1283 76.01 37.91C76.126 37.6942 76.2871 37.5064 76.4822 37.3594C76.6772 37.2125 76.9016 37.1099 77.1399 37.0589C77.4796 36.9936 77.8313 37.0531 78.1314 37.2266C79.2766 37.8572 80.4849 38.3634 81.736 38.7366C82.2821 38.9813 82.8069 39.2717 83.305 39.6048L83.7782 39.838L84.2241 40.0519C84.5218 40.2116 84.7762 40.4424 84.9651 40.7241C85.0606 40.8765 85.1228 41.0477 85.1475 41.2262ZM142.885 51.1554C142.843 51.3234 142.751 51.4746 142.622 51.5892C141.981 52.1418 141.231 52.5528 140.422 52.7958C139.922 52.9553 139.403 53.0454 138.879 53.0634C135.848 52.7319 132.928 51.7214 130.333 50.1057L127.729 48.956C126.043 48.1874 124.32 47.5064 122.565 46.9158C121.67 46.6101 120.783 46.3514 120.018 46.0961C117.563 45.4209 115.028 45.093 112.485 45.1219C111.619 45.141 110.755 45.2099 109.897 45.3282L108.027 45.6526C103.632 46.4149 99.3782 47.8565 95.0321 48.9015L92.3407 49.4898C91.4291 49.6479 90.5175 49.806 89.6058 49.9642C87.3304 50.2429 85.0408 50.3888 82.7485 50.4014C80.4669 50.3995 78.1901 50.1852 75.9473 49.7614C74.4377 49.4832 72.9526 49.0836 71.5061 48.5665C71.3719 48.5196 71.251 48.4407 71.1538 48.3365C70.9405 48.1455 70.7952 47.8895 70.74 47.6076C70.682 47.3302 70.6991 47.0423 70.7897 46.774C70.881 46.5136 71.0683 46.2987 71.3126 46.1737C71.4554 46.1236 71.6055 46.0976 71.7567 46.0967C73.7606 45.9917 75.7807 45.981 77.7734 45.9508L81.0372 45.8942C84.284 45.8888 87.5266 45.6667 90.744 45.2294C95.4392 44.5363 99.981 42.9478 104.612 41.8776L106.949 41.4722L109.287 41.0667L110.955 40.9713L112.624 40.876C115.459 40.9002 118.279 41.3002 121.012 42.0657C121.922 42.3203 122.836 42.5985 123.735 42.9278C125.551 43.7395 127.306 44.6839 128.985 45.7537C132.232 47.9721 135.876 49.5321 139.714 50.3468C140.511 50.4203 141.315 50.387 142.104 50.2476C142.19 50.2314 142.278 50.2325 142.364 50.251C142.45 50.2694 142.531 50.3048 142.603 50.355C142.722 50.4575 142.812 50.5902 142.863 50.7392C142.914 50.8882 142.924 51.0481 142.893 51.2025L142.885 51.1554Z" fill="black"/>
</g>
<g opacity="0.1">
<path d="M71.784 104.133C71.8169 102.401 72.3659 100.72 73.3599 99.3075C74.0201 98.3349 74.9727 97.6013 76.078 97.2144C76.5658 97.0549 77.0889 97.0399 77.5852 97.1713C80.5155 96.9258 83.4386 97.7318 85.8375 99.4466C86.7436 100.092 87.4439 100.988 87.8527 102.027C88.2615 103.065 88.3613 104.201 88.1397 105.295C87.5817 106.257 86.8161 107.08 85.8996 107.704C84.9831 108.328 83.9389 108.737 82.8442 108.9C79.8929 109.775 76.3723 110.554 73.9535 108.648C73.2729 108.113 72.7234 107.427 72.3472 106.644C71.9711 105.861 71.7784 105.002 71.784 104.133Z" fill="black"/>
</g>
<g opacity="0.4">
<path d="M12.9238 69.5488C14.5587 61.6087 17.517 54.0058 21.6734 47.0622C21.8583 46.7399 22.0238 46.4451 22.2168 46.1698C23.7235 43.7711 25.3637 41.4602 27.1294 39.2479C26.4774 40.2074 25.8255 41.1669 25.2283 42.1653C25.0353 42.4406 24.8698 42.7353 24.6849 43.0575C20.5285 50.0011 17.5702 57.6041 15.9353 65.5442C8.8748 97.7283 27.4946 132.867 57.8264 145.006C60.7927 146.283 63.8418 147.355 66.9525 148.215C80.0798 151.649 93.9088 151.199 106.782 146.919C119.654 142.64 131.025 134.711 139.529 124.085C116.432 159.675 61.8064 164.829 32.4722 134.158C24.1622 125.872 18.0281 115.636 14.6225 104.373C11.2168 93.1101 10.6467 81.1736 12.9633 69.6388L12.9238 69.5488Z" fill="black"/>
</g>
<path d="M120.997 142.112L121.412 141.726L122.681 140.708L127.651 136.847L127.791 136.823C127.791 136.823 127.534 136.868 127.59 137.051L127.562 136.887L128.334 136.197C134.325 130.815 139.397 124.482 143.347 117.453L143.697 117.247C143.697 117.247 143.215 117.524 143.289 117.68L143.253 117.469C148.9 107.269 151.948 95.8312 152.125 84.1767C152.302 72.5221 149.602 61.0137 144.266 50.6789L144.852 51.0111L144.478 51.0764L144.247 50.7064L141.975 46.6864C141.251 45.2674 140.409 43.9126 139.458 42.6367L136 38.0033C134.747 36.5807 133.39 35.2489 132.119 33.8539C130.973 32.4501 129.713 31.1444 128.352 29.9501C126.981 28.7198 125.534 27.5779 124.019 26.5314L119.492 23.5326C117.985 22.5891 116.346 21.8615 114.812 21.0433L112.489 19.8319C111.705 19.462 110.89 19.194 110.086 18.8517L105.346 17.0004C94.0089 13.268 81.941 12.3058 70.1429 14.1936C62.1754 15.5318 54.501 18.269 47.4718 22.2797C44.9925 23.678 43.1483 25.1345 41.979 25.8938L40.5534 26.8426C40.394 26.9663 40.2154 27.0627 40.0249 27.128L40.4634 26.7377L41.8263 25.7032C43.0731 24.8338 44.7692 23.355 47.2325 21.8629C54.1903 17.6689 61.8493 14.7855 69.8317 13.3549C81.7813 11.3119 94.037 12.2025 105.552 15.9507L110.366 17.8133C111.166 18.1322 112.008 18.4195 112.793 18.7893L115.166 20.0161C116.751 20.8496 118.389 21.5771 119.947 22.5359L124.552 25.5694C126.094 26.6352 127.569 27.7964 128.968 29.0461C130.476 30.2008 131.884 31.4807 133.178 32.8724C134.501 34.2827 135.865 35.6614 137.129 37.0096C138.393 38.3577 139.467 40.1491 140.65 41.7286C141.622 43.033 142.485 44.4161 143.23 45.8639L145.541 49.9736L144.951 49.618L145.348 49.5487L145.412 49.9237C150.845 60.4219 153.571 72.1268 153.34 83.971C153.109 95.8153 149.93 107.422 144.092 117.733L144.056 117.522C144.088 117.71 143.762 118.056 143.629 117.983L143.979 117.777C139.929 124.844 134.701 131.162 128.522 136.454L127.699 137.129L127.671 136.965C127.671 136.965 127.524 137.232 127.45 137.22L127.59 137.196L122.452 140.917L121.116 141.826C121.199 142.029 121.001 142.136 120.997 142.112Z" fill="white"/>
</svg>
