<svg width="225" height="224" viewBox="0 0 225 224" fill="none" xmlns="http://www.w3.org/2000/svg">
<path d="M153.736 169.481C184.975 145.716 191.184 100.98 167.604 69.5583C144.025 38.137 99.5851 31.9297 68.3461 55.6939C37.1071 79.4582 30.8982 124.195 54.4781 155.616C78.058 187.038 122.497 193.245 153.736 169.481Z" fill="#E4B296"/>
<g opacity="0.3">
<path d="M93.1179 43.5037C93.6678 44.8017 94.1375 46.0141 94.5092 46.8455C90.927 47.6143 87.7783 49.752 85.7165 52.8151C84.0848 56.0837 85.1514 60.0126 84.864 63.6785C84.8819 64.2214 84.7834 64.7614 84.5754 65.2613C84.3674 65.7613 84.0549 66.2093 83.6593 66.5746C82.8639 67.0108 81.9483 67.1695 81.0535 67.0263C75.8075 66.7745 69.7049 66.1071 66.1583 70.0394C64.1273 72.3157 63.1822 75.9629 60.2932 76.8618C57.4042 77.7607 54.3992 74.9308 52.9099 71.971C62.5029 57.8996 76.7702 47.7983 93.1179 43.5037Z" fill="black"/>
</g>
<g opacity="0.3">
<path d="M70.9396 83.7228C70.792 83.7953 70.627 83.8238 70.4637 83.8052C63.5662 81.6892 70.5677 69.188 75.9311 69.2193C76.6739 69.2061 77.4071 69.3948 78.0545 69.7658C78.7019 70.1368 79.2397 70.6765 79.612 71.3288C79.9842 71.981 80.1772 72.7219 80.1709 73.4743C80.1646 74.2266 79.9592 74.9628 79.5761 75.6063C78.034 79.1838 73.6529 80.3066 71.6376 83.6019C71.4266 83.7245 71.1793 83.7674 70.9396 83.7228Z" fill="black"/>
</g>
<g opacity="0.3">
<path d="M55.1926 96.6304C54.3539 97.0736 53.344 96.5201 52.6459 95.8796C51.4758 94.7234 50.676 93.2379 50.351 91.6168C50.0261 89.9958 50.191 88.3146 50.8244 86.7929C53.1968 81.5818 61.6491 79.6215 63.7533 85.9776C64.17 87.124 64.1799 88.3804 63.7812 89.5309C63.3825 90.6814 62.6 91.6541 61.5685 92.2819C60.4028 92.9141 59.0164 93.0218 57.9252 93.7073C57.0536 94.3344 56.2915 95.104 55.6698 95.9849C55.5483 96.2261 55.3869 96.4444 55.1926 96.6304Z" fill="black"/>
</g>
<g opacity="0.3">
<path d="M58.5627 116.899C57.6117 117.063 56.549 116.387 55.722 116.894C54.895 117.402 54.924 118.521 54.148 118.755C53.372 118.989 52.8165 118.225 52.4995 117.519C51.5157 115.28 51.396 112.75 52.1642 110.432C52.2941 110.015 52.5055 109.63 52.7857 109.298C53.5857 108.676 54.5196 108.254 55.512 108.065C56.1626 108.019 56.8139 108.154 57.3951 108.456C57.9763 108.757 58.4654 109.214 58.8091 109.777C59.4769 110.903 59.8636 112.176 59.9354 113.485C60.1036 114.845 59.846 116.577 58.5627 116.899Z" fill="black"/>
</g>
<g opacity="0.3">
<path d="M65.2087 105.066C68.4079 101.433 74.7942 103.803 77.5675 106.634C79.8122 108.861 82.474 116.18 76.9003 116.45C75.9709 116.481 75.0454 116.307 74.1873 115.942C73.3292 115.576 72.559 115.026 71.9295 114.331C71.2018 113.262 70.3326 112.298 69.3466 111.468L69.0913 111.313C67.8855 110.761 66.3873 110.788 65.3332 109.978C64.6775 109.339 64.2965 108.464 64.2732 107.545C64.2499 106.625 64.5861 105.734 65.2087 105.066Z" fill="black"/>
</g>
<g opacity="0.3">
<path d="M68.0097 116.761C68.0885 117.068 68.1016 117.388 68.0481 117.699C67.9947 118.011 67.8759 118.307 67.6998 118.568C67.5264 118.749 67.3182 118.893 67.0878 118.99C66.8575 119.086 66.61 119.134 66.3604 119.131C65.7057 119.097 65.086 118.818 64.6221 118.348C64.1582 117.877 63.8833 117.249 63.8509 116.586C63.8185 115.923 64.0311 115.272 64.447 114.76C64.863 114.249 65.4526 113.913 66.101 113.818C67.0821 114.519 67.7643 115.572 68.0097 116.761Z" fill="black"/>
</g>
<g opacity="0.3">
<path d="M66.875 113.857C66.6247 113.811 66.3693 113.799 66.1161 113.823L65.8176 113.61L66.875 113.857Z" fill="black"/>
</g>
<g opacity="0.3">
<path d="M44.6681 100.599C45.6867 101.917 46.1893 103.57 46.0786 105.239C45.6908 106.542 45.2137 107.816 44.6509 109.052C43.3947 113.297 46.9246 118.36 44.634 122.257C43.8011 123.454 42.6336 124.37 41.282 124.886C39.7356 115.904 39.9064 106.708 41.7851 97.7999C42.9194 98.5295 43.8994 99.4812 44.6681 100.599Z" fill="black"/>
</g>
<g opacity="0.3">
<path d="M50.4847 149.613C47.1081 144.004 44.4999 137.958 42.7321 131.64C45.7623 127.808 48.4894 124.491 54.1271 124.441C55.6532 124.347 57.1722 124.731 58.4785 125.54C59.7849 126.349 60.8156 127.544 61.4312 128.964C61.8042 130.448 61.8583 131.995 61.5899 133.501C61.4481 135.146 61.2856 136.861 61.1272 138.41C61.1016 139.079 60.9233 139.732 60.6063 140.319C59.4915 142.001 56.8662 140.967 54.9673 141.693C54.2602 141.946 53.6168 142.354 53.0824 142.886C52.548 143.419 52.1354 144.063 51.8736 144.775C51.3439 146.19 50.9503 147.654 50.6982 149.146L50.4847 149.613Z" fill="black"/>
</g>
<g opacity="0.3">
<path d="M71.0594 139.722C70.6757 138.815 70.4132 137.86 70.2789 136.883C69.7754 135.584 69.1362 134.343 68.3724 133.181C68.0147 132.588 67.8098 131.914 67.7763 131.221C67.7429 130.528 67.882 129.838 68.181 129.215C68.4029 128.851 68.755 128.589 69.1638 128.483C69.6209 128.475 70.0686 128.618 70.4399 128.889C72.6841 130.477 74.6184 132.473 76.1443 134.775L75.3417 134.088C76.0372 134.804 76.5102 135.71 76.7017 136.695C76.8234 137.44 76.7295 138.204 76.4315 138.895C76.1335 139.586 75.644 140.174 75.0224 140.588C74.3766 140.974 73.6104 141.1 72.8761 140.939C72.1418 140.779 71.4933 140.344 71.0594 139.722Z" fill="black"/>
</g>
<g opacity="0.3">
<path d="M132.905 60.849C132.493 60.5825 132.028 60.4138 131.544 60.3554C130.123 60.2701 129.383 62.0557 128.127 62.7374C127.453 63.0325 126.702 63.0973 125.988 62.9221C125.273 62.7469 124.634 62.3412 124.166 61.7662C119.357 56.2348 127.585 50.434 132.901 52.0653C138.218 53.6967 141.596 65.3761 132.905 60.849Z" fill="black"/>
</g>
<g opacity="0.3">
<path d="M130.367 96.541C129.275 94.3996 128.438 92.1354 127.871 89.7958C127.288 87.9397 127.265 85.9514 127.805 84.0852C128.576 82.641 129.678 81.4059 131.019 80.4831C132.36 79.5604 133.9 78.9769 135.511 78.7814C138.195 77.9235 141.077 77.9208 143.767 78.7737C145.391 79.5931 146.935 80.566 148.379 81.6795C150.919 83.3564 153.809 84.4105 156.375 86.0498C158.195 87.1435 159.709 88.6924 160.77 90.5476C164.615 94.7851 166.928 100.216 167.33 105.949C167.662 108.394 167.046 110.872 165.612 112.862C162.643 116.287 156.806 115.181 153.457 118.109C150.109 121.038 149.941 125.764 146.431 127.562C142.921 129.361 138.974 126.902 136.089 124.359C131.986 120.803 127.937 115.848 129.011 110.502C129.668 106.916 132.581 103.732 131.952 100.07C131.596 98.8224 131.062 97.6334 130.367 96.541Z" fill="black"/>
</g>
<g opacity="0.3">
<path d="M162.711 82.043L157.147 79.6964C156.592 79.5046 156.089 79.1834 155.679 78.759C155.495 78.4817 155.37 78.169 155.311 77.8406C155.252 77.5122 155.261 77.1752 155.338 76.851C155.414 76.5267 155.556 76.2222 155.755 75.9567C155.953 75.6912 156.204 75.4703 156.491 75.3082C157.096 75.0063 157.769 74.8716 158.442 74.9178C159.115 74.9639 159.765 75.1893 160.326 75.571C161.428 76.3334 162.389 77.2879 163.162 78.39L161.703 77.1201C162.31 77.7631 162.727 78.566 162.906 79.4367C163.084 80.3074 163.017 81.2107 162.711 82.043Z" fill="black"/>
</g>
<g opacity="0.3">
<path d="M171.2 93.5502C171.129 94.6534 170.037 95.7021 169.025 95.3155C168.485 95.0259 168.052 94.5676 167.789 94.009C167.035 92.6522 166.249 91.3008 165.468 89.9816C165.173 89.5718 165.02 89.0759 165.03 88.5699C165.116 88.2531 165.308 87.9764 165.572 87.7861C165.836 87.5959 166.157 87.5037 166.481 87.5251C167.126 87.5646 167.734 87.8487 168.183 88.321C169.484 89.6628 170.457 91.2947 171.023 93.0851L170.217 90.481C170.854 91.375 171.198 92.4488 171.2 93.5502Z" fill="black"/>
</g>
<g opacity="0.3">
<path d="M73.8864 95.9752C73.4783 95.75 73.1654 95.3816 73.0065 94.9395C72.8476 94.4974 72.8539 94.0122 73.0241 93.5755C73.1943 93.1387 73.5166 92.7807 73.9303 92.5689C74.344 92.3571 74.8204 92.3063 75.2695 92.4259C75.6776 92.6511 75.9905 93.0195 76.1494 93.4615C76.3083 93.9036 76.302 94.3888 76.1318 94.8256C75.9616 95.2623 75.6392 95.6204 75.2256 95.8322C74.8119 96.044 74.3355 96.0948 73.8864 95.9752Z" fill="black"/>
</g>
<g opacity="0.3">
<path d="M78.3226 83.6778C78.8604 83.9669 79.2751 84.4458 79.4878 85.0234C79.7005 85.6011 79.6964 86.2371 79.4763 86.8105C79.2561 87.384 78.8353 87.8548 78.2938 88.1336C77.7524 88.4123 77.1281 88.4795 76.5396 88.3223C76.0018 88.0331 75.5871 87.5542 75.3744 86.9766C75.1617 86.399 75.1659 85.763 75.386 85.1895C75.6061 84.6161 76.0269 84.1452 76.5683 83.8665C77.1098 83.5878 77.7342 83.5206 78.3226 83.6778Z" fill="black"/>
</g>
<g opacity="0.3">
<path d="M83.3594 103.718C81.6626 101.9 80.617 99.558 80.3912 97.0685C80.1654 94.579 80.7724 92.0872 82.1145 89.9944C83.9433 87.3649 87.2929 85.6277 89.886 88.2168C90.9081 89.5536 91.5414 91.1527 91.7144 92.8332C91.8873 94.5137 91.5928 96.2085 90.8644 97.7256C90.0434 100.345 90.8312 101.332 91.8815 103.66C92.508 105.034 92.7678 106.549 92.6347 108.055C92.5931 108.722 92.3897 109.369 92.0425 109.937C91.6953 110.505 91.2151 110.977 90.6443 111.311C90.0736 111.645 89.43 111.831 88.7706 111.853C88.1111 111.874 87.4561 111.731 86.8637 111.434C84.6171 110.106 83.9175 106.594 83.3594 103.718Z" fill="black"/>
</g>
<g opacity="0.3">
<path d="M70.2815 120.664C72.2551 120.523 74.2342 120.874 76.0458 121.686L76.6834 121.973C77.6616 122.305 78.4868 122.989 79.0035 123.894C79.5202 124.799 79.6925 125.863 79.4879 126.886C79.3253 127.325 79.0766 127.727 78.7567 128.067C78.4368 128.406 78.0523 128.677 77.6263 128.862C77.2003 129.047 76.7415 129.143 76.2774 129.144C75.8134 129.145 75.3536 129.051 74.9256 128.868C74.0956 128.462 73.3534 127.892 72.7424 127.193C71.8694 126.403 70.8868 125.748 69.8263 125.247C67.8818 124.391 67.7823 120.766 70.2815 120.664Z" fill="black"/>
</g>
<g opacity="0.3">
<path d="M81.2514 121.434C80.8543 121.165 80.5484 120.779 80.3756 120.328C80.2587 120.026 80.2294 119.697 80.2912 119.38C80.353 119.063 80.5034 118.77 80.7244 118.537C80.9454 118.304 81.2279 118.14 81.5385 118.064C81.8492 117.989 82.1749 118.005 82.4773 118.111C82.9201 118.254 83.2974 118.554 83.5403 118.956C83.7832 119.357 83.8754 119.834 83.7999 120.298C83.7611 120.577 83.6526 120.842 83.4845 121.067C83.3164 121.292 83.0943 121.47 82.8393 121.584C82.5843 121.697 82.3047 121.743 82.0269 121.717C81.7491 121.691 81.4821 121.594 81.2514 121.434Z" fill="black"/>
</g>
<g opacity="0.3">
<path d="M120.506 107.498C116.993 106.983 116.106 103.335 115.219 100.447C114.332 97.5596 112.977 94.2241 115.222 91.7195C115.763 91.1943 116.404 90.787 117.107 90.5229C117.81 90.2589 118.559 90.1435 119.308 90.184C120.058 90.2245 120.792 90.42 121.464 90.7584C122.137 91.0967 122.735 91.5709 123.221 92.1517C124.25 93.3198 125.036 94.686 125.531 96.1682C126.026 97.6503 126.221 99.2177 126.103 100.776C126.056 101.302 125.924 101.817 125.712 102.299C125.701 102.591 125.675 102.882 125.634 103.172C125.514 104.433 124.908 105.593 123.949 106.403C122.989 107.213 121.752 107.606 120.506 107.498Z" fill="black"/>
</g>
<g opacity="0.3">
<path d="M120.807 115.457C120.699 115.204 120.652 114.928 120.669 114.654L120.636 114.461C120.425 114.022 120.336 113.533 120.379 113.048C120.423 112.562 120.596 112.098 120.882 111.706C121.045 111.449 121.26 111.229 121.512 111.061C121.764 110.892 122.048 110.779 122.346 110.727C122.644 110.676 122.949 110.687 123.243 110.761C123.536 110.835 123.812 110.97 124.052 111.157C124.405 111.404 124.706 111.719 124.938 112.085C125.169 112.452 125.327 112.861 125.4 113.289C125.474 113.716 125.462 114.155 125.366 114.578C125.27 115 125.091 115.399 124.841 115.751C124.615 116.099 124.302 116.38 123.933 116.564C123.564 116.749 123.153 116.83 122.742 116.8C122.332 116.771 121.936 116.63 121.596 116.394C121.256 116.158 120.983 115.834 120.807 115.457Z" fill="black"/>
</g>
<g opacity="0.3">
<path d="M114.212 117.22C111.756 117.348 110.616 115.265 109.446 113.385C108.099 111.501 106.934 109.489 105.971 107.378C105.563 106.519 105.418 105.557 105.552 104.615C105.687 103.673 106.096 102.794 106.726 102.091C107.044 101.796 107.417 101.569 107.823 101.423C108.23 101.278 108.661 101.217 109.092 101.244C109.522 101.271 109.943 101.386 110.329 101.581C110.716 101.777 111.06 102.049 111.34 102.382C112.558 104.142 113.429 106.123 113.906 108.217C114.001 108.505 114.125 108.782 114.277 109.045C117.083 110.773 119.086 116.937 114.212 117.22Z" fill="black"/>
</g>
<g opacity="0.3">
<path d="M178.577 89.9973C175.174 89.437 172.093 87.6195 169.927 84.8951C168.439 82.9506 167.384 80.7033 166.833 78.3078C166.283 75.9124 166.25 73.4257 166.737 71.019C166.475 69.9348 166.471 68.8037 166.725 67.719C171.95 74.3735 175.964 81.9181 178.577 89.9973Z" fill="black"/>
</g>
<g opacity="0.3">
<path d="M158.539 137.199L158.127 137.271C157.523 138.353 156.684 139.28 155.672 139.983C154.661 140.686 153.504 141.146 152.289 141.327C152.148 141.562 151.96 141.764 151.735 141.918C151.511 142.073 151.257 142.177 150.989 142.223C150.721 142.27 150.447 142.257 150.184 142.187C149.921 142.117 149.676 141.99 149.465 141.816C148.585 141.103 148.001 140.082 147.83 138.955C147.275 137.81 147.154 136.499 147.492 135.272C148.106 132.948 149.793 131.928 151.386 130.361L151.545 130.333C152.196 129.342 152.771 128.302 153.265 127.221C153.499 126.568 153.796 125.94 154.152 125.346C154.892 124.567 155.895 124.1 156.962 124.038C158.03 123.976 159.082 124.324 159.909 125.011C160.14 125.177 160.358 125.36 160.559 125.561C161.555 125.653 162.019 126.831 162.233 127.887C162.648 128.707 163.022 129.548 163.352 130.407L162.35 128.76C162.714 130.441 162.711 132.181 162.343 133.859C162.111 134.738 161.625 135.525 160.947 136.12C160.269 136.715 159.431 137.091 158.539 137.199Z" fill="black"/>
</g>
<g opacity="0.3">
<path d="M125.286 73.2872C125.786 73.2267 126.294 73.3043 126.756 73.5119C127.217 73.7195 127.615 74.0493 127.908 74.4664C128.2 74.8836 128.376 75.3726 128.417 75.8819C128.458 76.3912 128.363 76.9019 128.141 77.3599C127.703 78.1781 127.087 78.8844 126.34 79.4258L125.803 79.9159L125.685 80.3666C125.524 81.1991 125.178 81.9832 124.674 82.6597C123.425 84.1337 120.437 83.8567 120.268 81.5364C120.13 80.1778 120.475 78.8155 121.241 77.6942L121.361 77.4418C121.496 76.4166 121.949 75.4621 122.654 74.7155C123.359 73.969 124.28 73.4689 125.286 73.2872Z" fill="black"/>
</g>
<g opacity="0.3">
<path d="M145.661 155.938C145.816 152.269 149.861 151.469 152.183 149.577C154.506 147.685 154.363 143.239 157.879 142.398C158.445 142.293 159.027 142.321 159.582 142.479C160.136 142.637 160.647 142.922 161.077 143.311C161.507 143.7 161.843 144.184 162.06 144.724C162.277 145.265 162.369 145.848 162.329 146.429C162.24 149.226 161.243 151.913 159.491 154.073C158.823 156.002 157.591 157.677 155.958 158.876C154.325 160.076 152.37 160.743 150.35 160.789C149.111 160.724 147.94 160.189 147.071 159.29C146.202 158.391 145.699 157.194 145.661 155.938Z" fill="black"/>
</g>
<g opacity="0.3">
<path d="M165.329 134.368C165.478 134.008 165.727 133.7 166.046 133.481C166.365 133.262 166.74 133.142 167.126 133.134C167.512 133.127 167.892 133.233 168.22 133.44C168.548 133.647 168.81 133.945 168.975 134.299C169.507 135.722 169.714 137.248 169.578 138.762C169.36 140.156 168.568 142.014 166.914 142.267L166.565 142.328C165.752 142.65 164.85 142.659 164.029 142.353C163.208 142.048 162.525 141.448 162.11 140.668C161.694 139.889 161.575 138.982 161.774 138.121C161.974 137.26 162.478 136.504 163.191 135.996C164.039 135.419 165.086 135.237 165.329 134.368Z" fill="black"/>
</g>
<g opacity="0.3">
<path d="M165.055 127.341C164.986 127.035 165.006 126.716 165.112 126.422C165.218 126.128 165.405 125.871 165.652 125.682C165.876 125.5 166.153 125.397 166.44 125.389C166.728 125.381 167.01 125.469 167.245 125.638C167.5 125.818 167.701 126.066 167.825 126.354C167.95 126.642 167.993 126.959 167.95 127.27C167.918 127.627 167.756 127.958 167.496 128.199C167.235 128.44 166.894 128.574 166.54 128.573C166.189 128.579 165.847 128.458 165.575 128.233C165.303 128.007 165.119 127.691 165.055 127.341Z" fill="black"/>
</g>
<g opacity="0.3">
<path d="M174.53 141.208C176.186 135.868 174.785 132.248 172.953 127.25C171.8 124.627 171.471 121.709 172.01 118.894C173.243 114.123 177.56 111.591 181.925 109.908C182.237 119.52 180.622 129.092 177.176 138.041C176.462 139.948 175.667 141.77 174.868 143.56C174.658 143.211 174.52 142.823 174.462 142.419C174.404 142.014 174.427 141.603 174.53 141.208Z" fill="black"/>
</g>
<g opacity="0.3">
<path d="M175.88 108.346C175.296 108.788 174.568 108.987 173.842 108.903C173.117 108.819 172.45 108.459 171.977 107.895C171.714 107.683 171.484 107.433 171.293 107.152C170.993 106.598 170.889 105.958 170.996 105.337C171.103 104.716 171.417 104.151 171.884 103.736C172.373 103.267 172.938 102.889 173.556 102.618C175.725 100.944 178.249 99.8033 180.93 99.2857C181.328 101.603 181.72 103.888 181.895 106.244C179.769 106.525 177.723 107.24 175.88 108.346Z" fill="black"/>
</g>
<g opacity="0.3">
<path d="M173.971 93.5898C174.062 93.3187 174.224 93.0776 174.439 92.8919C174.654 92.7063 174.915 92.5828 175.193 92.5345C175.472 92.4862 175.759 92.5149 176.024 92.6175C176.288 92.7201 176.521 92.8929 176.697 93.1177C176.736 93.3425 176.927 93.5078 177.055 93.684L177.083 93.8446C177.226 94.0712 177.323 94.3242 177.368 94.5889C177.414 94.8537 177.407 95.1248 177.347 95.3864C177.352 95.8598 177.254 96.3282 177.061 96.759C176.974 96.9313 176.857 97.0861 176.715 97.2158C176.676 97.3253 176.615 97.4257 176.537 97.5112C176.326 97.8064 176.009 98.006 175.654 98.0675C175.298 98.129 174.933 98.0476 174.636 97.8405C174.218 97.5614 173.869 97.1875 173.618 96.7487C173.367 96.3099 173.221 95.8182 173.19 95.3127C173.198 94.9865 173.272 94.6657 173.406 94.3695C173.54 94.0734 173.732 93.8081 173.971 93.5898Z" fill="black"/>
</g>
<g opacity="0.3">
<path d="M169.929 116.673C169.611 117.273 169.083 117.73 168.449 117.957C167.682 120.342 165.341 122.702 163.114 120.968C162.847 120.726 162.633 120.429 162.487 120.098C162.34 119.767 162.264 119.408 162.264 119.045C162.263 118.683 162.338 118.325 162.484 117.994C162.629 117.663 162.842 117.367 163.108 117.126C164.418 115.963 165.878 114.986 167.448 114.221C167.779 113.943 168.2 113.799 168.629 113.817C169.059 113.835 169.468 114.014 169.776 114.318C170.084 114.623 170.271 115.033 170.299 115.467C170.327 115.902 170.195 116.332 169.929 116.673Z" fill="black"/>
</g>
<g opacity="0.3">
<path d="M54.4502 99.7777C54.77 99.0719 55.2882 98.4779 55.9399 98.0697C56.5917 97.6616 57.3482 97.4575 58.115 97.4829C59.6728 97.4006 61.1797 96.8987 62.4803 96.029C62.8229 95.7768 63.236 95.6417 63.66 95.6432C64.0839 95.6447 64.4968 95.7826 64.8391 96.0372C65.1814 96.2917 65.4353 96.6496 65.5642 97.0594C65.6931 97.4691 65.6904 97.9094 65.5564 98.3166C65.234 99.2483 64.7073 100.093 64.0158 100.788C63.3244 101.483 62.4861 102.009 61.564 102.328C60.8161 102.716 59.9907 102.928 59.1496 102.948C58.3085 102.967 57.4734 102.793 56.7068 102.44C56.2774 102.369 55.8591 102.241 55.4631 102.058C55.0411 101.878 54.7019 101.542 54.514 101.119C54.326 100.696 54.3032 100.216 54.4502 99.7777Z" fill="black"/>
</g>
<g opacity="0.3">
<path d="M48.6928 84.7172C47.7264 86.239 46.3264 87.4269 44.6774 88.1241C44.8275 87.6682 44.9777 87.2124 45.1595 86.751C46.6101 82.9912 48.3783 79.366 50.4446 75.9158L50.4832 76.1406C50.8893 77.6126 50.9385 79.1611 50.6268 80.6544C50.315 82.1476 49.6516 83.5414 48.6928 84.7172Z" fill="black"/>
</g>
<g opacity="0.3">
<path d="M80.6463 157.009C79.7649 154.542 82.0983 152.313 84.0959 151.369C87.1241 149.949 89.9741 150.351 92.4387 147.933C94.1115 145.709 96.4824 144.128 99.1625 143.451C100.158 143.337 101.165 143.553 102.031 144.067C102.898 144.58 103.578 145.363 103.97 146.3C104.259 147.172 104.337 148.101 104.197 149.009C104.056 149.917 103.702 150.776 103.163 151.514C102.906 153.425 102.068 155.205 100.765 156.607C99.3842 158.099 97.6325 159.186 95.6928 159.755C93.753 160.325 91.6966 160.356 89.738 159.845C86.3685 160.993 81.9118 160.571 80.6463 157.009Z" fill="black"/>
</g>
<g opacity="0.3">
<path d="M88.5347 146.942C88.0858 146.565 87.768 146.053 87.6285 145.481C87.489 144.908 87.5352 144.306 87.7603 143.764C88.0126 143.108 88.468 142.553 89.0583 142.182C89.6485 141.812 90.342 141.645 91.035 141.706C91.3269 141.637 91.6304 141.634 91.924 141.698C92.2175 141.761 92.4936 141.89 92.7325 142.075C94.6494 143.531 93.3027 146.348 91.4645 147.063C91.0022 147.279 90.4955 147.381 89.9862 147.36C89.4769 147.338 88.9794 147.195 88.5347 146.942Z" fill="black"/>
</g>
<g opacity="0.3">
<path d="M106.357 156.552C106.034 156.522 105.724 156.404 105.461 156.211C105.198 156.018 104.991 155.756 104.863 155.454C104.631 154.773 104.562 154.046 104.661 153.333C104.76 152.62 105.024 151.941 105.432 151.352C105.628 151.097 105.887 150.898 106.182 150.773C106.477 150.649 106.799 150.603 107.117 150.641C107.435 150.679 107.739 150.799 107.998 150.99C108.257 151.181 108.464 151.436 108.599 151.73C109.02 152.024 109.337 152.447 109.503 152.936C109.67 153.426 109.676 153.956 109.522 154.449C109.317 155.116 108.889 155.69 108.312 156.074C107.735 156.457 107.044 156.626 106.357 156.552Z" fill="black"/>
</g>
<g style="mix-blend-mode:multiply" opacity="0.2">
<path d="M79.3356 48.7517C66.9941 60.4966 59.251 76.3603 57.5215 93.4431C55.7921 110.526 60.1919 127.687 69.9166 141.789C79.6413 155.891 94.0415 165.993 110.485 170.248C126.928 174.502 144.317 172.625 159.472 164.96C152.095 171.981 143.307 177.306 133.707 180.573C124.106 183.841 113.917 184.974 103.833 183.897C93.7485 182.82 84.0048 179.557 75.2642 174.33C66.5236 169.103 58.9909 162.034 53.1781 153.605C47.3653 145.175 43.4086 135.583 41.5771 125.479C39.7455 115.374 40.082 104.996 42.5637 95.048C45.0453 85.1003 49.614 75.8166 55.9591 67.828C62.3042 59.8395 70.2769 53.3333 79.3356 48.7517Z" fill="black"/>
</g>
<path d="M165.302 156.945C165.302 156.945 166.315 155.216 168.04 152.109C170.477 147.711 172.48 143.082 174.02 138.289C176.343 131.105 177.546 123.6 177.586 116.045C177.649 106.672 175.901 97.379 172.44 88.6865L173.184 89.2168L172.676 89.3055L172.583 88.7605C171.887 87.1656 171.217 85.5331 170.51 83.8741C169.803 82.215 168.821 80.67 167.987 79.0331C162.635 69.8152 155.228 61.9877 146.354 56.1729C139.151 51.3902 131.195 47.8798 122.826 45.7915C117.153 44.4041 111.348 43.6365 105.511 43.5017C103.331 43.6149 101.146 43.5997 98.9683 43.4564C99.5091 43.3122 100.061 43.2158 100.618 43.1681C101.697 42.9796 103.343 42.8572 105.428 42.823C111.33 42.7039 117.225 43.3034 122.984 44.6085C131.558 46.5707 139.724 50.0379 147.109 54.8525C156.232 60.7273 163.84 68.7099 169.306 78.1425C170.182 79.838 171.143 81.4526 171.919 83.1326C172.695 84.8127 173.345 86.5148 174.02 88.1794L173.271 87.6171L173.81 87.5229L173.903 88.0678C177.416 96.9769 179.148 106.502 179 116.095C178.875 123.775 177.534 131.387 175.028 138.642C173.362 143.468 171.168 148.092 168.487 152.427C167.536 153.947 166.754 155.107 166.191 155.832C165.628 156.558 165.307 156.977 165.238 156.956L165.302 156.945Z" fill="white"/>
<path d="M195.085 76.5596C196.702 75.5771 198.635 75.275 200.469 75.7183C202.303 76.1616 203.89 77.3148 204.889 78.9295C205.888 80.5443 206.218 82.4912 205.808 84.3509C205.399 86.2106 204.283 87.8341 202.701 88.8717C201.118 89.9094 199.196 90.278 197.348 89.8982C195.501 89.5184 193.875 88.4207 192.822 86.8414C191.77 85.2621 191.374 83.3277 191.72 81.4551C192.066 79.5824 193.127 77.9214 194.673 76.8298" fill="#E4B296"/>
<path d="M178.256 62.5422C179.363 62.3836 180.486 62.6711 181.384 63.3424C182.282 64.0138 182.883 65.0152 183.055 66.1303C183.228 67.2454 182.959 68.3849 182.307 69.3025C181.656 70.2201 180.673 70.8423 179.571 71.0346C178.47 71.227 177.338 70.974 176.42 70.3305C175.502 69.687 174.872 68.7044 174.666 67.5951C174.46 66.4858 174.694 65.3387 175.318 64.4016C175.942 63.4645 176.906 62.8125 178.002 62.5866" fill="#E4B296"/>
</svg>
