<svg width="214" height="220" viewBox="0 0 214 220" fill="none" xmlns="http://www.w3.org/2000/svg">
<path d="M175.475 125.413C184.103 86.2455 159.241 47.6235 119.946 39.1482C80.6501 30.6729 41.801 55.5538 33.1738 94.7213C24.5465 133.889 49.408 172.511 88.7035 180.986C127.999 189.462 166.848 164.581 175.475 125.413Z" fill="#E39144"/>
<g opacity="0.13">
<path d="M167.258 73.7088C167.011 73.257 166.748 72.8268 166.482 72.3781L166.447 72.1749L165.591 70.82C165.304 70.356 164.995 69.8768 164.692 69.4345C164.39 68.9922 163.926 68.2733 163.513 67.736C162.556 66.3416 161.535 65.0153 160.465 63.7355C149.643 69.1769 139.369 75.6596 129.787 83.0932C110.902 98.2002 106.848 116.294 83.9886 131.462C61.1289 146.63 46.8094 136.495 50.2463 127.794C53.6832 119.093 81.4177 98.2092 111.893 80.6374C132.657 68.6677 147.553 61.1397 154.917 57.5996C153.297 55.9774 151.63 54.5157 149.877 53.107C149.44 52.764 149.022 52.4179 148.567 52.0781L147.718 51.426L147.482 51.2577C146.851 50.777 146.185 50.3027 145.521 49.8469L144.645 49.2566L143.726 48.6356C125.352 64.8891 105.33 79.1491 83.9893 91.1801C59.6917 104.904 42.5231 113.72 32.3462 118.699C32.6221 120.306 32.7791 121.992 33.1866 123.595C33.3388 124.482 33.5037 125.443 33.6432 126.256C33.6971 126.57 33.751 126.884 33.8049 127.199C33.8588 127.513 33.8747 127.605 33.9096 127.808C34.1979 128.938 34.5046 130.065 34.8511 131.203C34.924 131.628 35.0002 132.072 35.2382 132.468C35.365 133.207 35.712 133.908 35.9673 134.625C36.0148 134.902 36.151 135.145 36.2536 135.413C36.481 136.078 36.7418 136.717 37.0059 137.376C37.2731 138.052 37.5372 138.711 37.8348 139.344C38.1324 139.977 38.2446 140.3 38.4586 140.777C38.9753 141.88 39.5236 142.984 40.1035 144.088L40.37 144.651L40.9766 145.764C41.3507 146.403 41.7097 147.064 42.0806 147.685C42.2876 148.01 42.4794 148.358 42.7016 148.662C42.8424 148.936 43.0014 149.201 43.1777 149.454C43.7183 150.293 44.2652 151.169 44.8115 151.93C45.3577 152.692 45.8116 153.355 46.3236 154.028C49.6107 158.465 53.3912 162.508 57.5911 166.08C72.5325 154.853 111.389 125.801 130.236 113.117C144.202 103.695 162.375 95.333 174.256 90.2682C173.674 88.1402 172.986 86.043 172.195 83.9846C172.113 83.7418 172.015 83.5045 171.903 83.2741C171.862 83.0338 171.821 82.7936 171.633 82.5788C171.445 82.364 171.272 81.6899 171.083 81.247C170.894 80.8041 170.739 80.4504 170.556 80.0445L170.193 79.2511C169.92 78.6515 169.635 78.092 169.344 77.4955C169.052 76.899 168.879 76.5485 168.628 76.0782C168.377 75.6079 168.04 74.9623 167.724 74.3321L167.258 73.7088ZM41.8656 117.373C42.6775 116.921 43.6339 116.811 44.5268 117.066C45.4196 117.321 46.1766 117.921 46.6329 118.735C46.8881 119.14 47.0588 119.593 47.1344 120.066C47.21 120.539 47.1889 121.023 47.0725 121.488C46.9562 121.953 46.7469 122.388 46.4575 122.769C46.1681 123.149 45.8047 123.466 45.3895 123.7C44.9742 123.934 44.5158 124.08 44.0424 124.129C43.5691 124.179 43.0906 124.13 42.6363 123.987C42.1819 123.844 41.7613 123.609 41.4001 123.296C41.0389 122.984 40.7447 122.601 40.5355 122.17C40.0857 121.354 39.9731 120.393 40.2221 119.495C40.4711 118.597 41.0617 117.835 41.8656 117.373ZM60.8879 153.921C60.0977 154.366 59.1942 154.565 58.2913 154.493C57.3885 154.421 56.5269 154.081 55.8155 153.516C55.1041 152.95 54.5749 152.186 54.2947 151.318C54.0145 150.45 53.9961 149.519 54.2416 148.641C54.487 147.763 54.9855 146.979 55.6739 146.387C56.3622 145.794 57.2096 145.421 58.1089 145.314C59.0082 145.207 59.919 145.371 60.7262 145.786C61.5334 146.2 62.2007 146.846 62.6437 147.642C62.938 148.171 63.126 148.752 63.1971 149.354C63.2681 149.956 63.2208 150.566 63.0577 151.149C62.8947 151.732 62.6191 152.277 62.2468 152.753C61.8745 153.228 61.4127 153.625 60.8879 153.921ZM128.042 100.882C127.23 101.335 126.273 101.445 125.38 101.188C124.488 100.93 123.733 100.326 123.282 99.5088C122.831 98.6912 122.721 97.727 122.976 96.8282C123.231 95.9294 123.83 95.1697 124.641 94.7162C125.453 94.2628 126.41 94.1527 127.303 94.4102C128.195 94.6677 128.95 95.2717 129.401 96.0893C129.852 96.9069 129.962 97.8711 129.707 98.7699C129.452 99.6687 128.853 100.428 128.042 100.882ZM138.587 104.763C138.183 104.992 137.705 105.049 137.258 104.923C136.812 104.798 136.433 104.498 136.205 104.091C136.035 103.787 135.958 103.44 135.984 103.092C136.01 102.744 136.138 102.412 136.351 102.138C136.565 101.864 136.854 101.66 137.183 101.551C137.512 101.443 137.866 101.435 138.199 101.529C138.533 101.623 138.831 101.815 139.057 102.08C139.282 102.344 139.425 102.67 139.466 103.017C139.508 103.363 139.446 103.714 139.29 104.024C139.133 104.335 138.888 104.592 138.587 104.763Z" fill="white"/>
</g>
<g opacity="0.25">
<path d="M123.433 141.642C103.889 152.507 83.6193 161.992 62.7701 170.029C62.9025 170.14 63.05 170.228 63.1792 170.32C63.3598 170.462 63.5522 170.588 63.7541 170.697L63.9263 170.819L64.5658 171.242L66.0505 172.184C67.7043 173.231 69.3972 174.176 71.1269 175.114L71.4156 175.254C73.013 176.082 74.6526 176.826 76.3011 177.512C76.5898 177.653 76.8937 177.771 77.1976 177.89C80.2202 179.096 83.3164 180.105 86.4669 180.912C89.7254 181.744 93.0372 182.347 96.3783 182.717L97.9013 182.891L98.0298 182.869C99.1021 182.949 100.174 183.03 101.237 183.055L102.073 183.082L102.367 183.031L102.992 183.037L105.261 183.043C106.676 183.027 108.103 182.97 109.52 182.857C122.631 174.336 134.434 167.108 138.231 165.992C142.624 164.716 135.66 171.505 126.459 179.463C130.985 177.979 135.359 176.059 139.52 173.731C145.339 170.466 150.686 166.411 155.41 161.68L156.6 160.464C157.081 159.962 157.558 159.441 158.033 158.901C158.593 158.309 159.128 157.683 159.605 157.047C162.424 153.68 164.928 150.057 167.087 146.226C168.796 143.209 170.299 140.078 171.585 136.855L172.203 135.166C169.068 137.386 164.563 140.548 158.052 145.011C138.471 158.464 103.078 175.269 102.524 172.26C101.97 169.251 120.02 153.816 145.826 140.293C157.974 133.976 167.866 128.946 175.042 125.378C175.319 124.13 175.554 122.851 175.773 121.594C176.244 118.636 176.54 115.652 176.66 112.659C176.69 111.949 176.698 111.223 176.721 110.477C176.744 109.73 176.715 108.573 176.679 107.588C176.648 105.975 176.537 104.336 176.372 102.708L176.333 102.486C160.409 117.733 142.635 130.889 123.433 141.642ZM92.8965 169.796C86.966 173.129 81.388 174.439 80.4379 172.756C79.4878 171.073 83.5455 166.96 89.4665 163.571C95.3874 160.182 100.99 158.906 101.925 160.611C102.86 162.315 98.8428 166.555 92.9123 169.888L92.8965 169.796Z" fill="white"/>
</g>
<g opacity="0.13">
<path d="M125.603 40.4655C113.237 53.2386 99.0038 64.0281 83.3981 72.4593C63.7288 83.1363 44.9136 91.6252 33.0937 96.6886C33.7574 93.2066 34.6742 89.7786 35.8367 86.4325C48.2916 82.9841 60.4282 78.4605 72.1118 72.9118C94.7139 61.3636 114.176 42.5248 108.739 42.1338C103.302 41.7428 88.6924 54.8018 67.1393 65.5198C58.2246 69.8968 49.0825 73.7871 39.7527 77.1738C41.6935 73.2938 43.9777 69.5985 46.5777 66.133C46.5777 66.133 46.5777 66.133 46.6879 66.1138L46.8429 65.9154C58.5906 61.2682 69.9268 55.6274 80.7304 49.0533C88.8264 44.2167 95.0446 40.4495 99.8156 37.5054C100.605 37.3684 101.423 37.398 102.214 37.3752C103.534 37.3558 104.854 37.3364 106.187 37.3911L106.297 37.372C108.642 37.4237 110.983 37.603 113.309 37.909L114.373 38.0484L114.978 38.1533L117.176 38.5153L118.351 38.7499L119.194 38.9277C121.038 39.3131 122.876 39.7759 124.686 40.3005L125.383 40.5037L125.603 40.4655Z" fill="white"/>
</g>
<g opacity="0.4">
<path d="M167.158 73.5681C166.915 73.136 166.649 72.6887 166.388 72.2598C166.386 72.1847 166.373 72.1103 166.35 72.0388L166.328 71.9098C166.059 71.4441 165.776 71 165.493 70.5558C165.209 70.1117 164.951 69.7012 164.674 69.2939L163.418 67.4627C162.347 65.9409 161.231 64.4838 160.048 63.0763C159.903 62.8927 159.719 62.697 159.572 62.4949L159.102 61.9503C158.678 61.4547 158.25 60.9406 157.811 60.4666C155.318 57.7265 152.621 55.1814 149.745 52.8533C149.067 52.3068 148.375 51.7818 147.692 51.3121C147.009 50.8424 145.675 49.7645 144.668 49.1613C143.66 48.558 143.032 48.0788 142.19 47.5608C141.348 47.0427 140.24 46.4001 139.223 45.8553C138.844 45.6175 138.452 45.4198 138.057 45.2037C137.766 45.0454 137.475 44.8871 137.169 44.7504L136.738 44.5406L134.97 43.6709L134.354 43.3791L133.908 43.1909L133.073 42.8234C131.914 42.3224 130.739 41.843 129.553 41.4036L129.391 41.3368C128.388 40.9794 127.388 40.6404 126.392 40.3199L125.475 40.0235L124.628 39.8097C122.825 39.2875 121.013 38.8237 119.177 38.4399L118.337 38.263L117.149 38.0326C116.428 37.8919 115.695 37.7912 114.959 37.6722L114.358 37.5678L113.277 37.4136C110.39 37.051 107.484 36.864 104.575 36.8537L106.257 36.9986L106.367 36.9795L108.15 37.1638L109.209 37.3027L109.808 37.3887L112.001 37.7676L113.185 37.9796L114.007 38.1597C115.862 38.5403 117.673 39.0041 119.48 39.5447C119.709 39.5971 119.935 39.6658 120.155 39.7502C121.485 40.1458 122.781 40.5662 124.129 40.9587L124.275 40.9333L124.718 41.1031C126.027 41.5972 127.345 42.1465 128.627 42.7022L129.077 42.9089C129.282 43.0061 129.484 43.085 129.692 43.2007L130.922 43.7843L131.889 44.2618L132.776 44.715L134.564 45.6953L136.845 47.0263C137.855 47.648 138.829 48.276 139.809 48.9408C140.789 49.6057 141.525 50.1611 142.368 50.7929C143.211 51.4247 143.774 51.8581 144.513 52.3183C144.862 52.5992 145.212 52.8801 145.546 53.1826C148.549 55.6865 151.34 58.4393 153.887 61.4121C154.032 61.5958 154.195 61.7763 154.357 61.9567L154.742 62.4403C155.519 63.349 156.266 64.3008 156.98 65.2775C157.41 65.81 157.807 66.3672 158.192 66.9645C158.912 67.978 159.613 68.9946 160.285 70.0544C160.568 70.4986 160.83 70.9275 161.095 71.3748C161.416 71.9263 161.736 72.4778 162.051 73.1062C162.2 73.3269 162.334 73.5572 162.452 73.7955L162.779 74.3839L163.359 75.4596C164.059 76.7989 164.705 78.1478 165.293 79.4877C165.633 80.2635 165.973 81.0392 166.295 81.8181C166.332 81.9823 166.361 82.1484 166.381 82.3155C166.907 83.6281 167.397 84.9471 167.85 86.2724L168.224 87.4597C170.232 93.7887 171.361 100.367 171.577 107.006C171.593 107.047 171.601 107.091 171.599 107.135C171.633 108.097 171.641 109.025 171.641 110.012C171.605 112.631 171.425 115.246 171.102 117.845C170.806 120.473 170.367 123.082 169.788 125.661C169.431 127.203 169.037 128.751 168.586 130.29C167.642 133.483 166.479 136.607 165.106 139.638C163.023 144.254 160.468 148.639 157.483 152.721C156.554 154.001 155.579 155.233 154.565 156.452C154.031 157.075 153.498 157.699 152.998 158.298C152.162 159.24 151.286 160.169 150.385 161.065C145.666 165.749 140.348 169.778 134.57 173.044C127.825 176.845 120.516 179.528 112.923 180.988C111.332 181.264 109.741 181.54 108.15 181.815C106.87 182.037 105.564 182.112 104.281 182.201C102.997 182.291 101.703 182.326 100.425 182.338L98.7319 182.347C99.6658 182.413 100.633 182.454 101.506 182.493L102.681 182.536L102.9 182.498L103.284 182.431C104.023 182.455 104.776 182.457 105.527 182.441C108.109 182.408 110.688 182.233 113.252 181.918C114.843 181.642 116.452 181.477 118.024 181.091C132.159 178.456 145.199 171.661 155.498 161.564C155.789 161.286 156.077 160.989 156.362 160.674C156.957 160.078 157.545 159.445 158.096 158.818C158.648 158.191 159.184 157.586 159.66 156.954C162.41 153.69 164.858 150.179 166.974 146.466C168.73 143.436 170.253 140.274 171.528 137.008C172.93 133.512 174.056 129.911 174.896 126.237C175.21 124.778 175.503 123.305 175.76 121.838C176.234 118.897 176.536 115.931 176.665 112.954C176.697 112.152 176.732 111.368 176.727 110.572C176.722 109.776 176.722 108.676 176.707 107.711C176.646 106.147 176.566 104.586 176.41 103.02C175.801 96.4946 174.308 90.0833 171.974 83.9643C171.932 83.7248 171.797 83.4827 171.698 83.2343C171.599 82.9859 171.472 82.6854 171.366 82.4001L170.877 81.1949L170.336 80.0176C170.285 79.7228 170.11 79.4686 169.99 79.205C169.721 78.6255 169.433 78.0493 169.143 77.4546C168.853 76.8599 168.677 76.492 168.427 76.0231C168.177 75.5542 167.84 74.9106 167.526 74.2822L167.158 73.5681Z" fill="white"/>
</g>
<path d="M63.171 51.9387C62.8284 52.2657 62.4648 52.5696 62.0826 52.8486C61.3496 53.4123 60.3097 54.2758 58.9749 55.3992C55.2193 58.6421 51.7948 62.2542 48.7527 66.1812C38.4546 79.4717 33.1423 95.9784 33.7524 112.79L33.4548 112.369L33.739 112.49L33.7953 112.821C33.8968 114.526 34.0046 116.268 34.1004 118.05C34.1961 119.832 34.7036 121.599 34.8636 123.427C35.8554 128.776 37.5114 133.976 39.7928 138.905L40.581 140.661L41.5156 142.391C42.1243 143.534 42.7482 144.656 43.3663 145.854L45.4262 148.997C45.7578 149.507 46.0894 150.017 46.4393 150.524L47.5526 151.977C52.7175 158.822 59.0085 164.727 66.1548 169.438C70.9978 172.586 76.1658 175.199 81.5691 177.232C83.5703 177.923 85.0181 178.351 86.0385 178.703C86.5667 178.853 87.0834 179.041 87.5846 179.266C87.0392 179.194 86.5016 179.073 85.9784 178.903C84.9459 178.591 83.3793 178.24 81.4393 177.576C67.686 172.853 55.6446 164.134 46.8348 152.519C46.4698 152.033 46.0865 151.551 45.7032 151.069L44.6656 149.509L42.5811 146.333C41.9572 145.211 41.3333 144.089 40.6937 142.876L39.741 141.149L38.9345 139.396C36.6185 134.399 34.9375 129.127 33.9311 123.704C33.6186 121.865 33.306 120.026 33.1398 118.162C32.9735 116.297 32.9452 114.579 32.8374 112.837L33.1413 113.295L32.857 113.174L32.807 112.88C32.1879 95.8519 37.6622 79.1466 48.2355 65.7983C51.3481 61.8881 54.8651 58.3214 58.7269 55.1586C60.1045 54.0656 61.1871 53.2324 61.9629 52.6991C62.3389 52.4115 62.7356 52.1522 63.1496 51.9235L63.171 51.9387Z" fill="white"/>
</svg>
