<svg width="265" height="172" viewBox="0 0 265 172" fill="none" xmlns="http://www.w3.org/2000/svg">
<path d="M148.683 146.796C185.248 140.412 210.08 106.981 204.145 72.1265C198.21 37.2722 163.756 14.1932 127.19 20.578C90.6245 26.9628 65.7933 60.3936 71.7282 95.2478C77.6632 130.102 112.117 153.181 148.683 146.796Z" fill="#E9B44D"/>
<g opacity="0.2">
<path d="M108.851 32.6328C113.256 36.595 118.416 39.613 124.016 41.5026C125.349 42.0129 126.164 40.1617 125.367 39.3686C121.823 35.65 118.554 31.9977 114.666 28.5856C113.6 27.6492 112.441 26.6147 111.447 25.5517C109.204 26.5125 107.016 27.5956 104.89 28.7963C106.121 30.1413 107.578 31.3712 108.851 32.6328Z" fill="black"/>
<path d="M106.466 44.1937C116.832 53.5416 129.034 60.5863 142.276 64.8693C155.901 69.3669 170.238 71.2563 184.548 70.4402C190.886 70.1541 197.181 69.248 203.344 67.7346C202.799 65.5725 202.137 63.4421 201.361 61.3528C196.266 62.8678 191.021 63.809 185.72 64.1593C173.814 64.997 161.849 63.9129 150.278 60.9481C139.172 58.2401 128.594 53.672 118.986 47.4343C112.95 43.4316 104.954 37.8064 100.636 31.0293C99.3973 31.8537 98.1988 32.6901 97.0067 33.5636C99.7237 37.4777 102.9 41.0469 106.466 44.1937Z" fill="white"/>
<path d="M154.924 33.3028C161.261 35.8625 174.161 38.237 181.51 34.0291C179.738 32.6086 177.89 31.288 175.974 30.0732C175.527 30.237 175.071 30.3734 174.607 30.4815C169.709 31.4185 164.658 31.1504 159.882 29.6999C154.401 28.2684 145.634 24.7583 140.792 19.5581C139.386 19.516 137.971 19.5326 136.545 19.5894C140.09 26.0432 148.754 30.8286 154.924 33.3028Z" fill="white"/>
<path d="M98.8296 66.8143C111.944 77.1668 127.611 83.4588 143.856 88.0512C158.695 92.5628 174.263 94.1085 189.685 92.6011C194.769 92.0713 199.801 91.1229 204.731 89.7653C205.286 84.7721 205.24 79.7289 204.592 74.746C197.951 76.4325 191.15 77.4066 184.305 77.6522C171.317 77.8744 158.374 76.0302 145.953 72.1874C132.964 68.4018 120.114 63.3353 109.098 55.6279C103.732 51.7935 98.7701 47.4147 94.2903 42.5603C93.1316 41.3139 91.9666 40.0304 90.9668 38.7184C87.6107 41.9561 84.5963 45.5351 81.9717 49.3985C86.7357 55.9858 92.4129 61.8509 98.8296 66.8143Z" fill="black"/>
<path d="M97.2497 112.527C88.6011 108.445 80.2277 103.794 72.1837 98.6055C72.4725 100.289 73.0182 101.927 73.5607 103.547C91.2819 116.075 112.907 124.593 133.359 130.343C146.346 134.029 159.643 136.494 173.08 137.706C174.242 136.99 175.383 136.259 176.477 135.479C162.513 134.145 148.711 131.434 135.27 127.384C122.218 123.48 109.503 118.511 97.2497 112.527Z" fill="black"/>
<path d="M152.225 43.2085C161.197 46.9368 170.926 48.4333 180.589 47.5712C184.54 47.1325 188.426 46.2286 192.167 44.8781C190.933 43.3009 189.628 41.755 188.223 40.2837C185.125 41.4809 181.88 42.2485 178.577 42.5655C170.432 43.225 162.241 42.0758 154.581 39.1988C143.68 35.3721 132.478 29.4634 124.741 21.0487C123.181 21.3192 121.664 21.7345 120.151 22.1683C128.023 32.027 141.939 39.2181 152.225 43.2085Z" fill="white"/>
<path d="M189.188 124.186C183.196 124.753 177.177 124.976 171.16 124.854C146.434 124.578 122.179 117.966 100.678 105.64C90.4351 100.024 78.9212 93.8292 70.7309 85.3054C70.7462 86.8267 70.8014 88.36 70.9299 89.8807C77.3527 96.2535 86.4633 100.999 93.7744 105.389C105.578 112.648 118.215 118.428 131.407 122.601C148.559 127.742 166.435 129.986 184.31 129.242L184.77 128.838C186.362 127.324 187.798 125.78 189.188 124.186Z" fill="white"/>
<path d="M135.613 114.392C152.376 119.065 169.758 121.069 187.131 120.332C189.004 120.236 190.867 120.084 192.727 119.914C197.632 113.213 201.185 105.607 203.186 97.5263C196.867 98.8945 190.436 99.6711 183.974 99.8461C169.159 100.128 154.383 98.1977 140.125 94.1192C125.343 90.2643 111.343 83.8321 98.7584 75.1141C92.1854 70.38 86.1739 64.9007 80.8423 58.7842C79.9086 57.7468 79.0173 56.6259 78.1164 55.4496C74.3395 62.6515 71.9885 70.5254 71.1943 78.6335C75.3086 82.9637 79.7819 86.9327 84.5655 90.4974C99.9595 101.592 117.272 109.696 135.613 114.392Z" fill="white"/>
<path d="M173.816 52.5216C168.298 51.7625 162.941 52.5008 157.402 50.9633C151.864 49.4258 146.38 46.3342 140.484 45.9076C137.554 45.6911 137.019 49.5214 139.077 50.8237C144.353 54.1419 152.122 55.674 158.279 57.1804C163.271 58.3933 169.902 58.8068 174.215 55.7323C175.292 54.9544 175.524 52.7784 173.816 52.5216Z" fill="black"/>
<path d="M116.448 134.429C115.186 134.205 113.905 134.121 112.625 134.177C111.276 134.24 110.847 136.256 112.291 136.52C113.327 136.696 114.337 137.001 115.299 137.427C116.317 137.805 117.382 138.043 118.463 138.135C118.674 138.187 118.897 138.171 119.098 138.087C119.299 138.004 119.469 137.858 119.582 137.67C119.695 137.483 119.746 137.264 119.727 137.046C119.709 136.827 119.621 136.62 119.478 136.455C118.738 135.439 117.664 134.721 116.448 134.429Z" fill="white"/>
<path d="M154.602 138.347C147.295 136.981 139.759 133.614 132.262 133.674C130.58 133.68 129.34 135.937 130.766 137.082C136.893 142.049 146.322 143.332 154.024 144.687L155.969 144.998C160.126 143.795 164.165 142.213 168.037 140.271C163.527 139.775 159.016 139.164 154.602 138.347Z" fill="black"/>
<path d="M103.371 129.223C105.604 129.369 105.829 126.611 104.41 125.602C99.5108 122.135 92.999 120.601 87.5866 117.774C84.0182 115.901 80.4801 113.986 77.0242 111.999C78.4324 114.872 80.0671 117.628 81.9125 120.239C88.446 124.868 95.923 128.726 103.371 129.223Z" fill="white"/>
</g>
<path d="M117.285 141.015C116.613 140.963 115.952 140.816 115.321 140.581C113.468 140.094 111.648 139.487 109.874 138.764C103.996 136.4 98.5405 133.095 93.7186 128.978C91.0798 126.694 88.6377 124.191 86.4183 121.494C84.6378 119.273 83.0304 116.917 81.6103 114.447C80.9819 113.419 80.5097 112.421 80.0778 111.548C79.6958 110.82 79.3596 110.068 79.0711 109.298C78.7589 108.661 78.524 107.989 78.3715 107.296C78.5549 107.264 79.6829 110.006 82.1933 114.099C83.6863 116.479 85.3362 118.756 87.1319 120.914C89.3184 123.574 91.7058 126.06 94.2729 128.35C99.0303 132.399 104.351 135.73 110.068 138.238C114.429 139.997 117.333 140.855 117.285 141.015Z" fill="white"/>
<path d="M202.273 82.3129C202.329 82.645 200.68 83.294 197.555 84.1629L194.954 84.8834C193.998 85.0503 192.933 85.2365 191.812 85.4323C189.25 85.929 186.664 86.2795 184.064 86.482L179.508 86.8409C177.934 86.9261 176.279 86.8733 174.578 86.8854C170.937 86.8878 167.299 86.6991 163.679 86.32C147.013 84.5632 130.95 79.1244 116.642 70.3931C113.538 68.4911 110.535 66.4288 107.645 64.2145C106.292 63.159 104.94 62.2174 103.746 61.0962L100.333 58.0453C98.3916 56.3057 96.5488 54.4587 94.8127 52.5128C94.0431 51.6594 93.3045 50.8767 92.6672 50.1332L91.0343 47.9869C89.081 45.4026 88.1586 43.8731 88.4059 43.6589C88.6532 43.4447 90.0887 44.5427 92.4327 46.7547L94.3492 48.5665C95.0658 49.2202 95.8775 49.8762 96.7232 50.6213C98.442 52.0497 100.291 53.7974 102.58 55.468L106.069 58.1828C107.268 59.1131 108.641 59.956 109.994 60.8976C112.652 62.8457 115.73 64.5876 118.891 66.4859C132.891 74.4426 148.274 79.6578 164.225 81.8555C167.907 82.257 171.396 82.7492 174.699 82.818C176.339 82.8924 177.936 83.0503 179.468 83.0486L183.89 83.017C186.703 83.0954 189.227 82.8064 191.409 82.7292C192.53 82.6473 193.587 82.6336 194.54 82.5622L197.158 82.2756C200.405 82.0123 202.198 81.9841 202.273 82.3129Z" fill="#E9B44D"/>
<path d="M173.763 136.846C173.871 136.713 173.997 136.595 174.138 136.496L175.269 135.598L179.725 132.147L179.835 132.127C179.835 132.127 179.633 132.163 179.676 132.307L179.651 132.159C179.868 131.989 180.096 131.778 180.34 131.546L180.468 131.524L180.358 131.543C185.781 126.716 190.371 121.02 193.94 114.689L194.212 114.509C194.212 114.509 193.851 114.723 193.913 114.864L193.882 114.68C198.96 105.542 201.71 95.2902 201.885 84.8401C202.06 74.3899 199.655 64.0666 194.885 54.7921L195.345 55.053L195.034 55.1075L194.98 54.7945C193.634 52.0721 192.078 49.46 190.326 46.9821C182.517 36.2741 171.463 28.3969 158.812 24.5245C148.492 21.2515 137.548 20.4368 126.846 22.145C119.657 23.2809 112.7 25.5973 106.254 29.0012C103.989 30.2308 102.256 31.2539 101.103 32.024L99.7874 32.8413L99.3235 33.1119C101.457 31.4346 103.732 29.9464 106.121 28.6643C112.549 25.1038 119.532 22.6725 126.77 21.4759C137.544 19.6491 148.587 20.3963 159.005 23.6568C165.15 25.5672 170.976 28.3827 176.293 32.0117C182.037 35.914 187.037 40.819 191.055 46.4946C192.844 49.0119 194.427 51.6705 195.79 54.4447L195.326 54.1654L195.638 54.1109L195.78 54.3894C200.646 63.7892 203.086 74.2697 202.88 84.8751C202.673 95.4804 199.825 105.873 194.596 115.105L194.565 114.921C194.59 115.068 194.353 115.337 194.252 115.298L194.523 115.118C190.903 121.452 186.226 127.117 180.696 131.863L180.806 131.844L180.081 132.464L180.056 132.316C180.056 132.316 179.943 132.544 179.882 132.517L179.992 132.498L175.402 135.821L174.203 136.656L173.763 136.846Z" fill="white"/>
<path d="M75.0463 62.0105C75.3007 61.2818 75.6166 60.5805 75.911 59.8639C44.3587 53.0248 28.0546 52.3961 23.5622 54.7966C23.2885 54.9053 23.0562 55.0991 22.8994 55.3495L22.8358 55.5317C22.788 55.8105 22.8368 56.0971 22.9739 56.3437C24.5866 59.4827 36.951 71.7654 128.279 98.2997C183.241 114.275 226.046 120.079 240.254 119.174C240.601 119.124 240.928 118.976 241.197 118.748C241.465 118.52 241.665 118.22 241.771 117.884C241.878 117.547 241.889 117.188 241.801 116.846C241.713 116.505 241.532 116.196 241.277 115.954C235.557 112.031 222.852 105.643 202.963 97.8485C202.812 98.407 202.68 98.9623 202.489 99.5088C218.826 106.004 228.495 111.232 227.608 113.687C225.963 118.592 182.655 110.387 130.866 95.377C79.0778 80.3675 38.5199 64.1935 40.0722 59.3042C41.1613 56.5862 54.6025 57.8482 75.0463 62.0105Z" fill="#E9B44D"/>
<path d="M204.688 91.1143C204.598 91.5861 204.49 92.0611 204.381 92.5361C229.8 102.365 247.014 111.234 249.75 116.533C250.21 117.31 250.406 118.216 250.311 119.117C250.215 120.017 249.832 120.863 249.219 121.528C247.95 122.966 244.061 127.351 207.087 121.67C179.923 117.278 153.064 111.182 126.669 103.417C114.862 99.9697 102.367 96.2622 90.2209 92.2658C55.1729 80.8886 22.9728 68.2347 18.0983 58.825C17.6831 58.0953 17.4268 57.2849 17.3462 56.4474C17.2657 55.6099 17.3628 54.7641 17.6311 53.966C17.9076 53.1444 18.3474 52.3874 18.9238 51.7411C19.5002 51.0948 20.2011 50.5728 20.9838 50.2067C29.0173 45.9335 53.0125 49.3986 78.1531 54.9249C78.3113 54.6312 78.4327 54.344 78.5725 54.0535C35.9371 45.1233 6.46981 43.5265 3.01938 50.3814C-4.42902 65.0988 52.9318 88.9573 124.801 109.787C196.67 130.616 259.705 136.114 263.184 125.758C265.46 118.899 241.829 105.451 204.688 91.1143Z" fill="#E9B44D"/>
<path d="M212.055 107.196C212.485 107.501 208.029 107.9 207.919 107.919C206.22 107.834 204.527 107.654 202.849 107.379C198.359 106.795 193.87 106.001 189.433 105.064C183.171 103.743 176.982 101.63 170.56 101.155C170.426 101.149 170.293 101.19 170.185 101.271C170.077 101.353 170.001 101.47 169.97 101.601C169.938 101.733 169.953 101.872 170.013 101.993C170.072 102.115 170.172 102.211 170.295 102.267C181.306 107.361 196.71 110.012 209.002 110.279C210.749 110.316 213.485 110.598 214.234 108.546C214.743 107.201 214.12 106.321 212.797 105.887C212.623 105.83 212.435 105.837 212.265 105.906C212.094 105.975 211.954 106.101 211.866 106.264C211.779 106.426 211.751 106.614 211.787 106.794C211.823 106.974 211.921 107.136 212.064 107.251L212.055 107.196Z" fill="#E9B44D"/>
<g opacity="0.3">
<path d="M75.0318 61.8407C75.2848 61.1107 75.5993 60.4082 75.8922 59.6903C44.3442 52.775 28.0476 52.1145 23.562 54.5127C23.2887 54.6213 23.0569 54.8151 22.9006 55.0658L22.8374 55.2484C22.7901 55.5279 22.8394 55.8153 22.9769 56.0627C24.5944 59.2127 36.9746 71.5498 128.303 98.3216C183.264 114.44 226.057 120.338 240.255 119.457C240.603 119.408 240.929 119.26 241.197 119.032C241.465 118.804 241.664 118.504 241.77 118.167C241.876 117.83 241.886 117.469 241.797 117.127C241.709 116.784 241.527 116.474 241.272 116.231C235.548 112.288 222.838 105.859 202.946 98.0081C202.796 98.5677 202.665 99.1243 202.475 99.6718C218.815 106.214 228.489 111.473 227.606 113.933C225.972 118.847 182.671 110.54 130.883 95.3963C79.0947 80.2522 38.5289 63.9615 40.0714 59.0625C41.1551 56.3397 54.5914 57.6299 75.0318 61.8407Z" fill="black"/>
<path d="M212.051 107.238C212.482 107.545 208.028 107.937 207.918 107.956C206.219 107.867 204.527 107.683 202.849 107.405C198.359 106.81 193.87 106.005 189.433 105.058C183.171 103.721 176.98 101.589 170.559 101.101C170.425 101.094 170.292 101.135 170.185 101.217C170.077 101.298 170.001 101.415 169.97 101.548C169.939 101.68 169.954 101.819 170.014 101.941C170.073 102.063 170.173 102.16 170.296 102.215C181.313 107.346 196.717 110.035 209.004 110.325C210.751 110.365 213.487 110.654 214.232 108.597C214.739 107.249 214.114 106.364 212.791 105.926C212.617 105.869 212.428 105.875 212.258 105.944C212.088 106.013 211.948 106.14 211.861 106.302C211.774 106.465 211.746 106.653 211.783 106.834C211.819 107.015 211.917 107.178 212.06 107.294L212.051 107.238Z" fill="black"/>
</g>
<g opacity="0.3">
<path d="M204.653 91.2554C204.564 91.7282 204.456 92.2042 204.349 92.6802C229.771 102.582 246.992 111.505 249.737 116.822C250.197 117.602 250.395 118.511 250.301 119.413C250.207 120.316 249.826 121.163 249.215 121.829C247.949 123.268 244.07 127.657 207.106 121.892C179.949 117.439 153.095 111.278 126.7 103.444C114.893 99.9653 102.399 96.2251 90.2518 92.196C55.2025 80.7249 22.9972 67.979 18.1082 58.5367C17.6919 57.8043 17.4342 56.9915 17.3522 56.1517C17.2702 55.3119 17.3656 54.4642 17.6323 53.6646C17.9072 52.8414 18.3454 52.0833 18.9203 51.4365C19.4952 50.7897 20.1947 50.2676 20.9763 49.9021C28.9974 45.6332 52.9856 49.1518 78.1223 54.7389C78.2798 54.4448 78.4007 54.1571 78.5398 53.8661C35.9119 44.8339 6.45819 43.1781 3.02224 50.0436C-4.39503 64.7841 52.9775 88.8096 124.844 109.825C196.711 130.841 259.721 136.471 263.179 126.095C265.442 119.224 241.799 105.698 204.653 91.2554Z" fill="black"/>
</g>
</svg>
