<svg width="153" height="93" viewBox="0 0 153 93" fill="none" xmlns="http://www.w3.org/2000/svg">
<path d="M19.1871 87.7793C14.79 77.8653 20.7984 48.5391 33 24.5L123 1C139.885 21.2895 156.337 53.1421 149 70.5C141.663 87.8579 23.5842 97.6932 19.1871 87.7793Z" fill="#ECC65A" stroke="#292929" stroke-width="1.5" stroke-linejoin="round"/>
<path d="M131.268 9.23033C142.491 25.5826 146.103 36.5637 152.013 56.6028C152.301 57.5808 151.688 58.5976 150.692 58.7968C149.782 58.9788 148.885 58.4065 148.665 57.5001C144.321 39.6602 141.458 29.332 128.607 11.1546C128.052 10.3687 128.268 9.28102 129.072 8.77999C129.812 8.31856 130.779 8.51907 131.268 9.23033Z" fill="#292929" stroke="#292929" stroke-width="1.5"/>
<circle cx="143" cy="34" r="1" fill="#D9D9D9"/>
<circle cx="145" cy="39" r="1" fill="#D9D9D9"/>
<circle cx="147" cy="45" r="1" fill="#D9D9D9"/>
<circle cx="149" cy="51" r="1" fill="#D9D9D9"/>
<circle cx="133" cy="14" r="1" fill="#D9D9D9"/>
<circle cx="136" cy="19" r="1" fill="#D9D9D9"/>
<circle cx="139" cy="24" r="1" fill="#D9D9D9"/>
<circle cx="141" cy="29" r="1" fill="#D9D9D9"/>
<path d="M12.493 26.1504C12.8575 25.8324 13.4518 25.5655 14.2958 25.3834C15.1297 25.2036 16.1449 25.1196 17.2892 25.1194C19.5771 25.1191 22.2928 25.4533 24.9241 25.9473C27.5524 26.4406 30.0674 27.0879 31.947 27.7013C32.8893 28.0089 33.6542 28.3022 34.1883 28.5565C34.4573 28.6846 34.6462 28.7928 34.7644 28.8764C34.7651 28.8769 34.7658 28.8773 34.7664 28.8778C34.7621 28.9714 34.752 29.0962 34.7351 29.2549C34.6946 29.6334 34.6198 30.1587 34.5127 30.817C34.2989 32.1311 33.9629 33.9379 33.5378 36.0831C32.6878 40.3715 31.4861 45.9885 30.2058 51.6704C28.9255 57.3525 27.5679 63.0936 26.4062 67.6306C25.8252 69.8999 25.2947 71.8621 24.8485 73.363C24.3911 74.9013 24.047 75.8654 23.8483 76.2141C23.7021 76.4706 23.35 76.7948 22.708 77.1368C22.083 77.4697 21.2603 77.779 20.2849 78.048C18.3362 78.5856 15.8643 78.9393 13.3476 79.0314C10.829 79.1235 8.30688 78.9521 6.25167 78.4633C4.1515 77.9637 2.72904 77.1781 2.14348 76.2C2.02819 76.0075 1.9086 75.6578 1.82011 75.1063C1.73371 74.5678 1.68523 73.8922 1.67572 73.0895C1.65671 71.4847 1.79384 69.434 2.05783 67.0768C2.58541 62.3661 3.61153 56.5007 4.8584 50.6716C6.10511 44.8432 7.56856 39.0694 8.9666 34.5427C9.66606 32.2778 10.3451 30.3383 10.9681 28.865C11.2798 28.1279 11.5724 27.5195 11.8409 27.0505C12.1169 26.5682 12.3386 26.285 12.493 26.1504ZM34.8552 28.9492C34.8577 28.9519 34.8572 28.9516 34.8544 28.9484L34.8552 28.9492Z" fill="#D9D9D9" stroke="black" stroke-width="1.5"/>
</svg>
