
<svg width="107" height="90" viewBox="0 0 107 90" fill="none" xmlns="http://www.w3.org/2000/svg">
<path d="M106.97 44.61C106.97 38.76 103.91 33.47 98.9701 29.67C99.1339 28.8973 99.2177 28.1098 99.2201 27.32C99.2201 19.52 91.29 13.18 81.42 13C78.42 5.45 69.5 0 58.92 0C50.5 0 43.11 3.48 38.92 8.71C37.8628 8.56536 36.7971 8.49186 35.7301 8.49C25.6701 8.49 17.5101 14.91 17.5101 22.83C17.5092 24.1711 17.7462 25.5017 18.2101 26.76C11.8001 30.13 7.57007 35.87 7.57007 42.39C7.57007 48.67 11.4901 54.22 17.5101 57.63V57.83C17.5101 65.52 25.1901 71.83 34.8501 72.15C40.1701 77.35 48.3301 80.68 57.4801 80.68C63.4881 80.7319 69.4047 79.2079 74.64 76.26C75.4635 76.3523 76.2914 76.3991 77.1201 76.4C87.1801 76.4 95.3401 69.98 95.3401 62.06V61.92C102.38 58.12 106.97 51.79 106.97 44.61Z" fill="#407BFF"/>
<path d="M6.78 86.7201C6.78 88.0301 5.25998 89.0901 3.38998 89.0901C1.51998 89.0901 0 88.0301 0 86.7201C0 85.4101 1.51998 84.3501 3.38998 84.3501C5.25998 84.3501 6.78 85.4101 6.78 86.7201Z" fill="#407BFF"/>
<path d="M30.2601 81.06C30.2601 84.85 25.8501 87.92 20.4101 87.92C14.9701 87.92 10.5901 84.87 10.5901 81.06C10.5901 77.25 15.0001 74.2 20.4401 74.2C25.8801 74.2 30.2601 77.3 30.2601 81.06Z" fill="#407BFF"/>
<path opacity="0.7" d="M106.97 44.61C106.97 38.76 103.91 33.47 98.9701 29.67C99.1339 28.8973 99.2177 28.1098 99.2201 27.32C99.2201 19.52 91.29 13.18 81.42 13C78.42 5.45 69.5 0 58.92 0C50.5 0 43.11 3.48 38.92 8.71C37.8628 8.56536 36.7971 8.49186 35.7301 8.49C25.6701 8.49 17.5101 14.91 17.5101 22.83C17.5092 24.1711 17.7462 25.5017 18.2101 26.76C11.8001 30.13 7.57007 35.87 7.57007 42.39C7.57007 48.67 11.4901 54.22 17.5101 57.63V57.83C17.5101 65.52 25.1901 71.83 34.8501 72.15C40.1701 77.35 48.3301 80.68 57.4801 80.68C63.4881 80.7319 69.4047 79.2079 74.64 76.26C75.4635 76.3523 76.2914 76.3991 77.1201 76.4C87.1801 76.4 95.3401 69.98 95.3401 62.06V61.92C102.38 58.12 106.97 51.79 106.97 44.61Z" fill="white"/>
<path opacity="0.7" d="M6.78 86.7201C6.78 88.0301 5.25998 89.0901 3.38998 89.0901C1.51998 89.0901 0 88.0301 0 86.7201C0 85.4101 1.51998 84.3501 3.38998 84.3501C5.25998 84.3501 6.78 85.4101 6.78 86.7201Z" fill="white"/>
<path opacity="0.7" d="M30.2601 81.06C30.2601 84.85 25.8501 87.92 20.4101 87.92C14.9701 87.92 10.5901 84.87 10.5901 81.06C10.5901 77.25 15.0001 74.2 20.4401 74.2C25.8801 74.2 30.2601 77.3 30.2601 81.06Z" fill="white"/>
<path d="M34.6717 26.66C35.1917 26.66 35.7517 26.7133 36.3517 26.82C36.9651 26.9133 37.3251 26.9667 37.4317 26.98L37.3917 28.48C36.2184 28.2667 35.3117 28.16 34.6717 28.16C33.7651 28.16 33.1117 28.3467 32.7117 28.72C32.3117 29.0933 32.1117 29.7133 32.1117 30.58V36.3C32.1117 37.1667 32.3051 37.7867 32.6917 38.16C33.0917 38.52 33.7517 38.7 34.6717 38.7C35.3117 38.7 36.2184 38.5933 37.3917 38.38L37.4317 39.92C37.3251 39.9333 36.9651 39.9867 36.3517 40.08C35.7517 40.1867 35.1917 40.24 34.6717 40.24C33.1384 40.24 32.0451 39.9133 31.3917 39.26C30.7384 38.6067 30.4117 37.5867 30.4117 36.2V30.7C30.4117 29.3133 30.7384 28.2933 31.3917 27.64C32.0451 26.9867 33.1384 26.66 34.6717 26.66ZM41.7234 26.9V38.5H46.9234V40H40.0234V26.9H41.7234ZM50.7273 26.9V40H49.0273V26.9H50.7273ZM57.9944 26.66C59.4877 26.66 60.5877 27.0333 61.2944 27.78C62.001 28.5267 62.3544 29.5867 62.3544 30.96V35.94C62.3544 37.6467 61.721 38.84 60.4544 39.52L62.7544 40.12L62.7944 41.7H62.4144L58.4944 40.22C58.401 40.2333 58.241 40.24 58.0144 40.24C55.0944 40.24 53.6344 38.8067 53.6344 35.94V30.96C53.6344 29.5867 53.9877 28.5267 54.6944 27.78C55.401 27.0333 56.501 26.66 57.9944 26.66ZM57.9944 28.16C57.1144 28.16 56.4477 28.38 55.9944 28.82C55.5544 29.26 55.3344 29.9067 55.3344 30.76V36.12C55.3344 36.9733 55.561 37.6267 56.0144 38.08C56.4677 38.52 57.1344 38.74 58.0144 38.74C59.7744 38.74 60.6544 37.8533 60.6544 36.08V30.78C60.6544 29.9267 60.4277 29.28 59.9744 28.84C59.5344 28.3867 58.8744 28.16 57.9944 28.16ZM73.7778 35.86C73.7778 37.2733 73.4178 38.36 72.6978 39.12C71.9778 39.8667 70.9178 40.24 69.5178 40.24C68.1311 40.24 67.0711 39.8733 66.3378 39.14C65.6178 38.4067 65.2578 37.3267 65.2578 35.9V26.9H66.9578V36.12C66.9578 36.9733 67.1778 37.6267 67.6178 38.08C68.0711 38.52 68.7045 38.74 69.5178 38.74C70.3445 38.74 70.9778 38.52 71.4178 38.08C71.8578 37.6267 72.0778 36.9733 72.0778 36.12V26.9H73.7778V35.86ZM83.6813 26.9V28.44H78.4813V32.58H83.2813V34.1H78.4813V38.46H83.6813V40H76.7813V26.9H83.6813ZM44.3561 47.9L48.3761 61H46.5361L45.6761 57.96H40.8561L39.9961 61H38.2561L42.2561 47.9H44.3561ZM43.2761 49.46L41.2761 56.44H45.2561L43.2761 49.46ZM54.01 47.66C55.5033 47.66 56.6033 48.0333 57.31 48.78C58.0167 49.5267 58.37 50.5867 58.37 51.96V56.94C58.37 58.6467 57.7367 59.84 56.47 60.52L58.77 61.12L58.81 62.7H58.43L54.51 61.22C54.4167 61.2333 54.2567 61.24 54.03 61.24C51.11 61.24 49.65 59.8067 49.65 56.94V51.96C49.65 50.5867 50.0033 49.5267 50.71 48.78C51.4167 48.0333 52.5167 47.66 54.01 47.66ZM54.01 49.16C53.13 49.16 52.4633 49.38 52.01 49.82C51.57 50.26 51.35 50.9067 51.35 51.76V57.12C51.35 57.9733 51.5767 58.6267 52.03 59.08C52.4833 59.52 53.15 59.74 54.03 59.74C55.79 59.74 56.67 58.8533 56.67 57.08V51.78C56.67 50.9267 56.4433 50.28 55.99 49.84C55.55 49.3867 54.89 49.16 54.01 49.16ZM69.7934 56.86C69.7934 58.2733 69.4334 59.36 68.7134 60.12C67.9934 60.8667 66.9334 61.24 65.5334 61.24C64.1468 61.24 63.0868 60.8733 62.3534 60.14C61.6334 59.4067 61.2734 58.3267 61.2734 56.9V47.9H62.9734V57.12C62.9734 57.9733 63.1934 58.6267 63.6334 59.08C64.0868 59.52 64.7201 59.74 65.5334 59.74C66.3601 59.74 66.9934 59.52 67.4334 59.08C67.8734 58.6267 68.0934 57.9733 68.0934 57.12V47.9H69.7934V56.86ZM74.4969 47.9V61H72.7969V47.9H74.4969Z" fill="#292929"/>
</svg>
