<svg width="344" height="262" viewBox="0 0 344 262" fill="none" xmlns="http://www.w3.org/2000/svg">
<path d="M306.13 130.74C306.169 158.365 297.413 185.284 281.13 207.6C267.98 225.701 250.405 240.124 230.087 249.491C209.769 258.857 187.387 262.853 165.083 261.096C142.779 259.34 121.299 251.889 102.697 239.457C84.0958 227.026 68.9957 210.029 58.8413 190.093C48.687 170.156 43.8182 147.948 44.7007 125.592C45.5832 103.237 52.1875 81.4814 63.8819 62.4078C75.5762 43.3342 91.9692 27.5805 111.493 16.6538C131.016 5.7271 153.017 -0.00702462 175.39 6.45825e-06C178.977 6.45825e-06 182.527 0.143332 186.04 0.429999C203.979 1.88746 221.422 7.03687 237.276 15.5551C253.131 24.0733 267.053 35.7764 278.17 49.93C281.095 53.6451 283.819 57.5139 286.33 61.52C299.307 82.2727 306.17 106.264 306.13 130.74Z" fill="#7674C4"/>
<g opacity="0.1">
<path d="M203.62 192.45C201.97 196.85 204.72 197.03 204.9 198.86C205.08 200.69 204.9 204.17 199.59 209.48C194.28 214.79 185.49 213.69 183.66 215.89C181.83 218.09 178.72 227.43 174.32 230.54C169.92 233.65 169.2 231.82 162.97 233.1C156.74 234.38 151.97 242.44 150.15 246.29C148.33 250.14 150.52 256.54 146.15 256.73C141.78 256.92 139.75 247.39 135.72 242.26C131.69 237.13 130.41 232.55 129.13 226.51C127.85 220.47 129.86 207.83 129.13 202.89C128.4 197.95 115.21 189.16 110.45 183.11C105.69 177.06 99.09 164.99 99.45 160.96C100.009 157.052 101.958 153.477 104.94 150.89C107.14 149.24 106.23 148.32 106.59 146.89C106.95 145.46 108.79 145.06 109.16 143.23C109.53 141.4 108.06 135.9 106.23 134.99C104.4 134.08 103.11 137.18 102.01 136.63C100.91 136.08 97.62 132.24 96.34 131.87C95.06 131.5 95.42 134.25 93.59 130.77C91.76 127.29 90.84 118.51 89.38 117.04C87.92 115.57 86.82 119.6 83.38 117.04C79.94 114.48 78.43 109.53 76.97 108.8C75.51 108.07 73.49 108.98 71.97 106.05C70.45 103.12 73.3 97.8099 71.97 98.3599C70.64 98.91 67.8 103.12 67.07 99.1C66.34 95.08 70.73 81.52 70 74.19C69.27 66.86 71.83 59.19 77 52.95C77 52.95 77.73 48.95 78.46 46.36C79.19 43.77 94.94 33.54 96.77 30.61C97.54 29.39 97.77 27.47 98.07 25.4C120.493 8.87665 147.627 -0.0158802 175.48 0.0299615C179.067 0.0299615 182.617 0.173288 186.13 0.459954C186.25 0.629954 186.38 0.78996 186.5 0.94996C188.09 2.94996 189.8 4.23996 194.44 5.94996C199.08 7.65996 200.17 9.85997 199.2 11.69C198.23 13.52 196.63 13.89 194.8 14.01C192.97 14.13 191.26 13.15 189.31 14.38C187.36 15.61 185.4 22.19 182.84 22.55C180.28 22.91 175.76 16.69 174.78 14.86C173.8 13.03 176.98 9.11996 175.48 7.28996C173.98 5.45996 171.36 5.82995 167.21 5.45995C163.06 5.08995 153.42 6.68997 153.78 8.26997C154.14 9.84997 167.94 8.02996 168.31 11.2C168.68 14.37 158.18 19.75 156.31 19.26C154.44 18.77 152.03 15.6 149.31 15.26C146.59 14.92 144.42 17.09 142.74 17.34C141.06 17.59 139.06 15.5 136.49 15.99C133.92 16.48 133.32 18.68 131.97 19.53C130.62 20.38 127.45 20.31 127.07 22.31C126.69 24.31 131.07 25.36 132.2 26.58C133.33 27.8 130.85 31.95 131.95 32.81C133.05 33.67 139.89 27.68 141.6 26.22C143.31 24.76 144.77 18.4 148.43 18.53C152.09 18.66 153.32 24.87 154.54 25.48C155.76 26.09 158.45 24.02 162.47 24.87C166.49 25.72 169.31 34.52 170.04 37.2C170.77 39.88 172.48 42.58 171.04 43.67C169.6 44.76 162.98 42.94 162.13 41.23C161.28 39.52 166.52 36.96 166.13 36.35C165.74 35.74 162.71 34.88 161.13 35.84C159.55 36.8 158.81 38.79 157.13 39.28C155.45 39.77 150.91 34.64 149.69 36.1C148.47 37.56 150.91 42.21 152.13 43.31C153.35 44.41 157.86 45.01 158.23 46.24C158.6 47.47 155.23 50.14 151.03 49.9C146.83 49.66 143.46 46.48 141.87 47.82C140.28 49.16 141.14 52.71 140.04 53.93C138.94 55.15 132.96 54.29 130.04 57.47C127.12 60.65 125.77 65.4 122.84 68.09C119.91 70.78 118.57 67.35 114.66 71.14C110.75 74.93 110.07 83.31 109.99 86.25C109.91 89.19 109.99 91.5 108.99 91.13C107.99 90.76 106.66 88.1999 106.3 86.6099C105.94 85.02 107.15 82.34 107.15 81.37C107.15 80.4 101.54 75.3699 98.24 74.8899C94.94 74.4099 92.01 77.09 89.58 79.04C87.15 80.99 82.74 80.63 81.15 82.22C79.56 83.81 78.34 97.8499 79.56 101.14C80.78 104.43 82.37 104.44 86.28 102.73C90.19 101.02 87.99 97.73 90.28 98.45C91.3222 98.843 92.2196 99.5447 92.8522 100.461C93.4848 101.378 93.8224 102.466 93.82 103.58C93.82 105.58 89.18 110.17 89.82 111.52C90.46 112.87 94.46 111.27 96.41 111.88C98.36 112.49 99.34 113.71 98.73 118.72C98.12 123.73 98.49 127.63 101.42 129.28C104.35 130.93 105.99 126.9 107.28 127.45C108.57 128 110.39 130.93 112.22 130.74C114.05 130.55 113.13 128.91 116.61 127.81C120.09 126.71 118.81 125.98 119.54 123.81C120.27 121.64 122.47 119.81 124.85 120.88C127.23 121.95 125.59 123.62 125.77 125.45C125.95 127.28 130.16 127.45 133.46 128.57C136.76 129.69 138.59 128.57 145.18 130.76C151.77 132.95 152.18 139.55 154.88 140.65C157.58 141.75 166.79 139.92 173.38 144.65C179.97 149.38 178.14 158.2 181.44 160.76C184.74 163.32 197 166.81 201.76 167.76C206.52 168.71 207.25 165.38 211.1 166.3C214.95 167.22 217.1 168.3 218.42 173.62C219.58 178.31 205.27 188.06 203.62 192.45Z" fill="black"/>
<path d="M105.23 98.8199C105.35 99.8199 108.4 100.29 112.07 102.36C115.74 104.43 117.07 110.54 119.02 110.42C120.97 110.3 120.37 107.49 121.1 106.76C121.83 106.03 123.05 104.44 121.1 102.85C119.15 101.26 117.25 97.8499 113.68 97.3599C110.11 96.8699 109.5 95.3599 107.92 95.5299C107.514 95.5326 107.114 95.6248 106.748 95.7999C106.382 95.975 106.059 96.2286 105.802 96.5428C105.545 96.857 105.361 97.2239 105.262 97.6175C105.163 98.0111 105.152 98.4216 105.23 98.8199Z" fill="black"/>
<path d="M125.37 109.08C124.83 110.57 125.37 111.64 129.28 112.62C133.19 113.6 136.85 111.62 135.63 110.85C134.41 110.08 132.57 110.42 133.31 109.08C134.05 107.74 133.79 105.78 130.62 106.15C127.45 106.52 125.86 107.73 125.37 109.08Z" fill="black"/>
<path d="M139.07 109.49C137.74 109.68 137 112.01 138.34 113.49C139.68 114.97 139.69 114.71 141.27 113.49C142.85 112.27 145.27 111.66 144.69 110.44C144.11 109.22 140.39 109.31 139.07 109.49Z" fill="black"/>
<path d="M149.67 114.48C150.26 112.65 153.33 114.48 154.67 116.4C156.01 118.32 155.4 121.16 154.67 123.24C153.94 125.32 153.45 127.75 151.74 126.78C150.03 125.81 151.86 122.87 151.62 121.16C151.38 119.45 149.18 115.98 149.67 114.48Z" fill="black"/>
<path d="M202.28 12.64C201.64 14.17 204.6 14.71 206.28 15.64C207.96 16.57 209.33 17.22 210.28 15.64C211.23 14.06 209.91 12.22 208.57 11.85C207.23 11.48 202.89 11.17 202.28 12.64Z" fill="black"/>
<path d="M225.35 26.9198C226.48 28.1098 228.4 27.9198 229.75 29.5998C231.1 31.2798 230.6 34.2398 232.31 35.0998C234.02 35.9598 235.24 35.0998 235.36 33.8798C235.48 32.6598 232.92 29.5998 233.16 28.9898C233.4 28.3798 236.7 29.8498 237.44 31.6798C238.18 33.5098 236.7 36.0698 238.44 36.5598C240.18 37.0498 239.79 34.8498 240.52 34.3698C241.25 33.8898 242.84 34.1198 242.72 32.6598C242.6 31.1998 240.64 28.0198 239.05 26.9198C237.46 25.8198 236.25 24.5998 233.56 23.9898C230.87 23.3798 228.31 23.8698 226.97 24.9898C225.63 26.1098 224.66 26.1898 225.35 26.9198Z" fill="black"/>
<path d="M278.17 49.93C278.092 50.4225 277.848 50.8738 277.48 51.21C274.92 53.04 271.86 46.69 268.32 45.48C264.78 44.27 263.2 39.74 262.46 40.71C261.72 41.68 261.97 43.03 260.87 44.62C259.77 46.21 258.19 45.84 257.46 48.89C256.73 51.94 260.87 57.56 259.9 59.39C258.93 61.22 257.7 60.61 255.75 60.49C253.8 60.37 254.16 62.08 251.6 61.34C249.04 60.6 251.23 57.44 247.2 53.65C243.17 49.86 241.83 49.14 242.69 47.43C243.55 45.72 242.32 43.28 244.15 43.03C245.98 42.78 247.45 45.48 248.67 46.21C249.89 46.94 251.48 44.74 251.6 42.79C251.72 40.84 247.32 38.15 245.74 36.63C244.16 35.11 244.03 29.63 244.64 28.5C245.25 27.37 247.08 27.77 247.57 25.09C247.86 23.51 245.36 20.87 243.25 18.97C256.647 27.12 268.474 37.6059 278.17 49.93Z" fill="black"/>
<path d="M296.4 159.37C296.76 155.46 294.81 155.22 296.76 148.02C298.71 140.82 294.69 133.12 293.23 131.54C291.77 129.96 288.59 130.44 286.02 132.03C283.45 133.62 285.29 134.83 283.58 135.44C281.87 136.05 280.16 135.08 278.58 135.2C277 135.32 275.52 139.35 272.11 139.2C268.7 139.05 266.49 134.2 263.93 130.71C261.37 127.22 256.11 125.04 254.41 120.76C252.71 116.48 255.99 109.9 255.26 104.89C254.53 99.8801 251.26 100.99 250.62 98.1801C249.98 95.3701 251.11 96.7201 251.96 94.0301C252.81 91.3401 250.96 89.8801 252.7 85.2401C254.44 80.6001 257.46 78.2401 256.7 76.2401C255.94 74.2401 253.64 70.7401 253.52 68.3101C253.4 65.8801 255.84 65.9801 260.52 62.5601C265.2 59.1401 266.38 59.3901 269.92 60.6101C272.461 61.549 275.073 62.2846 277.73 62.8101C279.81 63.1701 282.62 68.5501 283.47 68.3001C284.32 68.0501 284.47 66.4701 284.81 64.1501C285.049 63.1416 285.582 62.2265 286.34 61.5201C300.114 83.6191 306.98 109.326 306.059 135.349C305.138 161.373 296.472 186.53 281.17 207.6C293.62 188.6 296.07 163.31 296.4 159.37Z" fill="black"/>
</g>
<path opacity="0.1" d="M276.68 213.42C262.732 230.511 244.686 243.796 224.222 252.036C203.758 260.276 181.542 263.205 159.642 260.549C137.741 257.893 116.869 249.739 98.9682 236.846C81.0672 223.954 66.7195 206.741 57.2606 186.811C47.8018 166.881 43.5395 144.882 44.8705 122.861C46.2015 100.841 53.0825 79.5153 64.873 60.8698C76.6634 42.2242 92.9799 26.865 112.304 16.2221C131.627 5.57925 153.329 -0.00130689 175.39 2.29568e-07C178.98 2.29568e-07 182.53 0.149993 186.05 0.429993C187.017 0.49666 187.987 0.586664 188.96 0.699997C170.483 2.71341 152.728 8.99825 137.1 19.0574C121.471 29.1166 108.397 42.6742 98.9121 58.6579C89.4271 74.6417 83.7912 92.6131 82.4501 111.151C81.109 129.688 84.0995 148.284 91.1851 165.466C98.2707 182.649 109.257 197.947 123.275 210.151C137.293 222.355 153.959 231.13 171.953 235.782C189.948 240.434 208.778 240.835 226.954 236.954C245.131 233.073 262.155 225.016 276.68 213.42Z" fill="black"/>
<path opacity="0.3" d="M306.13 130.74C306.169 158.365 297.413 185.284 281.13 207.6C268.853 224.451 252.743 238.138 234.13 247.53C250.332 238.264 264.387 225.671 275.37 210.58C289.098 191.703 297.553 169.512 299.867 146.286C302.181 123.061 298.271 99.6377 288.537 78.4233C278.804 57.2089 263.599 38.9678 244.484 25.5739C225.369 12.1799 203.033 4.11585 179.77 2.21007C176.24 1.92007 172.66 1.77008 169.06 1.77008C158.418 1.76072 147.813 3.04343 137.48 5.59008C149.772 1.86947 162.547 -0.0142027 175.39 8.06211e-05C178.98 8.06211e-05 182.53 0.150073 186.05 0.430073C206.304 2.05212 225.895 8.40218 243.25 18.9701C256.648 27.1349 268.475 37.6341 278.17 49.9701C281.1 53.6821 283.821 57.5548 286.32 61.5701C299.299 82.3038 306.166 106.279 306.13 130.74Z" fill="white"/>
<g opacity="0.5">
<path d="M62.92 84.6601C62.7383 84.3271 62.4923 84.0334 62.1963 83.7961C61.9004 83.5587 61.5603 83.3824 61.1957 83.2773C60.8312 83.1722 60.4495 83.1405 60.0726 83.1839C59.6957 83.2273 59.3311 83.3449 59 83.5301C56.74 84.5301 55.74 87.0001 55.45 89.3801C55.0687 90.3955 55.0687 91.5147 55.45 92.5301C55.6094 92.8175 55.8264 93.069 56.0874 93.2688C56.3484 93.4686 56.6478 93.6124 56.9669 93.6913C57.286 93.7701 57.6179 93.7823 57.9419 93.727C58.266 93.6717 58.5751 93.5502 58.85 93.3701C60.25 92.5301 61.19 90.6701 61.85 89.2601C62.51 87.8501 63.61 86.1201 62.92 84.6601Z" fill="white"/>
<path d="M66.86 74.5C66.6102 74.109 66.24 73.8098 65.8053 73.6474C65.3707 73.4851 64.895 73.4685 64.45 73.6C64.0318 73.7413 63.6591 73.992 63.3707 74.3262C63.0823 74.6603 62.8887 75.0657 62.81 75.5C62.8001 75.5964 62.8001 75.6936 62.81 75.79C62.5592 76.0963 62.3782 76.4536 62.2798 76.837C62.1813 77.2205 62.1677 77.6208 62.24 78.01C62.3347 78.4019 62.5371 78.7594 62.8244 79.0422C63.1117 79.325 63.4724 79.5218 63.8657 79.6102C64.2591 79.6986 64.6693 79.6752 65.05 79.5427C65.4307 79.4101 65.7667 79.1736 66.02 78.86C66.95 77.83 67.61 75.79 66.86 74.5Z" fill="white"/>
<path d="M68.07 81.4199C67.801 81.4157 67.534 81.4658 67.2849 81.5672C67.0357 81.6685 66.8096 81.8192 66.62 82.01C66.4644 82.1503 66.3423 82.3238 66.2626 82.5176C66.183 82.7115 66.1479 82.9207 66.16 83.1299C66.0126 83.3702 65.9077 83.634 65.85 83.9099C65.78 84.2057 65.804 84.5159 65.9187 84.7974C66.0335 85.0788 66.2332 85.3174 66.49 85.48C66.6849 85.6096 66.9035 85.6994 67.1332 85.7444C67.3629 85.7895 67.5993 85.7888 67.8287 85.7423C68.0581 85.6959 68.2762 85.6046 68.4703 85.4738C68.6644 85.343 68.8308 85.1752 68.96 84.98C69.4036 84.4066 69.6492 83.7048 69.66 82.98C69.6447 82.5659 69.4714 82.1735 69.1756 81.8833C68.8799 81.5931 68.4842 81.4273 68.07 81.4199Z" fill="white"/>
<path d="M72.94 66.6301C72.51 66.9601 71.94 67.2501 71.74 67.7601C71.6413 67.9776 71.5837 68.2116 71.57 68.4501C71.3753 68.8177 71.266 69.2244 71.25 69.6401C71.2525 69.8462 71.3019 70.0491 71.3944 70.2333C71.4869 70.4176 71.62 70.5784 71.7838 70.7036C71.9475 70.8288 72.1376 70.9152 72.3397 70.9562C72.5417 70.9971 72.7504 70.9916 72.95 70.9401C73.5946 70.7343 74.1548 70.3246 74.5462 69.7726C74.9377 69.2207 75.139 68.5565 75.12 67.8801C75.07 66.8901 73.86 65.9501 72.94 66.6301Z" fill="white"/>
<path d="M101.12 35.3601C100.503 35.3381 99.8875 35.44 99.3104 35.6598C98.7333 35.8797 98.2061 36.213 97.76 36.6401C97.5046 36.8576 97.2702 37.0987 97.06 37.3601C96.8284 37.5286 96.6141 37.7195 96.42 37.9301C95.62 38.8301 95.23 40.3801 96.19 41.3301C97.15 42.2801 98.61 41.5001 99.59 40.8301C100.7 40.1654 101.62 39.225 102.26 38.1001C102.85 36.9401 102.57 35.5801 101.12 35.3601Z" fill="white"/>
<path d="M113.54 28.31C111.684 28.4738 109.902 29.1183 108.37 30.18L107.62 30.73H107.55C106.55 31.44 104.85 32.63 105.07 34.1C105.141 34.378 105.27 34.6383 105.446 34.8643C105.623 35.0904 105.845 35.2774 106.098 35.4136C106.35 35.5498 106.629 35.6323 106.915 35.6557C107.201 35.6792 107.489 35.6432 107.76 35.55C109.779 35.0176 111.719 34.2207 113.53 33.18C114.67 32.54 116.12 31.48 116.09 30.03C116.06 28.58 114.78 28.2 113.54 28.31Z" fill="white"/>
<path d="M107.61 37.95C107.141 37.8085 106.641 37.797 106.166 37.9168C105.691 38.0365 105.256 38.283 104.91 38.6301C104.687 38.7455 104.49 38.9067 104.334 39.1032C104.177 39.2996 104.063 39.5268 104 39.7701C103.936 40.13 104.001 40.5011 104.184 40.8177C104.367 41.1343 104.656 41.376 105 41.5C105.334 41.6151 105.691 41.6461 106.04 41.5903C106.389 41.5345 106.719 41.3936 107 41.18C107.55 40.82 108.32 40.4 108.51 39.73C108.604 39.3746 108.565 38.9969 108.399 38.6688C108.233 38.3406 107.952 38.0848 107.61 37.95Z" fill="white"/>
<path d="M95.68 45.7201C95.2336 45.5137 94.7369 45.4407 94.25 45.5101C93.9168 45.5134 93.5897 45.5998 93.2984 45.7617C93.0071 45.9235 92.7609 46.1555 92.582 46.4367C92.4032 46.7178 92.2974 47.0392 92.2744 47.3716C92.2513 47.704 92.3117 48.037 92.45 48.3401C92.6432 48.6954 92.951 48.9748 93.3232 49.1327C93.6955 49.2907 94.1103 49.318 94.5 49.2101C95.2407 48.9165 95.8415 48.3514 96.18 47.6301C96.3659 47.3103 96.4177 46.9299 96.324 46.572C96.2303 46.2141 95.9988 45.9078 95.68 45.7201Z" fill="white"/>
<path d="M96.4 222.7C95.989 222.46 95.5003 222.39 95.0385 222.506C94.5768 222.622 94.1789 222.914 93.93 223.32C93.731 223.699 93.667 224.134 93.7489 224.554C93.8307 224.974 94.0533 225.354 94.38 225.63C94.4889 225.801 94.6127 225.961 94.75 226.11C95.1972 226.665 95.8428 227.023 96.55 227.11C96.9628 227.138 97.3728 227.025 97.7139 226.791C98.055 226.557 98.3073 226.215 98.43 225.82C98.84 224.38 97.57 223.31 96.4 222.7Z" fill="white"/>
<path d="M106.07 224.56C104.87 223.25 102.14 221.89 100.92 223.84V223.91C100.851 223.997 100.791 224.091 100.74 224.19C100.653 224.409 100.619 224.645 100.64 224.88C100.628 225.636 100.895 226.369 101.39 226.94C101.767 227.417 102.269 227.78 102.84 227.99C103.133 228.245 103.473 228.442 103.84 228.57C104.339 228.764 104.891 228.769 105.394 228.585C105.896 228.401 106.314 228.04 106.57 227.57C106.818 227.08 106.903 226.525 106.813 225.983C106.723 225.442 106.463 224.943 106.07 224.56Z" fill="white"/>
<path d="M103.96 231.17C103.954 230.895 103.877 230.627 103.736 230.391C103.595 230.155 103.396 229.96 103.157 229.824C102.919 229.688 102.649 229.616 102.374 229.615C102.099 229.615 101.829 229.685 101.59 229.82C101.447 229.903 101.321 230.013 101.221 230.144C101.121 230.276 101.048 230.426 101.006 230.586C100.964 230.746 100.954 230.913 100.977 231.076C101 231.24 101.056 231.398 101.14 231.54C101.29 231.756 101.457 231.96 101.64 232.15C101.841 232.316 102.085 232.423 102.343 232.46C102.602 232.497 102.866 232.462 103.105 232.358C103.345 232.255 103.552 232.087 103.703 231.874C103.853 231.661 103.942 231.41 103.96 231.15V231.17Z" fill="white"/>
<path d="M109.3 232.31C109.254 232.138 109.163 231.982 109.036 231.857C108.91 231.732 108.752 231.644 108.58 231.6H108.52H108.6C108.416 231.522 108.212 231.502 108.016 231.541C107.82 231.58 107.64 231.677 107.5 231.82C107.357 231.971 107.262 232.16 107.224 232.365C107.186 232.569 107.208 232.78 107.288 232.972C107.367 233.164 107.5 233.329 107.67 233.448C107.841 233.566 108.042 233.633 108.25 233.64C108.413 233.64 108.574 233.603 108.721 233.532C108.867 233.461 108.996 233.357 109.097 233.229C109.198 233.101 109.269 232.952 109.304 232.793C109.339 232.634 109.338 232.469 109.3 232.31Z" fill="white"/>
<path d="M294.56 110.36C294.36 107.53 293.88 102.95 291.18 101.36C290.905 101.222 290.596 101.168 290.29 101.203C289.985 101.239 289.696 101.363 289.46 101.56C287.37 102.78 288.08 106.5 288.27 108.25C288.51 110.57 288.4 114.62 291.37 115.25C294.34 115.88 294.7 112.38 294.56 110.36Z" fill="white"/>
<path d="M290.84 94.8901C290.846 94.4807 290.769 94.0743 290.613 93.6959C290.456 93.3176 290.224 92.9753 289.93 92.6901C289.596 92.4057 289.168 92.2562 288.73 92.271C288.291 92.2858 287.874 92.4638 287.56 92.7701C286.42 93.8801 286.7 95.9901 287.56 97.1901C287.672 97.371 287.82 97.5266 287.995 97.647C288.17 97.7674 288.369 97.85 288.577 97.8896C288.786 97.9291 289.001 97.9246 289.208 97.8765C289.415 97.8284 289.61 97.7376 289.78 97.6101C289.873 97.5405 289.957 97.4599 290.03 97.3701C290.129 97.3009 290.22 97.2203 290.3 97.1301C290.765 96.4823 290.959 95.6786 290.84 94.8901Z" fill="white"/>
<path d="M293.24 118.11C291.81 117.77 290.99 118.76 290.66 120.03C290.228 121.589 290.26 123.239 290.75 124.78C291.13 125.87 291.82 126.99 293.13 126.96C293.712 126.903 294.257 126.648 294.672 126.236C295.088 125.824 295.348 125.282 295.41 124.7C295.81 122.72 295.79 118.72 293.24 118.11Z" fill="white"/>
<path d="M288.73 115.95C288.548 115.781 288.331 115.655 288.093 115.583C287.856 115.51 287.605 115.492 287.36 115.53C287.26 115.509 287.156 115.51 287.056 115.532C286.956 115.555 286.862 115.598 286.78 115.66C284.71 116.18 285.13 120.04 287.04 120.66C289.63 121.53 290.22 117.31 288.73 115.95Z" fill="white"/>
<path d="M287.07 178.55C285.89 178.82 285.28 179.97 284.81 180.98C284.575 181.462 284.365 181.956 284.18 182.46C283.65 183.55 283.43 184.68 284.18 185.56C284.539 185.965 285.019 186.243 285.549 186.353C286.079 186.463 286.63 186.399 287.12 186.17C287.627 185.884 288.073 185.502 288.431 185.043C288.79 184.585 289.055 184.061 289.21 183.5C289.8 181.81 289.93 177.9 287.07 178.55Z" fill="white"/>
<path d="M283.01 188.52C282.513 188.547 282.034 188.717 281.631 189.009C281.228 189.302 280.919 189.705 280.74 190.17C280.61 190.41 280.49 190.65 280.38 190.91C280.173 191.174 280.024 191.479 279.943 191.805C279.862 192.13 279.851 192.47 279.91 192.8C279.919 193.047 279.99 193.288 280.116 193.501C280.241 193.714 280.418 193.892 280.63 194.02C281.025 194.355 281.532 194.53 282.05 194.51C282.51 194.457 282.948 194.282 283.317 194.002C283.687 193.722 283.974 193.349 284.15 192.92C284.544 192.218 284.79 191.441 284.87 190.64C284.903 190.113 284.726 189.594 284.377 189.196C284.029 188.799 283.537 188.556 283.01 188.52Z" fill="white"/>
<path d="M279.73 183.43C279.073 184.095 278.648 184.954 278.52 185.88C278.402 186.223 278.408 186.596 278.538 186.934C278.668 187.273 278.913 187.554 279.23 187.73C281.23 188.73 282.23 185.95 282.23 184.48C282.214 184.198 282.118 183.926 281.955 183.696C281.792 183.465 281.568 183.285 281.307 183.176C281.047 183.066 280.761 183.032 280.482 183.077C280.203 183.122 279.943 183.244 279.73 183.43Z" fill="white"/>
<path d="M291.49 173.31C291.158 173.318 290.839 173.439 290.586 173.654C290.333 173.869 290.162 174.164 290.1 174.49C289.967 174.646 289.853 174.818 289.76 175C289.576 175.348 289.531 175.753 289.633 176.133C289.735 176.513 289.977 176.841 290.31 177.05C290.52 177.166 290.755 177.226 290.995 177.226C291.235 177.226 291.47 177.166 291.68 177.05C292.057 176.789 292.365 176.441 292.577 176.035C292.79 175.63 292.9 175.178 292.9 174.72C292.9 174.535 292.864 174.352 292.793 174.18C292.722 174.009 292.618 173.854 292.487 173.723C292.356 173.592 292.201 173.488 292.03 173.417C291.859 173.347 291.675 173.31 291.49 173.31Z" fill="white"/>
</g>
<path opacity="0.7" d="M214 62.7596C234.784 60.8731 255.296 56.691 275.16 50.2896C273.309 49.0668 271.083 48.5422 268.88 48.8096C268.88 48.8096 262.48 35.8896 251.59 38.2996C241.46 40.4796 237.34 50.2996 237.35 50.3796C237.36 50.4596 232.62 47.0496 228.08 49.5896C223.54 52.1296 220.97 57.8596 220.97 57.8596C220.97 57.8596 215.86 60.5296 214 62.7596Z" fill="white"/>
<path d="M343.59 83.6442C320.183 96.5173 295.07 106.008 269 111.834C269 111.784 269 108.144 279.6 104.694C279.6 104.694 289.3 85.6941 303.72 82.7541C312.72 80.8641 317.18 88.6241 317.19 88.6541C317.2 88.6841 323.86 78.1042 329.14 77.1042C334.42 76.1042 337.46 82.6342 337.47 82.6442C337.48 82.6542 342.79 81.9542 343.59 83.6442Z" fill="white"/>
<path d="M147.37 47.5427C129.519 48.1621 111.649 47.0907 94 44.3427C94 44.3427 99 41.5427 101.23 41.8227C103.46 42.1027 109.97 31.0027 118.33 32.0727C126.69 33.1427 131.13 42.0727 131.13 42.0727C131.13 42.0727 141.31 39.7827 147.37 47.5427Z" fill="white"/>
<path d="M107 240.286C89.1204 239.298 71.3745 236.62 54 232.286C54 232.286 58.93 229.936 61.14 230.416C63.35 230.896 69.77 220.416 78.06 222.206C86.35 223.996 90.79 233.326 90.78 233.346C90.77 233.366 100.93 232.016 107 240.286Z" fill="white"/>
<path opacity="0.7" d="M195.998 208.163C180.54 208.495 165.08 207.554 149.777 205.349C150.877 204.237 152.369 203.599 153.933 203.57C153.933 203.57 155.946 193.679 164.184 194.25C171.846 194.761 176.731 201.381 176.737 201.4C177.584 200.587 178.64 200.025 179.787 199.777C180.935 199.528 182.129 199.602 183.236 199.991C187.006 201.4 189.986 205.246 189.986 205.246C189.986 205.246 194.209 206.716 195.998 208.163Z" fill="white"/>
<path opacity="0.7" d="M235 235.325C255.74 232.642 276.118 227.665 295.76 220.485C293.909 219.324 291.695 218.882 289.54 219.245C289.54 219.245 283.2 206.575 272.4 209.415C262.34 211.985 258.24 221.995 258.25 222.035C258.26 222.075 253.55 218.885 249.03 221.595C244.51 224.305 241.95 230.145 241.95 230.145C241.95 230.145 236.85 233.015 235 235.325Z" fill="white"/>
<g filter="url(#filter0_d_60_571)">
<path d="M128.91 126.788L124.559 103.925L139.206 101.138L139.866 104.61L129.361 106.609L130.543 112.816L140.043 111.008L140.703 114.48L131.203 116.288L133.051 126L128.91 126.788ZM147.329 123.283L142.979 100.42L157.848 97.5908L158.509 101.063L147.781 103.104L148.962 109.311L158.92 107.416L159.58 110.888L149.623 112.783L150.81 119.023L161.627 116.965L162.288 120.436L147.329 123.283ZM166.424 119.649L162.074 96.7868L166.215 95.9987L169.905 115.389L179.974 113.473L180.635 116.945L166.424 119.649ZM184.021 92.6106L188.371 115.473L184.23 116.261L179.879 93.3987L184.021 92.6106ZM192.432 114.7L191.941 112.122L200.464 93.0793L188.675 95.3224L188.014 91.8506L204.938 88.6303L205.429 91.209L196.917 110.249L208.695 108.008L209.355 111.48L192.432 114.7ZM79.4217 179.976L75.001 180.817L78.6993 156.423L83.8122 155.45L96.2225 176.779L91.8018 177.62L82.2372 160.608L82.0586 160.642L79.4217 179.976ZM77.861 170.984L89.9174 168.69L90.5505 172.017L78.4941 174.311L77.861 170.984ZM113.671 149.769L118.022 172.631L114.338 173.332L100.602 159.809L100.412 159.845L103.375 175.418L99.2338 176.206L94.8834 153.344L98.5896 152.638L112.316 166.175L112.517 166.136L109.552 150.552L113.671 149.769ZM122.326 148.122L126.676 170.984L122.534 171.772L118.184 148.91L122.326 148.122ZM129.869 146.686L139.244 163.549L139.478 163.505L141.993 144.379L146.547 143.513L142.838 167.909L137.725 168.882L125.326 147.551L129.869 146.686ZM153.909 165.802L149.559 142.94L164.428 140.11L165.089 143.582L154.361 145.623L155.542 151.83L165.5 149.936L166.16 153.407L156.203 155.302L157.39 161.542L168.207 159.484L168.868 162.956L153.909 165.802ZM173.004 162.169L168.653 139.306L177.227 137.675C178.983 137.341 180.515 137.365 181.822 137.749C183.136 138.131 184.203 138.815 185.023 139.8C185.849 140.777 186.401 141.995 186.678 143.453C186.957 144.919 186.887 146.251 186.467 147.449C186.053 148.639 185.299 149.642 184.206 150.459C183.11 151.269 181.685 151.841 179.928 152.176L173.822 153.337L173.168 149.899L178.716 148.843C179.743 148.648 180.557 148.347 181.158 147.939C181.758 147.524 182.161 147.012 182.369 146.402C182.583 145.782 182.613 145.067 182.458 144.256C182.304 143.445 182.012 142.783 181.583 142.271C181.153 141.752 180.582 141.405 179.87 141.232C179.157 141.052 178.284 141.06 177.249 141.257L173.454 141.979L177.145 161.381L173.004 162.169ZM182.843 149.562L190.474 158.844L185.853 159.724L178.322 150.422L182.843 149.562ZM202.72 139.336C202.43 138.381 201.847 137.706 200.969 137.31C200.099 136.912 199.05 136.831 197.822 137.064C196.959 137.228 196.243 137.5 195.675 137.878C195.107 138.256 194.702 138.699 194.459 139.208C194.217 139.717 194.146 140.258 194.248 140.833C194.339 141.309 194.525 141.702 194.807 142.01C195.097 142.318 195.455 142.558 195.882 142.731C196.306 142.897 196.765 143.018 197.258 143.094C197.75 143.17 198.242 143.219 198.732 143.242L200.977 143.37C201.879 143.406 202.76 143.52 203.622 143.711C204.491 143.9 205.291 144.195 206.023 144.596C206.762 144.995 207.387 145.528 207.9 146.194C208.412 146.86 208.762 147.687 208.951 148.677C209.206 150.017 209.088 151.262 208.597 152.412C208.105 153.554 207.266 154.535 206.08 155.354C204.9 156.165 203.395 156.744 201.564 157.093C199.785 157.431 198.189 157.45 196.774 157.148C195.367 156.845 194.194 156.236 193.257 155.319C192.326 154.401 191.687 153.189 191.338 151.682L195.413 150.906C195.624 151.691 195.996 152.307 196.528 152.753C197.06 153.199 197.697 153.487 198.439 153.616C199.188 153.743 199.994 153.725 200.857 153.56C201.758 153.389 202.521 153.105 203.147 152.708C203.78 152.303 204.243 151.821 204.538 151.264C204.832 150.699 204.92 150.088 204.803 149.432C204.682 148.838 204.414 148.38 203.998 148.058C203.58 147.729 203.038 147.493 202.371 147.35C201.709 147.198 200.95 147.096 200.091 147.043L197.363 146.868C195.388 146.743 193.76 146.293 192.479 145.519C191.204 144.736 190.411 143.526 190.099 141.888C189.843 140.541 189.983 139.292 190.52 138.141C191.064 136.989 191.916 136.013 193.075 135.215C194.232 134.408 195.611 133.853 197.211 133.548C198.834 133.24 200.309 133.252 201.637 133.585C202.971 133.91 204.083 134.504 204.972 135.368C205.86 136.225 206.438 137.295 206.705 138.578L202.72 139.336ZM216.432 153.905L212.011 154.746L215.71 130.352L220.822 129.379L233.233 150.708L228.812 151.549L219.248 134.537L219.069 134.571L216.432 153.905ZM214.871 144.913L226.928 142.619L227.561 145.946L215.504 148.24L214.871 144.913ZM216.285 127.906L217.815 122.329L221.767 121.577L219.311 127.33L216.285 127.906ZM236.244 150.135L231.894 127.273L240.467 125.641C242.224 125.307 243.755 125.332 245.062 125.715C246.376 126.098 247.443 126.781 248.263 127.767C249.089 128.743 249.641 129.961 249.918 131.419C250.197 132.886 250.127 134.218 249.707 135.416C249.293 136.605 248.54 137.608 247.446 138.426C246.351 139.236 244.925 139.808 243.169 140.142L237.062 141.304L236.408 137.865L241.956 136.81C242.983 136.614 243.797 136.313 244.398 135.905C244.998 135.491 245.402 134.978 245.61 134.368C245.823 133.749 245.853 133.034 245.699 132.222C245.544 131.411 245.253 130.75 244.824 130.237C244.393 129.718 243.822 129.371 243.111 129.198C242.398 129.018 241.524 129.026 240.489 129.223L236.694 129.945L240.386 149.347L236.244 150.135ZM246.084 137.528L253.715 146.811L249.093 147.69L241.563 138.388L246.084 137.528ZM256.481 122.594L260.831 145.457L256.69 146.245L252.339 123.382L256.481 122.594ZM283.57 129.285C284.039 131.748 283.979 133.946 283.39 135.878C282.807 137.801 281.812 139.378 280.404 140.61C279.003 141.841 277.302 142.646 275.3 143.027C273.298 143.408 271.416 143.284 269.654 142.656C267.897 142.018 266.392 140.913 265.136 139.339C263.886 137.757 263.028 135.738 262.561 133.282C262.092 130.819 262.149 128.626 262.731 126.703C263.32 124.771 264.315 123.189 265.715 121.959C267.124 120.727 268.829 119.921 270.831 119.54C272.832 119.159 274.711 119.283 276.466 119.913C278.228 120.542 279.734 121.647 280.983 123.229C282.239 124.803 283.101 126.821 283.57 129.285ZM279.406 130.077C279.076 128.343 278.526 126.932 277.756 125.845C276.992 124.749 276.076 123.986 275.007 123.557C273.937 123.12 272.781 123.02 271.538 123.257C270.295 123.493 269.256 124.011 268.421 124.81C267.585 125.602 267.009 126.648 266.693 127.95C266.384 129.243 266.394 130.756 266.724 132.49C267.054 134.224 267.601 135.639 268.365 136.735C269.135 137.823 270.055 138.585 271.125 139.021C272.194 139.45 273.35 139.546 274.593 139.31C275.835 139.073 276.875 138.559 277.712 137.768C278.547 136.969 279.119 135.923 279.428 134.63C279.743 133.329 279.736 131.811 279.406 130.077Z" fill="white"/>
</g>
<path d="M74.58 123.261C48.5134 117.438 23.4037 107.95 4.97104e-06 95.0806C4.97104e-06 95.0306 -0.0499983 91.3906 9.88 95.7106C9.88 95.6606 18.88 83.8206 33.21 91.7106C42.13 96.5606 46.78 107.771 46.78 107.791C46.78 107.811 53.61 102.371 59.14 105.401C64.67 108.431 67.97 117.401 67.97 117.401C67.97 117.401 73.71 120.931 74.58 123.261Z" fill="white"/>
<defs>
<filter id="filter0_d_60_571" x="58.6125" y="75.6113" width="231.198" height="113.552" filterUnits="userSpaceOnUse" color-interpolation-filters="sRGB">
<feFlood flood-opacity="0" result="BackgroundImageFix"/>
<feColorMatrix in="SourceAlpha" type="matrix" values="0 0 0 0 0 0 0 0 0 0 0 0 0 0 0 0 0 0 127 0" result="hardAlpha"/>
<feOffset dy="4"/>
<feGaussianBlur stdDeviation="2"/>
<feComposite in2="hardAlpha" operator="out"/>
<feColorMatrix type="matrix" values="0 0 0 0 0 0 0 0 0 0 0 0 0 0 0 0 0 0 0.25 0"/>
<feBlend mode="normal" in2="BackgroundImageFix" result="effect1_dropShadow_60_571"/>
<feBlend mode="normal" in="SourceGraphic" in2="effect1_dropShadow_60_571" result="shape"/>
</filter>
</defs>
</svg>
