<svg width="219" height="588" viewBox="0 0 219 588" fill="none" xmlns="http://www.w3.org/2000/svg">
<path d="M48.5827 231.504C47.8928 231.024 47.1516 230.739 46.395 230.661C44.2502 230.435 42.2457 228.962 40.6453 226.759C40.5793 226.668 40.5133 226.58 40.4473 226.495C39.4261 225.186 38.3553 223.129 38.1375 221.123C37.3126 213.668 36.7055 203.397 36.7484 198H36.2534C36.2534 198 36.199 211.118 34.6036 222.213C34.5202 222.76 34.3516 223.269 34.1121 223.696C33.8726 224.124 33.5692 224.457 33.2276 224.667C31.6657 225.675 30.371 227.454 29.5517 229.72C29.32 230.35 28.968 230.859 28.5425 231.177C28.117 231.495 27.6381 231.609 27.1694 231.502C25.7307 231.197 24.2708 231.756 23.0965 233.06C21.9223 234.364 21.1254 236.313 20.8735 238.495L52.1744 238.521C51.9784 237.003 51.5511 235.577 50.9272 234.359C50.3033 233.14 49.5001 232.162 48.5827 231.504Z" fill="#D9D9D9"/>
<path d="M14 250.007C14.7753 241.132 22.2059 234.322 31.1145 234.322H42.0416C50.922 234.322 58.308 241.153 59 250.007V250.007H14V250.007Z" fill="#D9D9D9"/>
<path d="M8 259.087C8.99309 251.53 15.4346 245.879 23.0572 245.879H50.1481C57.7316 245.879 64.1145 251.556 65 259.087V259.087H8V259.087Z" fill="#D9D9D9"/>
<path d="M1 268.985C1 260.713 9.09455 254.96 17.3663 254.96H55.9039C64.0689 254.96 71.6138 260.829 71.9998 268.985V268.985C72.1438 272.028 1 272.557 1 268.985V268.985Z" fill="#D9D9D9"/>
<path d="M71.6886 268.899C71.6886 276.051 64.796 280.529 57.6436 280.529H14.4436C7.43062 280.529 0.782581 275.911 0.688654 268.899V268.899C0.616642 263.522 71.6886 262.974 71.6886 268.899V268.899Z" fill="#D9D9D9"/>
<path d="M67 277.248C65.9764 286.185 58.4118 292.933 49.4164 292.933H25.3741C16.4178 292.933 8.91307 286.158 8 277.248V277.248H67V277.248Z" fill="#D9D9D9"/>
<path d="M59.3232 288.068C58.5431 294.697 52.9242 299.694 46.2488 299.694H27.3049C20.6594 299.694 15.0862 294.677 14.3903 288.068V288.068H59.3232V288.068Z" fill="#D9D9D9"/>
<path d="M51.7588 296.797C51.2105 302.787 47.7303 308.585 41.8443 309.823C38.7437 310.475 35.8297 310.437 32.6526 309.729C26.8204 308.429 23.286 302.752 22.7983 296.797V296.797H51.7588V296.797Z" fill="#D9D9D9"/>
<path d="M44.1587 304.119C43.9639 309.295 42.7111 316.437 37.5353 316.633V316.633C32.0376 316.84 30.5523 309.09 30.3671 303.592L30.2719 300.765H44.285L44.1587 304.119Z" fill="#D9D9D9"/>
<path d="M189.583 231.504C188.893 231.024 188.152 230.739 187.395 230.661C185.25 230.435 183.246 228.962 181.645 226.759C181.579 226.668 181.513 226.58 181.447 226.495C180.426 225.186 179.355 223.129 179.138 221.123C178.313 213.668 177.705 203.397 177.748 198H177.253C177.253 198 177.199 211.118 175.604 222.213C175.52 222.76 175.352 223.269 175.112 223.696C174.873 224.124 174.569 224.457 174.228 224.667C172.666 225.675 171.371 227.454 170.552 229.72C170.32 230.35 169.968 230.859 169.542 231.177C169.117 231.495 168.638 231.609 168.169 231.502C166.731 231.197 165.271 231.756 164.097 233.06C162.922 234.364 162.125 236.313 161.874 238.495L193.174 238.521C192.978 237.003 192.551 235.577 191.927 234.359C191.303 233.14 190.5 232.162 189.583 231.504Z" fill="#D9D9D9"/>
<path d="M155 250.007C155.775 241.132 163.206 234.322 172.114 234.322H183.042C191.922 234.322 199.308 241.153 200 250.007V250.007H155V250.007Z" fill="#D9D9D9"/>
<path d="M149 259.087C149.993 251.53 156.435 245.879 164.057 245.879H191.148C198.732 245.879 205.114 251.556 206 259.087V259.087H149V259.087Z" fill="#D9D9D9"/>
<path d="M142 268.985C142 260.713 150.095 254.96 158.366 254.96H196.904C205.069 254.96 212.614 260.829 213 268.985V268.985C213.144 272.028 142 272.557 142 268.985V268.985Z" fill="#D9D9D9"/>
<path d="M212.689 268.899C212.689 276.051 205.796 280.529 198.644 280.529H155.444C148.431 280.529 141.783 275.911 141.689 268.899V268.899C141.617 263.522 212.689 262.974 212.689 268.899V268.899Z" fill="#D9D9D9"/>
<path d="M208 277.248C206.976 286.185 199.412 292.933 190.416 292.933H166.374C157.418 292.933 149.913 286.158 149 277.248V277.248H208V277.248Z" fill="#D9D9D9"/>
<path d="M200.323 288.068C199.543 294.697 193.924 299.694 187.249 299.694H168.305C161.659 299.694 156.086 294.677 155.39 288.068V288.068H200.323V288.068Z" fill="#D9D9D9"/>
<path d="M192.759 296.797C192.21 302.787 188.73 308.585 182.844 309.823C179.744 310.475 176.83 310.437 173.653 309.729C167.82 308.429 164.286 302.752 163.798 296.797V296.797H192.759V296.797Z" fill="#D9D9D9"/>
<path d="M185.159 304.119C184.964 309.295 183.711 316.437 178.535 316.633V316.633C173.038 316.84 171.552 309.09 171.367 303.592L171.272 300.765H185.285L185.159 304.119Z" fill="#D9D9D9"/>
<path d="M73.9226 197.661H28.0173V72.5928C28.0173 67.718 30.4277 63.0429 34.7182 59.596C39.0087 56.149 44.8279 54.2125 50.8956 54.2125C56.9633 54.2125 62.7825 56.149 67.073 59.596C71.3635 63.0429 73.7739 67.718 73.7739 72.5928L73.9226 197.661Z" fill="#FF725E"/>
<path d="M73.9226 197.661H28.0173V72.5928C28.0173 67.718 30.4277 63.0429 34.7182 59.596C39.0087 56.149 44.8279 54.2125 50.8956 54.2125C56.9633 54.2125 62.7825 56.149 67.073 59.596C71.3635 63.0429 73.7739 67.718 73.7739 72.5928L73.9226 197.661Z" fill="#455A64"/>
<path d="M73.9227 70.5893C73.9227 70.7179 63.6847 70.8282 51.0444 70.8282C38.4042 70.8282 28.1661 70.7179 28.1661 70.5893C28.1661 70.4606 38.4614 70.3503 51.0444 70.3503C63.6275 70.3503 73.9227 70.4514 73.9227 70.5893Z" fill="#263238"/>
<path d="M73.9227 102.516C73.9227 102.654 63.6847 102.755 51.0444 102.755C38.4042 102.755 28.1661 102.654 28.1661 102.516C28.1661 102.378 38.4614 102.277 51.0444 102.277C63.6275 102.277 73.9227 102.387 73.9227 102.516Z" fill="#263238"/>
<path d="M61.1908 102.516C61.0307 102.516 60.8934 95.3659 60.8934 86.5525C60.8934 77.7392 61.0307 70.5893 61.1908 70.5893C61.351 70.5893 61.4883 77.73 61.4883 86.5525C61.4883 95.375 61.3739 102.516 61.1908 102.516Z" fill="#263238"/>
<path d="M55.8259 79.8805C55.8259 80.1368 55.7313 80.3873 55.5541 80.6004C55.3769 80.8135 55.125 80.9796 54.8303 81.0777C54.5355 81.1758 54.2112 81.2014 53.8984 81.1514C53.5855 81.1014 53.2981 80.978 53.0725 80.7968C52.8469 80.6156 52.6933 80.3847 52.6311 80.1333C52.5689 79.882 52.6008 79.6214 52.7229 79.3846C52.845 79.1479 53.0517 78.9455 53.3169 78.8031C53.5822 78.6607 53.894 78.5847 54.213 78.5847C54.6408 78.5847 55.051 78.7212 55.3535 78.9642C55.656 79.2073 55.8259 79.5369 55.8259 79.8805Z" fill="#263238"/>
<path d="M55.8259 90.9179C55.8259 91.1742 55.7313 91.4247 55.5541 91.6378C55.3769 91.8509 55.125 92.017 54.8303 92.115C54.5355 92.2131 54.2112 92.2388 53.8984 92.1888C53.5855 92.1388 53.2981 92.0154 53.0725 91.8341C52.8469 91.6529 52.6933 91.422 52.6311 91.1707C52.5689 90.9193 52.6008 90.6588 52.7229 90.422C52.845 90.1852 53.0517 89.9828 53.3169 89.8405C53.5822 89.6981 53.894 89.6221 54.213 89.6221C54.6408 89.6221 55.051 89.7586 55.3535 90.0016C55.656 90.2446 55.8259 90.5742 55.8259 90.9179Z" fill="#263238"/>
<path d="M73.9227 167.49C73.9227 167.619 63.6847 167.729 51.0444 167.729C38.4042 167.729 28.1661 167.619 28.1661 167.49C28.1661 167.361 38.4614 167.251 51.0444 167.251C63.6275 167.251 73.9227 167.334 73.9227 167.49Z" fill="#263238"/>
<path d="M61.1908 167.49C61.0307 167.49 60.8934 160.34 60.8934 151.527C60.8934 142.713 61.0307 135.563 61.1908 135.563C61.351 135.563 61.4883 142.704 61.4883 151.527C61.4883 160.349 61.3739 167.49 61.1908 167.49Z" fill="#263238"/>
<path d="M54.213 146.114C55.1038 146.114 55.8259 145.534 55.8259 144.818C55.8259 144.102 55.1038 143.522 54.213 143.522C53.3222 143.522 52.6001 144.102 52.6001 144.818C52.6001 145.534 53.3222 146.114 54.213 146.114Z" fill="#263238"/>
<path d="M54.213 157.16C55.1038 157.16 55.8259 156.58 55.8259 155.864C55.8259 155.149 55.1038 154.569 54.213 154.569C53.3222 154.569 52.6001 155.149 52.6001 155.864C52.6001 156.58 53.3222 157.16 54.213 157.16Z" fill="#263238"/>
<path d="M28.2004 135.325C28.2004 135.196 38.4957 135.086 51.0787 135.086C63.6618 135.086 73.957 135.196 73.957 135.325C73.957 135.453 63.719 135.563 51.0787 135.563C38.4385 135.563 28.2004 135.407 28.2004 135.325Z" fill="#263238"/>
<path d="M40.9094 135.325C40.7492 135.325 40.6119 128.175 40.6119 119.361C40.6119 110.548 40.7492 103.398 40.9094 103.398C41.0695 103.398 41.2068 110.539 41.2068 119.361C41.2068 128.184 41.081 135.325 40.9094 135.325Z" fill="#263238"/>
<path d="M46.3201 112.643C46.3224 112.899 46.4189 113.149 46.5975 113.361C46.7761 113.573 47.0288 113.737 47.3237 113.834C47.6186 113.931 47.9425 113.955 48.2547 113.904C48.5668 113.853 48.8531 113.729 49.0775 113.547C49.302 113.366 49.4544 113.135 49.5157 112.884C49.5771 112.632 49.5445 112.372 49.422 112.136C49.2996 111.9 49.0929 111.698 48.8279 111.556C48.5629 111.414 48.2515 111.338 47.933 111.338C47.7203 111.338 47.5096 111.372 47.3131 111.438C47.1167 111.504 46.9384 111.6 46.7885 111.721C46.6385 111.842 46.52 111.986 46.4396 112.145C46.3592 112.303 46.3186 112.472 46.3201 112.643Z" fill="#263238"/>
<path d="M46.3201 123.681C46.3201 123.937 46.4147 124.188 46.5919 124.401C46.7691 124.614 47.021 124.78 47.3158 124.878C47.6105 124.976 47.9348 125.002 48.2476 124.952C48.5605 124.902 48.8479 124.778 49.0735 124.597C49.2991 124.416 49.4527 124.185 49.5149 123.933C49.5772 123.682 49.5452 123.422 49.4231 123.185C49.3011 122.948 49.0943 122.746 48.8291 122.603C48.5638 122.461 48.252 122.385 47.933 122.385C47.5052 122.385 47.095 122.521 46.7925 122.764C46.49 123.007 46.3201 123.337 46.3201 123.681Z" fill="#263238"/>
<path d="M31.0717 73.7508C31.0272 73.507 31.0272 73.2593 31.0717 73.0156C31.1229 72.3468 31.2222 71.6809 31.3691 71.0213C31.8283 68.8328 32.6798 66.7092 33.8971 64.7169C34.5844 63.6253 35.4043 62.5909 36.3451 61.629C37.1279 60.8498 38.0096 60.1383 38.9761 59.5061C39.3426 59.2666 39.7244 59.0427 40.12 58.8352C40.4109 58.6651 40.7212 58.5174 41.0466 58.3941C41.3047 58.2603 41.5861 58.1581 41.8817 58.0908C41.9388 58.1735 40.7949 58.6698 39.2392 59.7726C38.3316 60.4202 37.5006 61.134 36.7569 61.9047C35.8691 62.8601 35.0846 63.8747 34.4119 64.9375C33.2302 66.8943 32.3468 68.9587 31.7809 71.0857C31.3348 72.7123 31.1746 73.7508 31.0717 73.7508Z" fill="#FAFAFA"/>
<path d="M49.6373 56.5192C49.6373 56.6479 48.9509 56.8501 48.0358 56.9787C47.1207 57.1074 46.3657 57.0982 46.3428 56.9787C46.3199 56.8593 47.0292 56.6387 47.9443 56.51C48.8594 56.3814 49.6144 56.3814 49.6373 56.5192Z" fill="#FAFAFA"/>
<path d="M147.659 197.661H193.519V72.5928C193.519 70.1752 192.925 67.7814 191.772 65.5484C190.619 63.3154 188.928 61.2871 186.798 59.5798C184.667 57.8724 182.138 56.5195 179.356 55.5985C176.574 54.6775 173.593 54.2065 170.583 54.2126C164.516 54.2126 158.697 56.1491 154.406 59.596C150.116 63.043 147.705 67.7181 147.705 72.5928L147.659 197.661Z" fill="#FF725E"/>
<path d="M147.659 197.661H193.519V72.5928C193.519 70.1752 192.925 67.7814 191.772 65.5484C190.619 63.3154 188.928 61.2871 186.798 59.5798C184.667 57.8724 182.138 56.5195 179.356 55.5985C176.574 54.6775 173.593 54.2065 170.583 54.2126C164.516 54.2126 158.697 56.1491 154.406 59.596C150.116 63.043 147.705 67.7181 147.705 72.5928L147.659 197.661Z" fill="#455A64"/>
<path d="M147.659 70.5893C147.659 70.4514 157.955 70.3503 170.538 70.3503C183.121 70.3503 193.416 70.4514 193.416 70.5893C193.416 70.7271 183.178 70.8282 170.538 70.8282C157.897 70.8282 147.659 70.7179 147.659 70.5893Z" fill="#263238"/>
<path d="M147.659 102.516C147.659 102.387 157.955 102.277 170.538 102.277C183.121 102.277 193.416 102.387 193.416 102.516C193.416 102.644 183.178 102.755 170.538 102.755C157.897 102.755 147.659 102.654 147.659 102.516Z" fill="#263238"/>
<path d="M160.368 102.516C160.208 102.516 160.071 95.3659 160.071 86.5525C160.071 77.7392 160.208 70.5893 160.368 70.5893C160.528 70.5893 160.666 77.73 160.666 86.5525C160.666 95.375 160.54 102.516 160.368 102.516Z" fill="#263238"/>
<path d="M165.745 79.8805C165.745 80.1368 165.839 80.3873 166.017 80.6004C166.194 80.8135 166.446 80.9796 166.74 81.0777C167.035 81.1758 167.359 81.2014 167.672 81.1514C167.985 81.1014 168.273 80.978 168.498 80.7968C168.724 80.6156 168.877 80.3847 168.94 80.1333C169.002 79.882 168.97 79.6214 168.848 79.3846C168.726 79.1479 168.519 78.9455 168.254 78.8031C167.989 78.6607 167.677 78.5847 167.358 78.5847C166.93 78.5847 166.52 78.7212 166.217 78.9642C165.915 79.2073 165.745 79.5369 165.745 79.8805Z" fill="#263238"/>
<path d="M165.745 90.9179C165.745 91.1742 165.839 91.4247 166.017 91.6378C166.194 91.8509 166.446 92.017 166.74 92.115C167.035 92.2131 167.359 92.2388 167.672 92.1888C167.985 92.1388 168.273 92.0154 168.498 91.8341C168.724 91.6529 168.877 91.422 168.94 91.1707C169.002 90.9193 168.97 90.6588 168.848 90.422C168.726 90.1852 168.519 89.9828 168.254 89.8405C167.989 89.6981 167.677 89.6221 167.358 89.6221C166.93 89.6221 166.52 89.7586 166.217 90.0016C165.915 90.2446 165.745 90.5742 165.745 90.9179Z" fill="#263238"/>
<path d="M147.659 167.49C147.659 167.361 157.955 167.251 170.538 167.251C183.121 167.251 193.416 167.361 193.416 167.49C193.416 167.619 183.178 167.729 170.538 167.729C157.897 167.729 147.659 167.591 147.659 167.49Z" fill="#263238"/>
<path d="M160.368 167.49C160.208 167.49 160.071 160.34 160.071 151.527C160.071 142.713 160.208 135.563 160.368 135.563C160.528 135.563 160.711 142.677 160.711 151.499C160.711 160.322 160.54 167.49 160.368 167.49Z" fill="#263238"/>
<path d="M167.358 146.114C168.248 146.114 168.971 145.534 168.971 144.818C168.971 144.102 168.248 143.522 167.358 143.522C166.467 143.522 165.745 144.102 165.745 144.818C165.745 145.534 166.467 146.114 167.358 146.114Z" fill="#263238"/>
<path d="M167.358 157.16C168.248 157.16 168.971 156.58 168.971 155.864C168.971 155.149 168.248 154.569 167.358 154.569C166.467 154.569 165.745 155.149 165.745 155.864C165.745 156.58 166.467 157.16 167.358 157.16Z" fill="#263238"/>
<path d="M193.382 135.325C193.382 135.453 183.144 135.563 170.503 135.563C157.863 135.563 147.625 135.453 147.625 135.325C147.625 135.196 157.92 135.086 170.503 135.086C183.086 135.086 193.382 135.15 193.382 135.325Z" fill="#263238"/>
<path d="M180.661 135.325C180.501 135.325 180.364 128.175 180.364 119.361C180.364 110.548 180.501 103.398 180.661 103.398C180.821 103.398 180.959 110.539 180.959 119.361C180.959 128.184 180.833 135.325 180.661 135.325Z" fill="#263238"/>
<path d="M175.285 112.643C175.283 112.899 175.186 113.149 175.008 113.361C174.829 113.573 174.576 113.737 174.281 113.834C173.986 113.931 173.662 113.955 173.35 113.904C173.038 113.853 172.752 113.729 172.527 113.547C172.303 113.366 172.151 113.135 172.089 112.884C172.028 112.632 172.061 112.372 172.183 112.136C172.305 111.9 172.512 111.698 172.777 111.556C173.042 111.414 173.353 111.338 173.672 111.338C173.885 111.338 174.095 111.372 174.292 111.438C174.488 111.504 174.667 111.6 174.817 111.721C174.966 111.842 175.085 111.986 175.165 112.145C175.246 112.303 175.286 112.472 175.285 112.643Z" fill="#263238"/>
<path d="M175.285 123.681C175.285 123.937 175.19 124.188 175.013 124.401C174.836 124.614 174.584 124.78 174.289 124.878C173.995 124.976 173.67 125.002 173.357 124.952C173.044 124.902 172.757 124.778 172.531 124.597C172.306 124.416 172.152 124.185 172.09 123.933C172.028 123.682 172.06 123.422 172.182 123.185C172.304 122.948 172.511 122.746 172.776 122.603C173.041 122.461 173.353 122.385 173.672 122.385C173.884 122.385 174.094 122.418 174.289 122.484C174.485 122.549 174.663 122.644 174.813 122.764C174.962 122.885 175.081 123.028 175.162 123.185C175.243 123.342 175.285 123.511 175.285 123.681Z" fill="#263238"/>
<path d="M190.453 73.7508C190.362 73.7508 190.19 72.7215 189.744 71.0857C189.173 68.9585 188.286 66.8943 187.102 64.9375C186.437 63.8709 185.652 62.8557 184.757 61.9047C184.017 61.1343 183.189 60.4205 182.286 59.7726C180.73 58.6698 179.575 58.1735 179.632 58.0908C179.932 58.1549 180.218 58.2573 180.478 58.3941C180.804 58.5174 181.114 58.6651 181.405 58.8352C181.8 59.0427 182.182 59.2666 182.549 59.5061C183.515 60.1383 184.397 60.8498 185.18 61.629C186.121 62.5909 186.941 63.6253 187.628 64.7169C188.838 66.7109 189.685 68.834 190.144 71.0213C190.294 71.6809 190.397 72.3467 190.453 73.0156C190.51 73.2585 190.51 73.5078 190.453 73.7508Z" fill="white"/>
<path d="M171.933 56.5193C171.933 56.3814 172.723 56.3814 173.638 56.5193C174.553 56.6571 175.262 56.8501 175.239 56.988C175.216 57.1258 174.45 57.1166 173.535 56.988C172.62 56.8593 171.91 56.6479 171.933 56.5193Z" fill="white"/>
<path d="M97.2243 4.96267L81.1408 29.3533C76.3976 36.5371 73.9192 44.5458 73.9227 52.6778V222.373L102.12 236.848H121.67L147.98 222.373V53.4222C147.957 45.6225 145.657 37.9358 141.265 30.9799L124.896 4.82482C123.986 3.37295 122.591 2.15288 120.868 1.30087C119.145 0.448863 117.161 -0.00152863 115.138 3.89799e-06H107.039C104.988 0.00365702 102.98 0.471032 101.244 1.34866C99.5086 2.22629 98.1155 3.47873 97.2243 4.96267Z" fill="#FF725E"/>
<path d="M73.9227 208.845H3C3 208.845 2.99999 183.729 32.6617 165.854C62.3234 147.979 73.9341 107.552 73.9341 107.552L73.9227 208.845Z" fill="#FF725E"/>
<path d="M147.957 208.845H218.879C218.879 208.845 218.879 183.729 189.218 165.854C159.556 147.979 147.957 107.552 147.957 107.552V208.845Z" fill="#FF725E"/>
<path opacity="0.2" d="M73.9227 208.845H3C3 208.845 2.99999 183.729 32.6617 165.854C62.3234 147.979 73.9341 107.552 73.9341 107.552L73.9227 208.845Z" fill="black"/>
<path opacity="0.2" d="M147.957 208.845H218.879C218.879 208.845 218.879 183.729 189.218 165.854C159.556 147.979 147.957 107.552 147.957 107.552V208.845Z" fill="black"/>
<path d="M79.139 120.152C78.9788 120.152 78.8416 107.626 78.8416 92.1678C78.8416 76.71 78.9788 64.1838 79.139 64.1838C79.2991 64.1838 79.4936 76.71 79.4936 92.131C79.4936 107.552 79.2991 120.152 79.139 120.152Z" fill="#FAFAFA"/>
<path d="M79.9168 47.5865C80.2143 48.4125 80.3152 49.2762 80.2142 50.1322C80.3152 50.9882 80.2143 51.8519 79.9168 52.6779C79.626 51.8509 79.5253 50.9882 79.6193 50.1322C79.5253 49.2762 79.626 48.4136 79.9168 47.5865Z" fill="#FAFAFA"/>
<path d="M102.807 4.25498C102.955 4.31012 98.1051 12.1309 91.9851 21.7162C85.8652 31.3015 80.7862 39.0304 80.6375 38.9661C80.4888 38.9017 85.339 31.0901 91.4589 21.5048C97.5789 11.9195 102.658 4.19065 102.807 4.25498Z" fill="#FAFAFA"/>
<path d="M66.2471 134.047C66.262 134.12 66.262 134.195 66.2471 134.268C66.2471 134.442 66.167 134.654 66.1098 134.92L65.8581 135.968C65.7529 136.45 65.6077 136.926 65.4234 137.392C64.417 140.403 62.933 143.297 61.0079 146.003C58.1334 150.004 54.7067 153.731 50.7928 157.114C46.4345 160.974 41.2297 164.88 35.7274 168.924C30.5473 172.704 25.8423 176.884 21.6802 181.404C19.8828 183.384 18.2179 185.439 16.6927 187.561C15.3836 189.422 14.1961 191.336 13.1351 193.296C11.5997 196.134 10.3861 199.077 9.50892 202.091C9.16574 203.148 9.02847 203.993 8.85688 204.554L8.6853 205.197C8.67691 205.274 8.64969 205.349 8.60522 205.417C8.59253 205.344 8.59253 205.27 8.60522 205.197L8.71961 204.544C8.84544 203.975 8.9484 203.12 9.25726 202.045C10.0456 199.001 11.1947 196.025 12.689 193.158C13.7278 191.178 14.9002 189.245 16.2008 187.368C17.7182 185.223 19.3793 183.146 21.1768 181.146C25.3426 176.587 30.0636 172.372 35.2699 168.565C40.7721 164.531 45.9769 160.643 50.3352 156.811C54.2586 153.465 57.7112 149.782 60.6304 145.829C62.5731 143.159 64.1094 140.311 65.2061 137.346C65.3966 136.885 65.557 136.415 65.6865 135.94C65.8009 135.536 65.9039 135.196 65.984 134.902C66.064 134.608 66.1327 134.433 66.1899 134.258C66.1948 134.186 66.2141 134.115 66.2471 134.047Z" fill="#FAFAFA"/>
<path d="M117.048 58.2194H104.82C101.264 58.2194 97.8541 57.0846 95.3398 55.0647C92.8256 53.0448 91.4131 50.3052 91.4131 47.4486C91.4131 44.592 92.8256 41.8524 95.3398 39.8324C97.8541 37.8125 101.264 36.6777 104.82 36.6777H117.048C118.809 36.6765 120.553 36.9543 122.181 37.4952C123.808 38.036 125.286 38.8293 126.532 39.8297C127.777 40.8301 128.764 42.018 129.437 43.3253C130.111 44.6326 130.456 46.0338 130.455 47.4486C130.455 50.3052 129.042 53.0448 126.528 55.0647C124.014 57.0846 120.604 58.2194 117.048 58.2194Z" fill="white"/>
<path opacity="0.4" d="M73.9227 222.373L102.12 236.839H121.67L147.957 222.373V216.409H73.9227V222.373Z" fill="black"/>
<path d="M110 228.208H112.5L118 558.208H108L110 228.208Z" fill="#D9D9D9"/>
<path d="M119.522 228.007L125.174 227.692L154.045 583.973L131.437 585.231L119.522 228.007Z" fill="#D9D9D9"/>
<path d="M94.6498 227.895L99.8108 228.182L94.6439 587.358L73.9999 586.208L94.6498 227.895Z" fill="#D9D9D9"/>
</svg>
