<svg width="229" height="537" viewBox="0 0 229 537" fill="none" xmlns="http://www.w3.org/2000/svg">
<path d="M77.9227 197.661H32.0174V72.5928C32.0174 67.718 34.4278 63.0429 38.7183 59.596C43.0088 56.149 48.828 54.2125 54.8957 54.2125C60.9634 54.2125 66.7826 56.149 71.0731 59.596C75.3636 63.0429 77.774 67.718 77.774 72.5928L77.9227 197.661Z" fill="#FF725E"/>
<path d="M77.9227 197.661H32.0174V72.5928C32.0174 67.718 34.4278 63.0429 38.7183 59.596C43.0088 56.149 48.828 54.2125 54.8957 54.2125C60.9634 54.2125 66.7826 56.149 71.0731 59.596C75.3636 63.0429 77.774 67.718 77.774 72.5928L77.9227 197.661Z" fill="#455A64"/>
<path d="M77.9227 70.5893C77.9227 70.7179 67.6847 70.8282 55.0444 70.8282C42.4042 70.8282 32.1661 70.7179 32.1661 70.5893C32.1661 70.4606 42.4614 70.3503 55.0444 70.3503C67.6275 70.3503 77.9227 70.4514 77.9227 70.5893Z" fill="#263238"/>
<path d="M77.9227 102.516C77.9227 102.654 67.6847 102.755 55.0444 102.755C42.4042 102.755 32.1661 102.654 32.1661 102.516C32.1661 102.378 42.4614 102.277 55.0444 102.277C67.6275 102.277 77.9227 102.387 77.9227 102.516Z" fill="#263238"/>
<path d="M65.1909 102.516C65.0308 102.516 64.8935 95.3659 64.8935 86.5525C64.8935 77.7392 65.0308 70.5893 65.1909 70.5893C65.3511 70.5893 65.4883 77.73 65.4883 86.5525C65.4883 95.375 65.3739 102.516 65.1909 102.516Z" fill="#263238"/>
<path d="M59.8259 79.8805C59.8259 80.1368 59.7313 80.3873 59.5541 80.6004C59.3769 80.8135 59.125 80.9796 58.8303 81.0777C58.5355 81.1758 58.2112 81.2014 57.8984 81.1514C57.5855 81.1014 57.2981 80.978 57.0725 80.7968C56.8469 80.6156 56.6933 80.3847 56.6311 80.1333C56.5689 79.882 56.6008 79.6214 56.7229 79.3846C56.845 79.1479 57.0517 78.9455 57.3169 78.8031C57.5822 78.6607 57.894 78.5847 58.213 78.5847C58.6408 78.5847 59.051 78.7212 59.3535 78.9642C59.656 79.2073 59.8259 79.5369 59.8259 79.8805Z" fill="#263238"/>
<path d="M59.8259 90.9179C59.8259 91.1742 59.7313 91.4247 59.5541 91.6378C59.3769 91.8509 59.125 92.017 58.8303 92.115C58.5355 92.2131 58.2112 92.2388 57.8984 92.1888C57.5855 92.1388 57.2981 92.0154 57.0725 91.8341C56.8469 91.6529 56.6933 91.422 56.6311 91.1707C56.5689 90.9193 56.6008 90.6588 56.7229 90.422C56.845 90.1852 57.0517 89.9828 57.3169 89.8405C57.5822 89.6981 57.894 89.6221 58.213 89.6221C58.6408 89.6221 59.051 89.7586 59.3535 90.0016C59.656 90.2446 59.8259 90.5742 59.8259 90.9179Z" fill="#263238"/>
<path d="M77.9227 167.49C77.9227 167.619 67.6847 167.729 55.0444 167.729C42.4042 167.729 32.1661 167.619 32.1661 167.49C32.1661 167.361 42.4614 167.251 55.0444 167.251C67.6275 167.251 77.9227 167.334 77.9227 167.49Z" fill="#263238"/>
<path d="M65.1909 167.49C65.0308 167.49 64.8935 160.34 64.8935 151.527C64.8935 142.713 65.0308 135.563 65.1909 135.563C65.3511 135.563 65.4883 142.704 65.4883 151.527C65.4883 160.349 65.3739 167.49 65.1909 167.49Z" fill="#263238"/>
<path d="M58.213 146.114C59.1038 146.114 59.8259 145.534 59.8259 144.818C59.8259 144.102 59.1038 143.522 58.213 143.522C57.3222 143.522 56.6001 144.102 56.6001 144.818C56.6001 145.534 57.3222 146.114 58.213 146.114Z" fill="#263238"/>
<path d="M58.213 157.16C59.1038 157.16 59.8259 156.58 59.8259 155.864C59.8259 155.149 59.1038 154.569 58.213 154.569C57.3222 154.569 56.6001 155.149 56.6001 155.864C56.6001 156.58 57.3222 157.16 58.213 157.16Z" fill="#263238"/>
<path d="M32.2004 135.325C32.2004 135.196 42.4957 135.086 55.0787 135.086C67.6618 135.086 77.957 135.196 77.957 135.325C77.957 135.453 67.719 135.563 55.0787 135.563C42.4385 135.563 32.2004 135.407 32.2004 135.325Z" fill="#263238"/>
<path d="M44.9093 135.325C44.7492 135.325 44.6119 128.175 44.6119 119.361C44.6119 110.548 44.7492 103.398 44.9093 103.398C45.0695 103.398 45.2067 110.539 45.2067 119.361C45.2067 128.184 45.0809 135.325 44.9093 135.325Z" fill="#263238"/>
<path d="M50.32 112.643C50.3223 112.899 50.4188 113.149 50.5974 113.361C50.776 113.573 51.0287 113.737 51.3236 113.834C51.6185 113.931 51.9425 113.955 52.2546 113.904C52.5667 113.853 52.853 113.729 53.0775 113.547C53.3019 113.366 53.4544 113.135 53.5157 112.884C53.577 112.632 53.5444 112.372 53.422 112.136C53.2996 111.9 53.0928 111.698 52.8279 111.556C52.5629 111.414 52.2515 111.338 51.933 111.338C51.7202 111.338 51.5095 111.372 51.3131 111.438C51.1166 111.504 50.9383 111.6 50.7884 111.721C50.6385 111.842 50.5199 111.986 50.4395 112.145C50.3591 112.303 50.3185 112.472 50.32 112.643Z" fill="#263238"/>
<path d="M50.32 123.681C50.32 123.937 50.4146 124.188 50.5918 124.401C50.7691 124.614 51.021 124.78 51.3157 124.878C51.6104 124.976 51.9347 125.002 52.2476 124.952C52.5605 124.902 52.8479 124.778 53.0734 124.597C53.299 124.416 53.4526 124.185 53.5149 123.933C53.5771 123.682 53.5452 123.422 53.4231 123.185C53.301 122.948 53.0943 122.746 52.829 122.603C52.5638 122.461 52.2519 122.385 51.9329 122.385C51.5052 122.385 51.0949 122.521 50.7924 122.764C50.4899 123.007 50.32 123.337 50.32 123.681Z" fill="#263238"/>
<path d="M35.0717 73.7508C35.0272 73.507 35.0272 73.2593 35.0717 73.0156C35.1229 72.3468 35.2222 71.6809 35.3691 71.0213C35.8283 68.8328 36.6798 66.7092 37.8971 64.7169C38.5844 63.6253 39.4043 62.5909 40.3451 61.629C41.1279 60.8498 42.0096 60.1383 42.9761 59.5061C43.3426 59.2666 43.7244 59.0427 44.12 58.8352C44.4109 58.6651 44.7212 58.5174 45.0466 58.3941C45.3047 58.2603 45.5861 58.1581 45.8817 58.0908C45.9388 58.1735 44.7949 58.6698 43.2392 59.7726C42.3316 60.4202 41.5006 61.134 40.7569 61.9047C39.8691 62.8601 39.0846 63.8747 38.4119 64.9375C37.2302 66.8943 36.3468 68.9587 35.7809 71.0857C35.3348 72.7123 35.1746 73.7508 35.0717 73.7508Z" fill="#FAFAFA"/>
<path d="M53.6373 56.5192C53.6373 56.6479 52.951 56.8501 52.0359 56.9787C51.1207 57.1074 50.3658 57.0982 50.3429 56.9787C50.32 56.8593 51.0292 56.6387 51.9444 56.51C52.8595 56.3814 53.6145 56.3814 53.6373 56.5192Z" fill="#FAFAFA"/>
<path d="M151.659 197.661H197.519V72.5928C197.519 70.1752 196.925 67.7814 195.772 65.5484C194.619 63.3154 192.928 61.2871 190.798 59.5798C188.667 57.8724 186.138 56.5195 183.356 55.5985C180.574 54.6775 177.593 54.2065 174.583 54.2126C168.516 54.2126 162.697 56.1491 158.406 59.596C154.116 63.043 151.705 67.7181 151.705 72.5928L151.659 197.661Z" fill="#FF725E"/>
<path d="M151.659 197.661H197.519V72.5928C197.519 70.1752 196.925 67.7814 195.772 65.5484C194.619 63.3154 192.928 61.2871 190.798 59.5798C188.667 57.8724 186.138 56.5195 183.356 55.5985C180.574 54.6775 177.593 54.2065 174.583 54.2126C168.516 54.2126 162.697 56.1491 158.406 59.596C154.116 63.043 151.705 67.7181 151.705 72.5928L151.659 197.661Z" fill="#455A64"/>
<path d="M151.659 70.5893C151.659 70.4514 161.955 70.3503 174.538 70.3503C187.121 70.3503 197.416 70.4514 197.416 70.5893C197.416 70.7271 187.178 70.8282 174.538 70.8282C161.897 70.8282 151.659 70.7179 151.659 70.5893Z" fill="#263238"/>
<path d="M151.659 102.516C151.659 102.387 161.955 102.277 174.538 102.277C187.121 102.277 197.416 102.387 197.416 102.516C197.416 102.644 187.178 102.755 174.538 102.755C161.897 102.755 151.659 102.654 151.659 102.516Z" fill="#263238"/>
<path d="M164.368 102.516C164.208 102.516 164.071 95.3659 164.071 86.5525C164.071 77.7392 164.208 70.5893 164.368 70.5893C164.528 70.5893 164.666 77.73 164.666 86.5525C164.666 95.375 164.54 102.516 164.368 102.516Z" fill="#263238"/>
<path d="M169.745 79.8805C169.745 80.1368 169.839 80.3873 170.017 80.6004C170.194 80.8135 170.446 80.9796 170.74 81.0777C171.035 81.1758 171.359 81.2014 171.672 81.1514C171.985 81.1014 172.273 80.978 172.498 80.7968C172.724 80.6156 172.877 80.3847 172.94 80.1333C173.002 79.882 172.97 79.6214 172.848 79.3846C172.726 79.1479 172.519 78.9455 172.254 78.8031C171.989 78.6607 171.677 78.5847 171.358 78.5847C170.93 78.5847 170.52 78.7212 170.217 78.9642C169.915 79.2073 169.745 79.5369 169.745 79.8805Z" fill="#263238"/>
<path d="M169.745 90.9179C169.745 91.1742 169.839 91.4247 170.017 91.6378C170.194 91.8509 170.446 92.017 170.74 92.115C171.035 92.2131 171.359 92.2388 171.672 92.1888C171.985 92.1388 172.273 92.0154 172.498 91.8341C172.724 91.6529 172.877 91.422 172.94 91.1707C173.002 90.9193 172.97 90.6588 172.848 90.422C172.726 90.1852 172.519 89.9828 172.254 89.8405C171.989 89.6981 171.677 89.6221 171.358 89.6221C170.93 89.6221 170.52 89.7586 170.217 90.0016C169.915 90.2446 169.745 90.5742 169.745 90.9179Z" fill="#263238"/>
<path d="M151.659 167.49C151.659 167.361 161.955 167.251 174.538 167.251C187.121 167.251 197.416 167.361 197.416 167.49C197.416 167.619 187.178 167.729 174.538 167.729C161.897 167.729 151.659 167.591 151.659 167.49Z" fill="#263238"/>
<path d="M164.368 167.49C164.208 167.49 164.071 160.34 164.071 151.527C164.071 142.713 164.208 135.563 164.368 135.563C164.528 135.563 164.711 142.677 164.711 151.499C164.711 160.322 164.54 167.49 164.368 167.49Z" fill="#263238"/>
<path d="M171.358 146.114C172.248 146.114 172.971 145.534 172.971 144.818C172.971 144.102 172.248 143.522 171.358 143.522C170.467 143.522 169.745 144.102 169.745 144.818C169.745 145.534 170.467 146.114 171.358 146.114Z" fill="#263238"/>
<path d="M171.358 157.16C172.248 157.16 172.971 156.58 172.971 155.864C172.971 155.149 172.248 154.569 171.358 154.569C170.467 154.569 169.745 155.149 169.745 155.864C169.745 156.58 170.467 157.16 171.358 157.16Z" fill="#263238"/>
<path d="M197.382 135.325C197.382 135.453 187.144 135.563 174.503 135.563C161.863 135.563 151.625 135.453 151.625 135.325C151.625 135.196 161.92 135.086 174.503 135.086C187.086 135.086 197.382 135.15 197.382 135.325Z" fill="#263238"/>
<path d="M184.661 135.325C184.501 135.325 184.364 128.175 184.364 119.361C184.364 110.548 184.501 103.398 184.661 103.398C184.821 103.398 184.959 110.539 184.959 119.361C184.959 128.184 184.833 135.325 184.661 135.325Z" fill="#263238"/>
<path d="M179.285 112.643C179.283 112.899 179.186 113.149 179.008 113.361C178.829 113.573 178.576 113.737 178.281 113.834C177.986 113.931 177.662 113.955 177.35 113.904C177.038 113.853 176.752 113.729 176.527 113.547C176.303 113.366 176.151 113.135 176.089 112.884C176.028 112.632 176.061 112.372 176.183 112.136C176.305 111.9 176.512 111.698 176.777 111.556C177.042 111.414 177.353 111.338 177.672 111.338C177.885 111.338 178.095 111.372 178.292 111.438C178.488 111.504 178.667 111.6 178.817 111.721C178.966 111.842 179.085 111.986 179.165 112.145C179.246 112.303 179.286 112.472 179.285 112.643Z" fill="#263238"/>
<path d="M179.285 123.681C179.285 123.937 179.19 124.188 179.013 124.401C178.836 124.614 178.584 124.78 178.289 124.878C177.995 124.976 177.67 125.002 177.357 124.952C177.044 124.902 176.757 124.778 176.531 124.597C176.306 124.416 176.152 124.185 176.09 123.933C176.028 123.682 176.06 123.422 176.182 123.185C176.304 122.948 176.511 122.746 176.776 122.603C177.041 122.461 177.353 122.385 177.672 122.385C177.884 122.385 178.094 122.418 178.289 122.484C178.485 122.549 178.663 122.644 178.813 122.764C178.962 122.885 179.081 123.028 179.162 123.185C179.243 123.342 179.285 123.511 179.285 123.681Z" fill="#263238"/>
<path d="M194.453 73.7508C194.362 73.7508 194.19 72.7215 193.744 71.0857C193.173 68.9585 192.286 66.8943 191.102 64.9375C190.437 63.8709 189.652 62.8557 188.757 61.9047C188.017 61.1343 187.189 60.4205 186.286 59.7726C184.73 58.6698 183.575 58.1735 183.632 58.0908C183.932 58.1549 184.218 58.2573 184.478 58.3941C184.804 58.5174 185.114 58.6651 185.405 58.8352C185.8 59.0427 186.182 59.2666 186.549 59.5061C187.515 60.1383 188.397 60.8498 189.18 61.629C190.121 62.5909 190.941 63.6253 191.628 64.7169C192.838 66.7109 193.685 68.834 194.144 71.0213C194.294 71.6809 194.397 72.3467 194.453 73.0156C194.51 73.2585 194.51 73.5078 194.453 73.7508Z" fill="white"/>
<path d="M175.933 56.5193C175.933 56.3814 176.723 56.3814 177.638 56.5193C178.553 56.6571 179.262 56.8501 179.239 56.988C179.216 57.1258 178.45 57.1166 177.535 56.988C176.62 56.8593 175.91 56.6479 175.933 56.5193Z" fill="white"/>
<path d="M101.224 4.96267L85.1408 29.3533C80.3976 36.5371 77.9192 44.5458 77.9227 52.6778V222.373L106.12 236.848H125.67L151.98 222.373V53.4222C151.957 45.6225 149.657 37.9358 145.265 30.9799L128.896 4.82482C127.986 3.37295 126.591 2.15288 124.868 1.30087C123.145 0.448863 121.161 -0.00152863 119.138 3.89799e-06H111.039C108.988 0.00365702 106.98 0.471032 105.244 1.34866C103.509 2.22629 102.115 3.47873 101.224 4.96267Z" fill="#FF725E"/>
<path d="M77.9227 208.845H7C7 208.845 6.99999 183.729 36.6617 165.854C66.3234 147.979 77.9341 107.552 77.9341 107.552L77.9227 208.845Z" fill="#FF725E"/>
<path d="M151.957 208.845H222.879C222.879 208.845 222.879 183.729 193.218 165.854C163.556 147.979 151.957 107.552 151.957 107.552V208.845Z" fill="#FF725E"/>
<path opacity="0.2" d="M77.9227 208.845H7C7 208.845 6.99999 183.729 36.6617 165.854C66.3234 147.979 77.9341 107.552 77.9341 107.552L77.9227 208.845Z" fill="black"/>
<path opacity="0.2" d="M151.957 208.845H222.879C222.879 208.845 222.879 183.729 193.218 165.854C163.556 147.979 151.957 107.552 151.957 107.552V208.845Z" fill="black"/>
<path d="M83.139 120.152C82.9788 120.152 82.8416 107.626 82.8416 92.1678C82.8416 76.71 82.9788 64.1838 83.139 64.1838C83.2991 64.1838 83.4936 76.71 83.4936 92.131C83.4936 107.552 83.2991 120.152 83.139 120.152Z" fill="#FAFAFA"/>
<path d="M83.9168 47.5865C84.2143 48.4125 84.3152 49.2762 84.2142 50.1322C84.3152 50.9882 84.2143 51.8519 83.9168 52.6779C83.626 51.8509 83.5253 50.9882 83.6193 50.1322C83.5253 49.2762 83.626 48.4136 83.9168 47.5865Z" fill="#FAFAFA"/>
<path d="M106.806 4.25498C106.955 4.31012 102.105 12.1309 95.9851 21.7162C89.8651 31.3015 84.7861 39.0304 84.6374 38.9661C84.4887 38.9017 89.3389 31.0901 95.4589 21.5048C101.579 11.9195 106.658 4.19065 106.806 4.25498Z" fill="#FAFAFA"/>
<path d="M70.247 134.047C70.2619 134.12 70.2619 134.195 70.247 134.268C70.247 134.442 70.1669 134.654 70.1097 134.92L69.8581 135.968C69.7529 136.45 69.6077 136.926 69.4234 137.392C68.4169 140.403 66.9329 143.297 65.0079 146.003C62.1333 150.004 58.7066 153.731 54.7927 157.114C50.4344 160.974 45.2296 164.88 39.7274 168.924C34.5472 172.704 29.8422 176.884 25.6801 181.404C23.8827 183.384 22.2178 185.439 20.6926 187.561C19.3835 189.422 18.1961 191.336 17.1351 193.296C15.5997 196.134 14.386 199.077 13.5089 202.091C13.1657 203.148 13.0284 203.993 12.8568 204.554L12.6852 205.197C12.6769 205.274 12.6496 205.349 12.6052 205.417C12.5925 205.344 12.5925 205.27 12.6052 205.197L12.7196 204.544C12.8454 203.975 12.9483 203.12 13.2572 202.045C14.0455 199.001 15.1946 196.025 16.6889 193.158C17.7278 191.178 18.9001 189.245 20.2007 187.368C21.7181 185.223 23.3792 183.146 25.1768 181.146C29.3426 176.587 34.0636 172.372 39.2698 168.565C44.772 164.531 49.9768 160.643 54.3351 156.811C58.2586 153.465 61.7111 149.782 64.6304 145.829C66.5731 143.159 68.1093 140.311 69.206 137.346C69.3966 136.885 69.5569 136.415 69.6865 135.94C69.8009 135.536 69.9038 135.196 69.9839 134.902C70.064 134.608 70.1326 134.433 70.1898 134.258C70.1947 134.186 70.214 134.115 70.247 134.047Z" fill="#FAFAFA"/>
<path d="M121.048 58.2194H108.82C105.264 58.2194 101.854 57.0846 99.3398 55.0647C96.8256 53.0448 95.4131 50.3052 95.4131 47.4486C95.4131 44.592 96.8256 41.8524 99.3398 39.8324C101.854 37.8125 105.264 36.6777 108.82 36.6777H121.048C122.809 36.6765 124.553 36.9543 126.181 37.4952C127.808 38.036 129.286 38.8293 130.532 39.8297C131.777 40.8301 132.764 42.018 133.437 43.3253C134.111 44.6326 134.456 46.0338 134.455 47.4486C134.455 50.3052 133.042 53.0448 130.528 55.0647C128.014 57.0846 124.604 58.2194 121.048 58.2194Z" fill="white"/>
<path opacity="0.4" d="M77.9227 222.373L106.12 236.839H125.67L151.957 222.373V216.409H77.9227V222.373Z" fill="black"/>
<path d="M153.801 311.442C151.585 310.232 149.205 309.512 146.776 309.317C139.888 308.746 133.451 305.034 128.312 299.482C128.1 299.254 127.888 299.032 127.676 298.816C124.396 295.517 120.958 290.333 120.259 285.276C117.609 266.49 115.66 240.603 115.798 227H114.208C114.208 227 114.033 260.062 108.91 288.024C108.642 289.404 108.101 290.687 107.332 291.763C106.563 292.84 105.588 293.679 104.491 294.21C99.4756 296.749 95.3183 301.234 92.6872 306.944C91.943 308.533 90.8126 309.814 89.4462 310.617C88.0798 311.419 86.5419 311.705 85.0368 311.436C80.417 310.668 75.7286 312.075 71.9579 315.363C68.1872 318.65 65.6282 323.561 64.8192 329.061L165.335 329.125C164.705 325.301 163.333 321.707 161.33 318.636C159.326 315.564 156.747 313.099 153.801 311.442Z" fill="#EBEBEB"/>
<path d="M42 355.025C44.5261 338.336 58.8705 326 75.7492 326H153.07C169.847 326 184.04 338.401 186.292 355.025V355.025H42V355.025Z" fill="#D9D9D9"/>
<path d="M22 381.302C25.2695 364.294 40.1513 352 57.4707 352H172.218C189.396 352 204.077 364.372 206.989 381.302V381.302H22V381.302Z" fill="#D9D9D9"/>
<path d="M0.0294554 406.388C1.06971 388.996 18.776 378 36.1988 378H191.818C209.433 378 226.721 389.732 227.999 407.302V407.302C228.462 413.659 -1.38172e-06 414.765 -1.38172e-06 407.302C-1.38172e-06 407.017 0.0100734 406.712 0.0294554 406.388Z" fill="#D9D9D9"/>
<path d="M227.735 410.909C226.229 426.186 211.302 435 195.951 435L33.8178 435C17.2004 435 1.1675 424.747 0.102489 408.164C0.0491253 407.333 0.0141631 406.506 0.000190262 405.687C-0.231061 392.137 228 390.755 228 405.687C228 407.443 227.904 409.191 227.735 410.909Z" fill="#D9D9D9"/>
<path d="M213 427C209.618 443.864 194.807 456 177.607 456H56.6666C39.6145 456 25.0116 443.784 22 427V427H213V427Z" fill="#D9D9D9"/>
<path d="M188.292 454C185.766 470.842 171.299 483.302 154.269 483.302H77.4951C60.5673 483.302 46.2508 470.777 44 454V454H188.292V454Z" fill="#D9D9D9"/>
<path d="M163.947 476.453C162.237 491.119 152.74 504.3 138.349 507.605C124.085 510.88 111.549 510.774 96.8628 507.425C82.2996 504.104 72.5504 490.856 71 476V476H164L163.947 476.453Z" fill="#D9D9D9"/>
<path d="M139.396 498.596C138.904 508.847 135.144 519.71 125.856 524.074C120.478 526.6 115.527 526.628 110.064 524.238C100.14 519.898 95.9637 508.454 95.4993 497.632L95 486H140L139.396 498.596Z" fill="#D9D9D9"/>
</svg>
