<svg width="240" height="178" viewBox="0 0 240 178" fill="none" xmlns="http://www.w3.org/2000/svg">
<path d="M219.25 91C219.25 137.184 174.141 177.25 124.5 177.25C74.8832 177.25 34.75 139.706 34.75 93.5C34.75 47.3164 79.8586 7.25 129.5 7.25C179.117 7.25 219.25 44.7938 219.25 91Z" fill="#ECC65A" stroke="#292929" stroke-width="1.5"/>
<path d="M161.5 12.5C119.5 53.5 115 130 173 163.5" stroke="#292929" stroke-width="1.5" stroke-linejoin="round"/>
<path d="M209.539 137.462C261.229 98.4379 196.938 9.78318 167.82 23.3408C138.703 36.8985 144.302 96.246 146.551 103.105C148.801 109.964 157.85 176.486 209.539 137.462Z" fill="#263238"/>
<path d="M167.82 23.3408L168.137 24.0208L167.82 23.3408ZM209.539 137.462L209.087 136.863L209.087 136.863L209.539 137.462ZM146.551 103.105L145.839 103.339L146.551 103.105ZM168.137 24.0208C175.019 20.8161 184.18 23.5898 193.44 30.564C202.653 37.5017 211.736 48.4403 218.318 61.0307C224.9 73.6217 228.95 87.8026 228.173 101.217C227.398 114.606 221.818 127.252 209.087 136.863L209.991 138.06C223.105 128.16 228.873 115.09 229.671 101.304C230.467 87.5442 226.316 73.0917 219.647 60.3357C212.978 47.5792 203.759 36.4572 194.343 29.3658C184.975 22.3108 175.18 19.0868 167.504 22.6609L168.137 24.0208ZM147.264 102.871C146.735 101.258 145.966 96.3509 145.58 89.6118C145.195 82.9041 145.195 74.4625 146.168 65.8188C147.143 57.1701 149.088 48.3537 152.576 40.8761C156.063 33.4014 161.066 27.3129 168.137 24.0208L167.504 22.6609C160.015 26.1477 154.799 32.5617 151.217 40.242C147.636 47.9195 145.662 56.9108 144.678 65.6509C143.693 74.3962 143.694 82.9248 144.082 89.6976C144.468 96.4388 145.243 101.522 145.839 103.339L147.264 102.871ZM145.839 103.339C146.106 104.155 146.481 105.885 147.054 108.322C147.619 110.728 148.362 113.753 149.355 117.069C151.336 123.692 154.322 131.522 158.895 137.925C163.473 144.336 169.691 149.381 178.129 150.267C186.547 151.151 196.992 147.874 209.991 138.06L209.087 136.863C196.241 146.562 186.172 149.603 178.286 148.775C170.419 147.95 164.542 143.253 160.116 137.054C155.684 130.847 152.755 123.2 150.792 116.639C149.812 113.365 149.076 110.372 148.514 107.979C147.959 105.619 147.559 103.769 147.264 102.871L145.839 103.339Z" fill="#292929"/>
<path d="M147 58.0074C104.054 69.6741 83.4993 67.4407 51 46C92.1522 -1.60403 120.507 -5.68353 179 21C160.642 23.8728 152.525 29.7819 147 58.0074Z" fill="#ECC65A" stroke="#292929" stroke-width="1.5" stroke-linejoin="round"/>
<path d="M133.25 51.4161C143.75 46.8355 162.5 9.49994 162.5 9.49994C111.044 -5.18304 85.8955 -0.633537 55 36.5C80.5191 57.6221 122.75 55.9968 133.25 51.4161Z" fill="#DEB241" stroke="#292929" stroke-width="1.5" stroke-linejoin="round"/>
<path d="M127.049 41.9762C134.57 38.7525 148 12.4769 148 12.4769C111.143 2.14341 93.1298 5.34522 71 31.4787C89.2788 46.3438 119.528 45.2 127.049 41.9762Z" fill="#E0BF6B" stroke="#292929" stroke-width="1.5" stroke-linejoin="round"/>
<g filter="url(#filter0_d_53_31)">
<ellipse cx="187.742" cy="56.6457" rx="12.5" ry="15.5" transform="rotate(-18.3391 187.742 56.6457)" fill="#3C5059" fill-opacity="0.3" shape-rendering="crispEdges"/>
</g>
<circle cx="180" cy="100" r="1" fill="#D9D9D9"/>
<circle cx="168" cy="118" r="1" fill="#D9D9D9"/>
<circle cx="207" cy="120" r="1" fill="#D9D9D9"/>
<circle cx="217" cy="89" r="1" fill="#D9D9D9"/>
<circle cx="187" cy="131" r="1" fill="#D9D9D9"/>
<circle cx="161" cy="83" r="1" fill="#D9D9D9"/>
<circle cx="152" cy="67" r="1" fill="#D9D9D9"/>
<circle cx="181" cy="82" r="1" fill="#D9D9D9"/>
<circle cx="220" cy="111" r="1" fill="#D9D9D9"/>
<circle cx="198" cy="85" r="1" fill="#D9D9D9"/>
<circle cx="156" cy="51" r="1" fill="#D9D9D9"/>
<circle cx="178" cy="34" r="1" fill="#D9D9D9"/>
<circle cx="212" cy="68" r="1" fill="#D9D9D9"/>
<circle cx="154" cy="102" r="1" fill="#D9D9D9"/>
<circle cx="171" cy="139" r="1" fill="#D9D9D9"/>
<circle cx="197" cy="108" r="1" fill="#D9D9D9"/>
<circle cx="201" cy="137" r="1" fill="#D9D9D9"/>
<circle cx="168" cy="118" r="1" fill="#D9D9D9"/>
<path d="M77 121C72.2359 101.05 72.584 87.5367 77 60.5C85.5398 62.8019 91.1144 63.7437 102 65C97.1253 87.0276 96.6527 99.3075 101 121H77Z" fill="#DEB241" stroke="#292929" stroke-width="1.5" stroke-linejoin="round"/>
<circle cx="90.5" cy="133.5" r="21.75" fill="#DEB241" stroke="#292929" stroke-width="1.5"/>
<circle cx="90.5" cy="133.5" r="11.75" fill="#D98436" stroke="#292929" stroke-width="1.5"/>
<path d="M23 36C28.3776 43.4625 32.6878 47.2517 47 52" stroke="#292929" stroke-width="1.5" stroke-linejoin="round"/>
<path d="M34.8865 29.0876C33.4963 31.5017 30.9603 33.6943 28.5424 35.1672C27.3371 35.9014 26.1825 36.4435 25.2415 36.7425C24.7703 36.8923 24.3677 36.9762 24.0479 36.9984C23.7168 37.0213 23.533 36.9739 23.449 36.9255C23.3677 36.8787 23.2417 36.7505 23.1085 36.4643C22.9793 36.1868 22.866 35.809 22.7786 35.3391C22.6043 34.4009 22.546 33.1625 22.6292 31.7817C22.7959 29.0146 23.5245 25.7733 24.9209 23.3486C26.3034 20.9478 28.5102 19.3057 30.5844 18.382C31.6203 17.9206 32.6086 17.6451 33.4249 17.541C34.2678 17.4336 34.8382 17.5201 35.1108 17.6771C35.3775 17.8307 35.7122 18.2583 36.0006 19.0123C36.2802 19.7431 36.4858 20.7024 36.5544 21.7989C36.6916 23.9929 36.2764 26.674 34.8865 29.0876Z" fill="#4B8654" stroke="#292929"/>
<path d="M10.439 32.6338C13.1867 32.1751 16.4909 32.7421 19.1639 33.675C20.4964 34.14 21.6484 34.6878 22.4768 35.2249C22.8918 35.4939 23.2122 35.7516 23.4324 35.9846C23.6603 36.2258 23.7404 36.398 23.7564 36.4936C23.7718 36.5861 23.7528 36.7648 23.6162 37.0495C23.4838 37.3254 23.2639 37.6529 22.9563 38.0187C22.3422 38.7491 21.4225 39.5804 20.3029 40.3928C18.0592 42.021 15.0925 43.5161 12.3326 43.9768C9.60007 44.433 6.93029 43.7707 4.89961 42.7547C3.88548 42.2474 3.04515 41.6588 2.44643 41.0942C1.82825 40.5112 1.53296 40.0157 1.48116 39.7054C1.43048 39.4018 1.54833 38.8717 1.94773 38.1701C2.33482 37.4902 2.94533 36.7222 3.74898 35.973C5.35688 34.474 7.6918 33.0924 10.439 32.6338Z" fill="#4B8654" stroke="#292929"/>
<defs>
<filter id="filter0_d_53_31" x="165.91" y="33.4126" width="43.6634" height="48.4663" filterUnits="userSpaceOnUse" color-interpolation-filters="sRGB">
<feFlood flood-opacity="0" result="BackgroundImageFix"/>
<feColorMatrix in="SourceAlpha" type="matrix" values="0 0 0 0 0 0 0 0 0 0 0 0 0 0 0 0 0 0 127 0" result="hardAlpha"/>
<feMorphology radius="5" operator="dilate" in="SourceAlpha" result="effect1_dropShadow_53_31"/>
<feOffset dy="1"/>
<feGaussianBlur stdDeviation="2"/>
<feComposite in2="hardAlpha" operator="out"/>
<feColorMatrix type="matrix" values="0 0 0 0 0.235294 0 0 0 0 0.313726 0 0 0 0 0.34902 0 0 0 0.3 0"/>
<feBlend mode="normal" in2="BackgroundImageFix" result="effect1_dropShadow_53_31"/>
<feBlend mode="normal" in="SourceGraphic" in2="effect1_dropShadow_53_31" result="shape"/>
</filter>
</defs>
</svg>
