<svg width="59" height="127" viewBox="0 0 59 127" fill="none" xmlns="http://www.w3.org/2000/svg">
<path d="M11.9726 96C11.9726 96 10.6011 76.1615 10.9863 63H46L44.0274 96H11.9726Z" fill="#D5B559"/>
<path d="M10.9863 63C10.6011 76.1615 11.9726 96 11.9726 96H44.0274L46 63H10" stroke="#292929" stroke-width="1.5" stroke-linejoin="round"/>
<path d="M8.5 121.041C7.7667 116.809 8.62191 94.5382 9.50002 95.0414H47.5L47 99.5L46.6667 101.5C59.0775 104.021 59.8175 115.726 56.1667 122C52.5159 128.274 9.2333 125.274 8.5 121.041Z" fill="#201D1D" stroke="#292929" stroke-width="1.5" stroke-linejoin="round"/>
<path d="M52.7628 61.2163C33.7483 70.6025 23.1269 77.4749 3.4886 61.2163C2.19171 47.7814 1.7565 39.6421 1 25.0865L55.7491 1C56.2214 27.505 56.3999 42.2072 52.7628 61.2163Z" fill="#D5B559" stroke="#292929" stroke-width="1.5" stroke-linejoin="round"/>
</svg>
