<svg width="170" height="100" viewBox="0 0 170 100" fill="none" xmlns="http://www.w3.org/2000/svg">
<path d="M5.17596 47.3522C4.29892 49.1296 24.0671 74.3205 82.1033 82.6787C131.973 89.8668 160.924 72.6239 160.924 72.6239L5.17596 47.3522Z" fill="#FF725E"/>
<path opacity="0.2" d="M5.17596 47.3522C4.29892 49.1296 24.0671 74.3205 82.1033 82.6787C131.973 89.8668 160.924 72.6239 160.924 72.6239L5.17596 47.3522Z" fill="black"/>
<path d="M80.9963 69.6839C124.087 76.9484 159.802 78.1874 160.769 72.4514C161.736 66.7153 127.589 56.1763 84.4982 48.9118C41.4078 41.6473 5.69227 40.4083 4.72524 46.1443C3.75822 51.8804 37.9059 62.4194 80.9963 69.6839Z" fill="#FF725E"/>
<path d="M47.9619 48.9585C47.9619 48.9585 53.3259 13.5402 88.9221 16.6637C124.518 19.7873 119.603 57.1562 119.603 57.1562C119.603 57.1562 93.4624 69.3534 47.9619 48.9585Z" fill="#F5F5F5"/>
<path d="M72.5933 21.8093C72.6727 22.0003 71.2691 22.668 69.1518 23.9539C68.6287 24.2768 68.0516 24.63 67.4553 25.0474C66.859 25.4648 66.2148 25.9086 65.582 26.397C62.7709 28.5394 60.2719 31.063 58.1572 33.8949C57.6807 34.5595 57.214 35.1789 56.8333 35.7907C56.4525 36.4025 56.0503 36.9675 55.7546 37.5031C54.4913 39.6279 53.8415 41.039 53.647 40.965C53.4526 40.891 53.837 39.3694 54.9254 37.0328C55.1987 36.4555 55.5091 35.8284 55.8915 35.1853C56.2738 34.5423 56.7062 33.8628 57.1613 33.1514C59.2391 30.1129 61.8455 27.472 64.8565 25.3545C65.5586 24.8865 66.2161 24.4298 66.8751 24.0629C67.47 23.704 68.0827 23.3755 68.7109 23.0788C71.0014 21.9886 72.5447 21.646 72.5933 21.8093Z" fill="white"/>
<path d="M155.064 70.6301C154.984 70.7122 154.894 70.7845 154.796 70.8453C154.523 71.0299 154.236 71.1925 153.937 71.3319C152.823 71.8095 151.648 72.1291 150.446 72.2813C142.571 73.5138 134.559 73.6038 126.659 72.5484C125.126 72.3353 123.928 72.132 123.1 71.9725L122.14 71.7632C122.026 71.7464 121.914 71.7219 121.803 71.6898C121.919 71.6867 122.035 71.6978 122.149 71.723L123.118 71.8659C123.964 71.9924 125.182 72.1739 126.695 72.3563C134.589 73.3081 142.573 73.2154 150.442 72.0805C151.635 71.9462 152.805 71.6582 153.924 71.2237C154.314 71.0456 154.694 70.8475 155.064 70.6301Z" fill="white"/>
<path d="M68.5649 80.4107C68.4136 80.2958 68.2764 80.1634 68.1561 80.0163C67.8002 79.6398 67.4707 79.239 67.1701 78.817C66.7148 78.1948 66.3089 77.5378 65.9562 76.8522C65.5239 76.0128 65.1634 75.1383 64.8786 74.2381C64.6026 73.335 64.4009 72.4108 64.2757 71.4748C64.1796 70.7104 64.14 69.94 64.1571 69.1698C64.1663 68.6505 64.209 68.1323 64.2848 67.6185C64.3045 67.4287 64.3453 67.2416 64.4064 67.0608C64.4566 67.0717 64.341 67.8676 64.3551 69.155C64.364 69.9145 64.422 70.6727 64.5287 71.4247C64.6692 72.344 64.8739 73.2522 65.1415 74.1428C65.4258 75.0271 65.7744 75.8895 66.1844 76.723C66.5238 77.4034 66.9081 78.0604 67.3347 78.6898C68.0564 79.7735 68.6049 80.3721 68.5649 80.4107Z" fill="#263238"/>
<path d="M67.9332 71.9151C67.9256 71.9502 67.7868 71.9831 67.7061 72.1603C67.6802 72.2049 67.6652 72.2549 67.6622 72.3064C67.6592 72.3578 67.6683 72.4093 67.6888 72.4566C67.7186 72.5017 67.7598 72.5383 67.8081 72.5625C67.8565 72.5867 67.9104 72.5978 67.9644 72.5947C68.0184 72.5915 68.0706 72.5742 68.1158 72.5445C68.161 72.5148 68.1977 72.4737 68.222 72.4254C68.2368 72.376 68.2403 72.3239 68.2323 72.273C68.2242 72.222 68.2049 72.1735 68.1756 72.1311C68.0706 71.9608 67.9194 71.9542 67.9181 71.9118C67.9169 71.8694 68.1107 71.8011 68.3252 72.0005C68.3866 72.0619 68.4315 72.138 68.4557 72.2215C68.4798 72.305 68.4824 72.3932 68.4632 72.478C68.4346 72.5864 68.3713 72.6825 68.2831 72.7516C68.1949 72.8207 68.0865 72.8591 67.9744 72.861C67.8771 72.8663 67.7803 72.8439 67.6953 72.7963C67.6102 72.7488 67.5404 72.678 67.494 72.5924C67.4476 72.5067 67.4265 72.4096 67.4331 72.3124C67.4398 72.2152 67.4739 72.1219 67.5315 72.0433C67.7353 71.8087 67.9509 71.8821 67.9332 71.9151Z" fill="#263238"/>
<path d="M69.3069 76.4301C69.2993 76.4653 69.1666 76.4943 69.0798 76.6753C69.0553 76.7204 69.0411 76.7704 69.0382 76.8216C69.0352 76.8728 69.0435 76.924 69.0625 76.9716C69.0891 77.0222 69.1306 77.0634 69.1814 77.0896C69.2322 77.1157 69.2899 77.1256 69.3465 77.1178C69.4038 77.1189 69.4601 77.1024 69.5076 77.0703C69.5551 77.0383 69.5915 76.9923 69.6119 76.9387C69.6257 76.89 69.6286 76.8388 69.6204 76.7888C69.6122 76.7388 69.5931 76.6912 69.5644 76.6494C69.4594 76.4791 69.3093 76.4675 69.3069 76.4301C69.3046 76.3927 69.4995 76.3194 69.7139 76.5188C69.7754 76.5803 69.8203 76.6563 69.8445 76.7398C69.8686 76.8233 69.8712 76.9116 69.852 76.9964C69.8248 77.0597 69.7852 77.1169 69.7355 77.1646C69.6858 77.2123 69.627 77.2495 69.5627 77.274C69.4983 77.2986 69.4296 77.31 69.3608 77.3075C69.292 77.305 69.2243 77.2887 69.1619 77.2596C69.0995 77.2305 69.0435 77.1891 68.9974 77.1379C68.9513 77.0868 68.9159 77.0268 68.8934 76.9617C68.8708 76.8966 68.8616 76.8277 68.8662 76.759C68.8709 76.6902 68.8893 76.6231 68.9203 76.5616C69.1101 76.3188 69.3247 76.3971 69.3069 76.4301Z" fill="#263238"/>
<path d="M4.97798 45.8461C5.12168 45.8165 5.26788 45.8008 5.41457 45.7991L6.67383 45.721C7.74124 45.6537 9.33304 45.5954 11.3048 45.5569C15.2132 45.472 20.626 45.5363 26.5853 45.967C32.5446 46.3978 37.9094 47.1411 41.7677 47.7928C43.6969 48.1187 45.2544 48.4109 46.3208 48.6381L47.5518 48.9065C47.6984 48.9249 47.843 48.9564 47.984 49.0007C47.8376 48.9941 47.6918 48.9764 47.5481 48.9478L46.3049 48.7347C45.2309 48.5426 43.6679 48.2755 41.7333 47.9748C37.8702 47.3694 32.5117 46.6696 26.5563 46.2449C20.6009 45.8203 15.2069 45.7181 11.2984 45.7555C9.34212 45.7711 7.76191 45.8003 6.66983 45.8359L5.41038 45.8666C5.26593 45.8712 5.12134 45.8643 4.97798 45.8461Z" fill="#263238"/>
<path d="M116.435 74.2676C116.234 74.1068 116.047 73.9288 115.877 73.7354L114.412 72.2262C113.174 70.951 111.441 69.2153 109.467 67.3584C107.493 65.5015 105.648 63.8939 104.302 62.7268L102.706 61.3576C102.502 61.1985 102.312 61.0231 102.136 60.8333C102.36 60.963 102.572 61.1114 102.771 61.277C103.169 61.5744 103.737 62.0139 104.424 62.5796C105.806 63.702 107.673 65.3038 109.652 67.1618C111.631 69.0198 113.346 70.7885 114.551 72.0935C115.15 72.7504 115.633 73.2873 115.956 73.6631C116.133 73.8502 116.293 74.0525 116.435 74.2676Z" fill="#263238"/>
<path d="M103.793 64.6045C103.817 64.6412 103.639 64.734 103.592 64.9975C103.564 65.1383 103.592 65.2845 103.672 65.4044C103.728 65.4627 103.798 65.5059 103.876 65.53C103.954 65.554 104.036 65.5581 104.116 65.5419C104.195 65.5257 104.269 65.4897 104.331 65.4372C104.393 65.3847 104.441 65.3174 104.47 65.2416C104.485 65.1715 104.486 65.0989 104.471 65.0287C104.456 64.9584 104.427 64.892 104.386 64.8336C104.239 64.6122 104.043 64.5957 104.046 64.5544C104.05 64.5131 104.284 64.4536 104.538 64.7142C104.608 64.7894 104.661 64.8791 104.692 64.9769C104.723 65.0747 104.733 65.1783 104.72 65.2802C104.691 65.4109 104.623 65.53 104.526 65.6223C104.429 65.7146 104.307 65.7759 104.175 65.7984C104.046 65.8291 103.911 65.8206 103.787 65.7739C103.663 65.7271 103.556 65.6444 103.48 65.5362C103.424 65.4481 103.389 65.3483 103.378 65.2446C103.366 65.1408 103.379 65.0359 103.415 64.9379C103.535 64.6061 103.795 64.5733 103.793 64.6045Z" fill="#263238"/>
<path d="M39.1957 48.4844C39.1891 48.5145 39.0412 48.6139 38.9953 48.8723C38.9797 48.942 38.9787 49.0141 38.9924 49.0842C39.0061 49.1542 39.0343 49.2206 39.0751 49.2792C39.1309 49.3389 39.2011 49.3834 39.279 49.4082C39.3569 49.4331 39.4398 49.4376 39.5199 49.4212C39.6 49.4049 39.6746 49.3683 39.7366 49.315C39.7985 49.2616 39.8458 49.1933 39.8738 49.1165C39.888 49.047 39.8877 48.9754 39.873 48.906C39.8582 48.8367 39.8292 48.7711 39.7879 48.7135C39.6425 48.4871 39.445 48.4756 39.4488 48.4343C39.4525 48.393 39.6866 48.3335 39.9403 48.5941C40.0109 48.6689 40.0639 48.7585 40.0954 48.8565C40.1269 48.9544 40.136 49.0582 40.1222 49.1601C40.0936 49.2904 40.0265 49.409 39.9296 49.5005C39.8326 49.592 39.7104 49.6522 39.5787 49.6733C39.449 49.7042 39.3129 49.6958 39.1881 49.6488C39.0633 49.6019 38.9553 49.5187 38.8781 49.41C38.8238 49.3213 38.7903 49.2216 38.78 49.1182C38.7698 49.0148 38.783 48.9104 38.8188 48.8128C38.9374 48.486 39.1984 48.4481 39.1957 48.4844Z" fill="#263238"/>
<path d="M26.8719 47.3815C26.8653 47.4117 26.7184 47.506 26.6665 47.7684C26.6529 47.8386 26.6534 47.9108 26.6679 47.9809C26.6825 48.0509 26.7108 48.1174 26.7512 48.1764C26.8043 48.2391 26.8738 48.2857 26.952 48.3111C27.0301 48.3365 27.1138 48.3397 27.1936 48.3202C27.2753 48.3074 27.3516 48.2717 27.4138 48.2172C27.476 48.1628 27.5214 48.0918 27.5449 48.0125C27.5606 47.9429 27.5616 47.8708 27.5479 47.8007C27.5341 47.7306 27.506 47.6642 27.4652 47.6057C27.3187 47.3842 27.1223 47.3677 27.126 47.3264C27.1298 47.2851 27.3627 47.2307 27.6165 47.4913C27.687 47.5657 27.7396 47.6553 27.7703 47.7532C27.8009 47.8511 27.8088 47.9548 27.7933 48.0562C27.7673 48.1869 27.7017 48.3063 27.6053 48.3984C27.509 48.4904 27.3866 48.5505 27.2549 48.5704C27.1251 48.6014 26.9891 48.5929 26.8643 48.546C26.7394 48.4991 26.6315 48.4159 26.5543 48.3071C26.5 48.2185 26.4665 48.1187 26.4562 48.0153C26.4459 47.9119 26.4592 47.8075 26.495 47.7099C26.6186 47.3842 26.8745 47.3453 26.8719 47.3815Z" fill="#263238"/>
<path d="M12.7341 46.5099C12.7526 46.5455 12.5745 46.6382 12.5276 46.9017C12.5125 46.9719 12.5122 47.0444 12.5268 47.1147C12.5414 47.185 12.5705 47.2514 12.6123 47.3097C12.6653 47.3727 12.7352 47.4192 12.8138 47.4438C12.8924 47.4684 12.9763 47.47 13.0558 47.4485C13.1371 47.4371 13.2134 47.4025 13.2755 47.3488C13.3376 47.2951 13.3829 47.2247 13.406 47.1459C13.4341 47.0051 13.4054 46.8588 13.3263 46.739C13.1798 46.5176 12.9784 46.5 12.9871 46.4598C12.9959 46.4196 13.2249 46.359 13.4776 46.6246C13.5478 46.6993 13.6002 46.7889 13.6308 46.8868C13.6614 46.9846 13.6695 47.0881 13.6544 47.1895C13.6264 47.3193 13.5601 47.4376 13.4641 47.5293C13.3681 47.621 13.2468 47.6817 13.116 47.7038C12.9862 47.7348 12.8502 47.7263 12.7254 47.6793C12.6005 47.6324 12.4926 47.5492 12.4154 47.4405C12.3618 47.3514 12.3283 47.2518 12.3172 47.1484C12.3061 47.0451 12.3177 46.9406 12.3511 46.8422C12.4758 46.5115 12.7356 46.4786 12.7341 46.5099Z" fill="#263238"/>
<path d="M108.464 69.498C108.487 69.5348 108.309 69.6275 108.263 69.886C108.248 69.9556 108.247 70.0278 108.26 70.0978C108.274 70.1679 108.302 70.2343 108.343 70.2929C108.395 70.3565 108.465 70.4039 108.543 70.4294C108.622 70.4549 108.706 70.4574 108.785 70.4367C108.868 70.4243 108.945 70.3889 109.008 70.3347C109.071 70.2805 109.117 70.2096 109.142 70.1301C109.156 70.0607 109.156 69.989 109.141 69.9197C109.126 69.8503 109.097 69.7848 109.056 69.7272C108.911 69.5007 108.713 69.4892 108.717 69.4479C108.721 69.4067 108.955 69.3471 109.208 69.6078C109.279 69.6825 109.332 69.7722 109.363 69.8701C109.395 69.9681 109.404 70.0718 109.39 70.1738C109.376 70.2684 109.343 70.3591 109.291 70.4398C109.24 70.5205 109.172 70.5894 109.092 70.642C109.012 70.6946 108.922 70.7297 108.827 70.7451C108.733 70.7604 108.636 70.7556 108.544 70.7309C108.451 70.7063 108.365 70.6624 108.291 70.6021C108.217 70.5418 108.156 70.4665 108.113 70.3811C108.07 70.2957 108.045 70.2021 108.04 70.1065C108.036 70.0109 108.052 69.9155 108.087 69.8264C108.206 69.4996 108.466 69.4618 108.464 69.498Z" fill="#263238"/>
<path d="M93.4306 21.7677C92.1062 20.9753 90.6273 20.4759 89.0936 20.3033C87.5599 20.1306 86.007 20.2887 84.5396 20.7668C83.0721 21.2449 81.7242 22.032 80.5866 23.0751C79.449 24.1181 78.5482 25.3928 77.9449 26.8134L77.8394 27.0799C77.4448 28.0546 77.2192 29.0895 77.1722 30.14C77.0851 32.0949 77.3739 34.0484 78.0231 35.8945C79.8845 41.1903 81.3943 41.6773 81.0951 44.4018C80.7958 47.1263 81.074 47.7818 79.4647 48.6205C79.4647 48.6205 77.5703 48.3286 76.4144 48.7292C75.2585 49.1299 74.3057 49.3959 73.5148 52.4922C72.7239 55.5885 72.173 57.4634 72.173 57.4634C77.5444 58.9692 83.0495 59.949 88.6105 60.3892L89.6427 52.3713C89.6128 51.9828 89.4796 51.6093 89.2569 51.2896C89.0341 50.9699 88.73 50.7155 88.3759 50.5529C87.179 50.055 85.2425 49.6907 85.2748 48.9872C85.3071 48.2836 85.6439 48.1149 85.6439 48.1149C85.6439 48.1149 87.7118 49.5185 89.3331 49.1561C90.9544 48.7937 92.7986 48.2536 93.3276 47.1794C93.8566 46.1051 95.5862 42.445 95.4577 42.238C95.3291 42.031 98.1305 40.6258 99.1983 36.2108C100.266 31.7957 98.6045 25.2697 95.0484 22.7732C94.4917 22.4132 93.9524 22.078 93.4306 21.7677Z" fill="#455A64"/>
<path d="M84.0045 30.2138C84.0045 30.2138 92.9837 29.4923 89.6043 38.9565C89.6043 38.9565 80.3534 38.1239 84.0045 30.2138Z" fill="#263238"/>
<path d="M93.2783 39.5368C93.2783 39.5368 91.5756 30.3016 97.6123 32.502C97.6068 32.5271 99.6535 39.3635 93.2783 39.5368Z" fill="#263238"/>
<path d="M102.35 52.6367C102.35 52.6367 100.733 52.8105 100.271 53.1415C99.8094 53.4724 98.9202 54.8471 98.2627 54.8933C97.7196 54.8624 97.193 54.6951 96.7317 54.4068C96.7317 54.4068 96.8017 52.5167 96.2997 51.5598C95.7978 50.6029 95.5853 50.7566 95.5853 50.7566C95.5853 50.7566 93.8906 50.345 94.1914 49.3999C94.1914 49.3999 95.0807 48.7253 96.0297 50.1428C96.1655 50.349 96.3709 50.4995 96.6085 50.5668C96.846 50.634 97.0999 50.6136 97.3236 50.5092C98.1163 50.1083 98.5104 48.7835 98.6362 47.8687C98.6362 47.8687 98.3007 46.1481 99.43 46.0627C99.43 46.0627 100.305 46.3219 99.4168 48.0547C99.4168 48.0547 98.2118 49.8396 99.1184 50.8478C99.1184 50.8478 99.9094 51.4203 101.265 49.9367L101.727 49.3848C101.727 49.3848 102.076 48.0502 103.254 48.2703C103.323 48.2827 103.385 48.3192 103.429 48.3732C103.473 48.4272 103.497 48.4952 103.495 48.565C103.487 48.8975 103.356 49.2153 103.127 49.457C102.899 49.6987 102.589 49.8473 102.257 49.8741C102.257 49.8741 100.697 50.5866 100.619 51.7857C100.619 51.7857 100.931 52.3116 102.042 52.0695L102.46 52.0081C102.46 52.0081 103.968 51.1999 104.046 51.7379C104.103 52.3926 103.239 52.878 102.35 52.6367Z" fill="#455A64"/>
<path d="M96.7835 54.1442L93.6154 60.7805L95.0867 60.8644L96.6175 60.8929L98.8832 54.5809L96.7835 54.1442Z" fill="#455A64"/>
<g opacity="0.2">
<path d="M84.5967 22.4998C84.2886 22.4322 83.9668 22.4719 83.6844 22.6123C83.402 22.7528 83.1761 22.9855 83.044 23.2719C82.9314 23.5738 82.923 23.9047 83.0201 24.212C83.1171 24.5192 83.3141 24.7852 83.5796 24.9677C83.8574 25.1345 84.1835 25.2019 84.5046 25.1591C84.8257 25.1163 85.1227 24.9657 85.347 24.732C85.5568 24.4853 85.6749 24.1736 85.6813 23.8497C85.6876 23.5259 85.5818 23.2099 85.3817 22.9551C85.2508 22.8015 85.0878 22.6785 84.9041 22.5948C84.7204 22.5111 84.5206 22.4687 84.3188 22.4707" fill="white"/>
</g>
<path d="M84.9 32.4566C84.7753 32.4169 84.6407 32.4209 84.5185 32.4679C84.3963 32.515 84.2937 32.6022 84.2278 32.7153C84.1611 32.8357 84.1396 32.976 84.1674 33.1109C84.1952 33.2457 84.2704 33.3661 84.3793 33.4503C84.4882 33.5344 84.6236 33.5768 84.7611 33.5698C84.8986 33.5627 85.029 33.5067 85.1287 33.4118C85.2254 33.3178 85.2865 33.193 85.3013 33.0589C85.3161 32.9248 85.2838 32.7897 85.21 32.6768C85.1618 32.6082 85.099 32.5511 85.0261 32.5097C84.9532 32.4684 84.872 32.4437 84.7884 32.4375" fill="#455A64"/>
<path d="M84.6796 34.5778C84.6166 34.5574 84.5484 34.5592 84.4866 34.5832C84.4248 34.6071 84.3732 34.6516 84.3404 34.7092C84.3104 34.7704 84.3023 34.8402 84.3175 34.9067C84.3327 34.9732 84.3702 35.0326 84.4239 35.0748C84.4774 35.1167 84.5441 35.1383 84.6121 35.1358C84.6801 35.1333 84.745 35.1068 84.7953 35.061C84.8376 35.0239 84.8679 34.9751 84.8823 34.9208C84.8968 34.8664 84.8947 34.809 84.8763 34.7559C84.858 34.7027 84.8242 34.6563 84.7793 34.6224C84.7344 34.5885 84.6805 34.5688 84.6243 34.5658" fill="#455A64"/>
<g opacity="0.2">
<path d="M81.9052 25.1874C81.7787 25.2055 81.6625 25.2674 81.577 25.3625C81.4915 25.4575 81.4422 25.5795 81.4375 25.7072C81.4329 25.835 81.4732 25.9603 81.5516 26.0613C81.6299 26.1622 81.7413 26.2325 81.8661 26.2597C81.991 26.2869 82.1215 26.2694 82.2348 26.2102C82.3481 26.151 82.4369 26.0539 82.4859 25.9358C82.5348 25.8177 82.5407 25.6862 82.5025 25.5643C82.4644 25.4423 82.3845 25.3376 82.277 25.2685" fill="white"/>
</g>
<path d="M86.8854 39.3325C86.7486 39.3303 86.6137 39.3009 86.4884 39.2459C86.1278 39.1542 85.7788 39.0216 85.4482 38.8507C84.3334 38.2949 83.4201 37.4045 82.8361 36.3042C82.2521 35.2038 82.0266 33.9485 82.191 32.7137C82.2322 32.343 82.3119 31.9776 82.4287 31.6233C82.462 31.4905 82.5214 31.3657 82.6035 31.2561C82.6538 31.2671 82.4356 31.809 82.3623 32.7247C82.255 33.9158 82.4962 35.1124 83.0564 36.1691C83.6166 37.2257 84.4717 38.0967 85.5178 38.6764C86.3135 39.1551 86.9003 39.2883 86.8854 39.3325Z" fill="#263238"/>
<path d="M90.7818 33.6281C90.334 32.6772 89.7176 31.8152 88.9625 31.0839C88.1523 30.4162 87.2298 29.8978 86.2381 29.553C86.5572 29.5431 86.8747 29.6015 87.1693 29.7244C87.8977 29.9765 88.5685 30.3714 89.1423 30.8861C89.7161 31.4008 90.1814 32.0248 90.5109 32.7216C90.668 32.9997 90.7606 33.3095 90.7818 33.6281Z" fill="#263238"/>
<path d="M93.1269 35.2341C93.0884 34.9681 93.0975 34.6974 93.1538 34.4346C93.2194 33.7843 93.4159 33.1539 93.7315 32.5815C93.8976 32.2918 94.1194 32.0379 94.3842 31.8345C94.649 31.6311 94.9515 31.4823 95.2742 31.3966C95.4046 31.3492 95.5433 31.3287 95.6819 31.3363C95.8204 31.3439 95.956 31.3794 96.0804 31.4408C95.8261 31.4713 95.5737 31.5165 95.3246 31.576C94.7507 31.788 94.2681 32.1925 93.9591 32.7206C93.6619 33.2674 93.4533 33.858 93.3408 34.4701C93.312 34.7348 93.2397 34.9929 93.1269 35.2341Z" fill="#263238"/>
<path d="M96.4649 39.2627C96.3089 39.5074 96.1029 39.7163 95.8604 39.8757C95.6179 40.0351 95.3444 40.1414 95.0579 40.1876C94.7829 40.2797 94.4915 40.3126 94.2029 40.2841C93.9142 40.2557 93.6349 40.1665 93.3832 40.0225C93.9181 40.047 94.4542 40.0157 94.9826 39.9291C95.499 39.7603 95.9959 39.5369 96.4649 39.2627Z" fill="#263238"/>
<path d="M90.5344 43.0912C90.5278 43.1214 90.4043 43.205 90.15 43.2127C89.9813 43.2173 89.8134 43.1882 89.656 43.1272C89.4987 43.0662 89.3551 42.9744 89.2337 42.8573C89.1122 42.7401 89.0153 42.6 88.9486 42.445C88.8819 42.2899 88.8467 42.1232 88.8452 41.9545C88.8486 41.6973 88.9307 41.5625 88.9608 41.5691C88.991 41.5757 88.9904 41.7229 89.0342 41.9325C89.084 42.2042 89.2122 42.4554 89.403 42.6551C89.6068 42.8442 89.8605 42.9708 90.1341 43.0198C90.3836 43.0584 90.5281 43.0477 90.5344 43.0912Z" fill="#263238"/>
<path d="M87.7297 48.9064C87.4174 48.9176 87.1065 48.8606 86.8186 48.7394C86.1062 48.4892 85.4535 48.094 84.9018 47.5787C84.35 47.0634 83.9112 46.4392 83.6131 45.7455C83.4689 45.4684 83.3916 45.1613 83.3875 44.8489C83.5382 45.1131 83.672 45.3866 83.7879 45.6678C84.4551 46.9644 85.5537 47.9876 86.8943 48.5611C87.1802 48.6572 87.4593 48.7726 87.7297 48.9064Z" fill="#263238"/>
<path d="M75.6189 58.2933C75.7938 56.6538 76.1461 55.0381 76.6695 53.4745C76.4945 55.1141 76.1422 56.7298 75.6189 58.2933Z" fill="#263238"/>
<path d="M81.1959 57.557C80.4247 57.674 79.6366 57.6051 78.8974 57.3559C78.3341 57.2616 77.8202 56.9767 77.4416 56.549C77.1768 56.1702 77.2497 55.8597 77.2788 55.8713C77.3078 55.8829 77.3306 56.1405 77.5889 56.4285C77.9734 56.7792 78.4511 57.0112 78.9644 57.0968C80.1712 57.4283 81.1973 57.4783 81.1959 57.557Z" fill="#263238"/>
<path d="M85.7964 60.092C85.7555 59.397 85.7998 58.6995 85.9281 58.0152C85.9725 57.3177 86.1051 56.6285 86.3227 55.9642C86.3284 57.359 86.1511 58.7484 85.7953 60.097L85.7964 60.092Z" fill="#263238"/>
<path d="M86.2581 56.7921C86.0095 57.2157 85.6148 57.5339 85.1482 57.687C84.6816 57.8402 84.1751 57.8178 83.7239 57.624C84.1756 57.5962 84.6243 57.5321 85.0658 57.4323C85.7728 57.2074 86.1965 56.7366 86.2581 56.7921Z" fill="#263238"/>
<path d="M98.9527 22.4192C98.3338 22.5491 97.7319 22.7499 97.159 23.0177C96.6297 23.3645 96.1432 23.7726 95.7096 24.2334C95.6794 24.2268 95.76 24.0023 95.9708 23.7113C96.2548 23.3323 96.6149 23.0168 97.028 22.7851C97.4411 22.5534 97.8981 22.4105 98.3696 22.3658C98.7332 22.3398 98.9543 22.388 98.9527 22.4192Z" fill="#455A64"/>
<path d="M99.683 22.0149C99.5441 21.9034 99.3681 21.8487 99.1905 21.8617C99.0128 21.8748 98.8467 21.9546 98.7255 22.0852C98.6444 22.1807 98.594 22.2985 98.581 22.4232C98.5679 22.5478 98.5928 22.6735 98.6524 22.7838C98.712 22.894 98.8035 22.9837 98.9149 23.0411C99.0263 23.0985 99.1525 23.121 99.2769 23.1055C99.3829 23.0903 99.4841 23.0508 99.5723 22.9901C99.6606 22.9293 99.7336 22.8489 99.7856 22.7553C99.8377 22.6616 99.8673 22.5571 99.8723 22.4501C99.8772 22.3431 99.8573 22.2363 99.8141 22.1383C99.7863 22.0712 99.7409 22.013 99.6827 21.9697C99.6245 21.9264 99.5556 21.8997 99.4834 21.8925" fill="#455A64"/>
<path d="M96.8454 21.0015C96.2263 21.127 95.6244 21.3262 95.0527 21.595C94.5235 21.9419 94.037 22.3499 93.6033 22.8107C93.5732 22.8041 93.6527 22.5846 93.8595 22.2876C94.1464 21.9084 94.5092 21.5931 94.9246 21.3618C95.3383 21.1299 95.7962 20.9877 96.2684 20.9442C96.6069 20.9127 96.847 20.9703 96.8454 21.0015Z" fill="#455A64"/>
<path d="M97.577 20.5923C97.4374 20.4811 97.2608 20.427 97.0829 20.441C96.905 20.4549 96.739 20.5359 96.6185 20.6675C96.5362 20.7625 96.4848 20.8803 96.4713 21.0052C96.4578 21.1302 96.4827 21.2562 96.5428 21.3666C96.6028 21.477 96.6951 21.5664 96.8074 21.6229C96.9196 21.6794 97.0464 21.7003 97.1709 21.6828C97.2767 21.6682 97.3777 21.6293 97.4659 21.569C97.5541 21.5088 97.627 21.4288 97.679 21.3355C97.731 21.2422 97.7606 21.1381 97.7655 21.0313C97.7703 20.9246 97.7503 20.8183 97.707 20.7206C97.6807 20.6526 97.6357 20.5934 97.5772 20.5499C97.5187 20.5064 97.449 20.4803 97.3763 20.4748" fill="#455A64"/>
</svg>
