<svg width="59" height="119" viewBox="0 0 59 119" fill="none" xmlns="http://www.w3.org/2000/svg">
<path d="M11.9726 88C11.9726 88 10.6011 69.3638 10.9863 57H46L44.0274 88H11.9726Z" fill="#ECC65A"/>
<path d="M10.9863 57C10.6011 69.3638 11.9726 88 11.9726 88H44.0274L46 57H10" stroke="#292929" stroke-width="1.5" stroke-linejoin="round"/>
<path d="M8.5 113.041C7.7667 108.809 8.62191 86.5382 9.50002 87.0414H47.5L47 91.5L46.6667 93.5C59.0775 96.0209 59.8175 107.726 56.1667 114C52.5159 120.274 9.2333 117.274 8.5 113.041Z" fill="#141111" stroke="#292929" stroke-width="1.5" stroke-linejoin="round"/>
<path d="M52.7628 61.2163C41.389 66.731 30.0162 73.9842 3.4886 61.2163C2.19171 47.7814 1.7565 39.6421 1 25.0865L55.7491 1C56.2214 27.505 56.3999 42.2072 52.7628 61.2163Z" fill="#ECC65A" stroke="#292929" stroke-width="1.5" stroke-linejoin="round"/>
</svg>
