<svg width="757" height="2187" viewBox="0 0 757 2187" fill="none" xmlns="http://www.w3.org/2000/svg">
<path d="M312.583 230.687C311.893 230.219 311.152 229.94 310.395 229.865C308.25 229.643 306.246 228.207 304.645 226.058C304.579 225.969 304.513 225.883 304.447 225.8C303.426 224.523 302.355 222.516 302.138 220.559C301.313 213.286 300.705 203.266 300.748 198H300.253C300.253 198 300.199 210.798 298.604 221.622C298.52 222.156 298.352 222.653 298.112 223.07C297.873 223.486 297.569 223.811 297.228 224.017C295.666 225 294.371 226.736 293.552 228.946C293.32 229.561 292.968 230.057 292.542 230.368C292.117 230.678 291.638 230.789 291.169 230.685C289.731 230.388 288.271 230.932 287.097 232.205C285.922 233.477 285.125 235.378 284.874 237.508L316.174 237.532C315.978 236.052 315.551 234.661 314.927 233.472C314.303 232.283 313.5 231.329 312.583 230.687Z" fill="#D9D9D9"/>
<path d="M278 248.738C278.776 240.075 286.035 233.436 294.733 233.436H306.423C315.093 233.436 322.308 240.096 323 248.738V248.738H278V248.738Z" fill="#D9D9D9"/>
<path d="M272 257.597C272.994 250.218 279.292 244.711 286.738 244.711H314.468C321.875 244.711 328.114 250.244 329 257.597V257.597H272V257.597Z" fill="#D9D9D9"/>
<path d="M265 267.254C265 259.169 272.944 253.57 281.029 253.57H320.243C328.22 253.57 335.613 259.286 336 267.254V267.254C336.144 270.223 265 270.739 265 267.254V267.254Z" fill="#D9D9D9"/>
<path d="M335.688 267.169C335.688 274.166 328.917 278.516 321.921 278.516H278.164C271.307 278.516 264.783 274.026 264.689 267.169V267.169C264.617 261.924 335.688 261.389 335.688 267.169V267.169Z" fill="#D9D9D9"/>
<path d="M331 275.315C329.976 284.041 322.582 290.617 313.796 290.617H288.994C280.248 290.617 272.914 284.013 272 275.315V275.315H331V275.315Z" fill="#D9D9D9"/>
<path d="M323.323 285.871C322.542 292.344 317.05 297.214 310.53 297.214H291.023C284.533 297.214 279.087 292.323 278.39 285.871V285.871H323.323V285.871Z" fill="#D9D9D9"/>
<path d="M315.759 294.387C315.211 300.224 311.778 305.826 306.045 307.053C302.804 307.747 299.777 307.708 296.453 306.96C290.771 305.68 287.285 300.19 286.798 294.387V294.387H315.759V294.387Z" fill="#D9D9D9"/>
<path d="M308.164 301.402C307.966 306.53 306.663 313.553 301.534 313.739V313.739C296.089 313.937 294.551 306.328 294.363 300.883L294.272 298.258H308.285L308.164 301.402Z" fill="#D9D9D9"/>
<path d="M452.583 230.687C451.893 230.219 451.152 229.94 450.395 229.865C448.25 229.643 446.246 228.207 444.645 226.058C444.579 225.969 444.513 225.883 444.447 225.8C443.426 224.523 442.355 222.516 442.138 220.559C441.313 213.286 440.705 203.266 440.748 198H440.253C440.253 198 440.199 210.798 438.604 221.622C438.52 222.156 438.352 222.653 438.112 223.07C437.873 223.486 437.569 223.811 437.228 224.017C435.666 225 434.371 226.736 433.552 228.946C433.32 229.561 432.968 230.057 432.542 230.368C432.117 230.678 431.638 230.789 431.169 230.685C429.731 230.388 428.271 230.932 427.097 232.205C425.922 233.477 425.125 235.378 424.874 237.508L456.174 237.532C455.978 236.052 455.551 234.661 454.927 233.472C454.303 232.283 453.5 231.329 452.583 230.687Z" fill="#D9D9D9"/>
<path d="M418 248.738C418.776 240.075 426.035 233.436 434.733 233.436H446.423C455.093 233.436 462.308 240.096 463 248.738V248.738H418V248.738Z" fill="#D9D9D9"/>
<path d="M412 257.597C412.994 250.218 419.292 244.711 426.738 244.711H454.468C461.875 244.711 468.114 250.244 469 257.597V257.597H412V257.597Z" fill="#D9D9D9"/>
<path d="M405 267.254C405 259.169 412.944 253.57 421.029 253.57H460.243C468.22 253.57 475.613 259.286 476 267.254V267.254C476.144 270.223 405 270.739 405 267.254V267.254Z" fill="#D9D9D9"/>
<path d="M475.688 267.169C475.688 274.166 468.917 278.516 461.921 278.516H418.164C411.307 278.516 404.783 274.026 404.689 267.169V267.169C404.617 261.924 475.688 261.389 475.688 267.169V267.169Z" fill="#D9D9D9"/>
<path d="M471 275.315C469.976 284.041 462.582 290.617 453.796 290.617H428.994C420.248 290.617 412.914 284.013 412 275.315V275.315H471V275.315Z" fill="#D9D9D9"/>
<path d="M463.323 285.871C462.542 292.344 457.05 297.214 450.53 297.214H431.023C424.533 297.214 419.087 292.323 418.39 285.871V285.871H463.323V285.871Z" fill="#D9D9D9"/>
<path d="M455.759 294.387C455.211 300.224 451.778 305.826 446.045 307.053C442.804 307.747 439.777 307.708 436.453 306.96C430.771 305.68 427.285 300.19 426.798 294.387V294.387H455.759V294.387Z" fill="#D9D9D9"/>
<path d="M448.164 301.402C447.966 306.53 446.663 313.553 441.534 313.739V313.739C436.089 313.937 434.551 306.328 434.363 300.883L434.272 298.258H448.285L448.164 301.402Z" fill="#D9D9D9"/>
<path d="M372.74 582C372.74 582 313.927 510.113 370.747 404.5C427.567 298.888 370.747 227 370.747 227" stroke="#333333" stroke-width="6"/>
<path d="M335.573 197.663H289.668V72.5934C289.668 67.7186 292.078 63.0435 296.369 59.5965C300.659 56.1495 306.478 54.213 312.546 54.213C318.614 54.213 324.433 56.1495 328.723 59.5965C333.014 63.0435 335.424 67.7186 335.424 72.5934L335.573 197.663Z" fill="#FF725E"/>
<path d="M335.573 197.663H289.668V72.5934C289.668 67.7186 292.078 63.0435 296.369 59.5965C300.659 56.1495 306.478 54.213 312.546 54.213C318.614 54.213 324.433 56.1495 328.723 59.5965C333.014 63.0435 335.424 67.7186 335.424 72.5934L335.573 197.663Z" fill="#455A64"/>
<path d="M335.573 70.59C335.573 70.7186 325.335 70.8289 312.695 70.8289C300.054 70.8289 289.816 70.7186 289.816 70.59C289.816 70.4613 300.112 70.351 312.695 70.351C325.278 70.351 335.573 70.4521 335.573 70.59Z" fill="#263238"/>
<path d="M335.573 102.517C335.573 102.655 325.335 102.756 312.695 102.756C300.054 102.756 289.816 102.655 289.816 102.517C289.816 102.379 300.112 102.278 312.695 102.278C325.278 102.278 335.573 102.388 335.573 102.517Z" fill="#263238"/>
<path d="M322.841 102.517C322.681 102.517 322.544 95.3668 322.544 86.5533C322.544 77.7399 322.681 70.59 322.841 70.59C323.001 70.59 323.138 77.7308 323.138 86.5533C323.138 95.3759 323.024 102.517 322.841 102.517Z" fill="#263238"/>
<path d="M317.477 79.8813C317.477 80.1376 317.382 80.3881 317.205 80.6012C317.028 80.8143 316.776 80.9804 316.481 81.0785C316.186 81.1765 315.862 81.2022 315.549 81.1522C315.236 81.1022 314.949 80.9788 314.723 80.7976C314.498 80.6163 314.344 80.3854 314.282 80.1341C314.219 79.8827 314.251 79.6222 314.374 79.3854C314.496 79.1486 314.702 78.9462 314.968 78.8038C315.233 78.6615 315.545 78.5854 315.864 78.5854C316.291 78.5854 316.702 78.722 317.004 78.965C317.307 79.208 317.477 79.5376 317.477 79.8813Z" fill="#263238"/>
<path d="M317.477 90.9187C317.477 91.175 317.382 91.4256 317.205 91.6387C317.028 91.8517 316.776 92.0178 316.481 92.1159C316.186 92.214 315.862 92.2397 315.549 92.1897C315.236 92.1397 314.949 92.0162 314.723 91.835C314.498 91.6538 314.344 91.4229 314.282 91.1715C314.219 90.9202 314.251 90.6596 314.374 90.4228C314.496 90.1861 314.702 89.9837 314.968 89.8413C315.233 89.6989 315.545 89.6229 315.864 89.6229C316.291 89.6229 316.702 89.7594 317.004 90.0025C317.307 90.2455 317.477 90.5751 317.477 90.9187Z" fill="#263238"/>
<path d="M335.573 167.492C335.573 167.62 325.335 167.73 312.695 167.73C300.054 167.73 289.816 167.62 289.816 167.492C289.816 167.363 300.112 167.253 312.695 167.253C325.278 167.253 335.573 167.335 335.573 167.492Z" fill="#263238"/>
<path d="M322.841 167.491C322.681 167.491 322.544 160.341 322.544 151.528C322.544 142.715 322.681 135.565 322.841 135.565C323.001 135.565 323.138 142.705 323.138 151.528C323.138 160.351 323.024 167.491 322.841 167.491Z" fill="#263238"/>
<path d="M315.864 146.115C316.754 146.115 317.477 145.535 317.477 144.819C317.477 144.104 316.754 143.523 315.864 143.523C314.973 143.523 314.251 144.104 314.251 144.819C314.251 145.535 314.973 146.115 315.864 146.115Z" fill="#263238"/>
<path d="M315.864 157.162C316.754 157.162 317.477 156.582 317.477 155.866C317.477 155.15 316.754 154.57 315.864 154.57C314.973 154.57 314.251 155.15 314.251 155.866C314.251 156.582 314.973 157.162 315.864 157.162Z" fill="#263238"/>
<path d="M289.851 135.326C289.851 135.197 300.146 135.087 312.729 135.087C325.312 135.087 335.608 135.197 335.608 135.326C335.608 135.454 325.369 135.565 312.729 135.565C300.089 135.565 289.851 135.409 289.851 135.326Z" fill="#263238"/>
<path d="M302.559 135.326C302.4 135.326 302.262 128.176 302.262 119.362C302.262 110.549 302.4 103.399 302.559 103.399C302.719 103.399 302.857 110.54 302.857 119.362C302.857 128.185 302.731 135.326 302.559 135.326Z" fill="#263238"/>
<path d="M307.971 112.644C307.973 112.9 308.07 113.15 308.248 113.362C308.427 113.574 308.679 113.738 308.974 113.835C309.269 113.932 309.593 113.956 309.905 113.905C310.217 113.854 310.504 113.73 310.728 113.548C310.953 113.367 311.105 113.136 311.166 112.885C311.228 112.634 311.195 112.373 311.073 112.137C310.95 111.901 310.744 111.699 310.479 111.557C310.214 111.415 309.902 111.339 309.584 111.339C309.371 111.339 309.16 111.373 308.964 111.439C308.767 111.505 308.589 111.601 308.439 111.722C308.289 111.843 308.171 111.987 308.09 112.146C308.01 112.304 307.969 112.473 307.971 112.644Z" fill="#263238"/>
<path d="M307.971 123.682C307.971 123.938 308.065 124.189 308.243 124.402C308.42 124.615 308.672 124.781 308.966 124.879C309.261 124.977 309.585 125.003 309.898 124.953C310.211 124.903 310.499 124.779 310.724 124.598C310.95 124.417 311.103 124.186 311.166 123.935C311.228 123.683 311.196 123.423 311.074 123.186C310.952 122.949 310.745 122.747 310.48 122.604C310.214 122.462 309.903 122.386 309.584 122.386C309.156 122.386 308.746 122.523 308.443 122.766C308.141 123.009 307.971 123.338 307.971 123.682Z" fill="#263238"/>
<path d="M292.722 73.7515C292.678 73.5077 292.678 73.26 292.722 73.0163C292.773 72.3475 292.873 71.6816 293.02 71.022C293.479 68.8334 294.33 66.7099 295.548 64.7175C296.235 63.6259 297.055 62.5915 297.996 61.6296C298.779 60.8504 299.66 60.1389 300.627 59.5067C300.993 59.2671 301.375 59.0432 301.771 58.8358C302.062 58.6657 302.372 58.5179 302.697 58.3946C302.955 58.2609 303.237 58.1587 303.532 58.0914C303.59 58.1741 302.446 58.6703 300.89 59.7732C299.982 60.4208 299.151 61.1345 298.408 61.9053C297.52 62.8607 296.735 63.8753 296.063 64.9381C294.881 66.895 293.997 68.9593 293.432 71.0863C292.985 72.713 292.825 73.7515 292.722 73.7515Z" fill="#FAFAFA"/>
<path d="M311.288 56.5197C311.288 56.6484 310.602 56.8506 309.686 56.9792C308.771 57.1079 308.016 57.0987 307.993 56.9792C307.971 56.8598 308.68 56.6392 309.595 56.5105C310.51 56.3819 311.265 56.3819 311.288 56.5197Z" fill="#FAFAFA"/>
<path d="M409.31 197.663H455.17V72.5935C455.17 70.1759 454.576 67.782 453.423 65.549C452.269 63.316 450.579 61.2877 448.449 59.5803C446.318 57.8729 443.789 56.52 441.007 55.599C438.225 54.678 435.243 54.207 432.234 54.2131C426.166 54.2131 420.347 56.1496 416.057 59.5966C411.766 63.0436 409.356 67.7187 409.356 72.5935L409.31 197.663Z" fill="#FF725E"/>
<path d="M409.31 197.663H455.17V72.5935C455.17 70.1759 454.576 67.782 453.423 65.549C452.269 63.316 450.579 61.2877 448.449 59.5803C446.318 57.8729 443.789 56.52 441.007 55.599C438.225 54.678 435.243 54.207 432.234 54.2131C426.166 54.2131 420.347 56.1496 416.057 59.5966C411.766 63.0436 409.356 67.7187 409.356 72.5935L409.31 197.663Z" fill="#455A64"/>
<path d="M409.31 70.59C409.31 70.4521 419.605 70.351 432.188 70.351C444.771 70.351 455.067 70.4521 455.067 70.59C455.067 70.7278 444.829 70.8289 432.188 70.8289C419.548 70.8289 409.31 70.7186 409.31 70.59Z" fill="#263238"/>
<path d="M409.31 102.517C409.31 102.388 419.605 102.278 432.188 102.278C444.771 102.278 455.067 102.388 455.067 102.517C455.067 102.645 444.829 102.756 432.188 102.756C419.548 102.756 409.31 102.655 409.31 102.517Z" fill="#263238"/>
<path d="M422.018 102.517C421.859 102.517 421.721 95.3668 421.721 86.5533C421.721 77.7399 421.859 70.59 422.018 70.59C422.178 70.59 422.315 77.7308 422.315 86.5533C422.315 95.3759 422.19 102.517 422.018 102.517Z" fill="#263238"/>
<path d="M427.396 79.8813C427.396 80.1376 427.49 80.3881 427.667 80.6012C427.845 80.8143 428.096 80.9804 428.391 81.0785C428.686 81.1765 429.01 81.2022 429.323 81.1522C429.636 81.1022 429.923 80.9788 430.149 80.7976C430.375 80.6163 430.528 80.3854 430.59 80.1341C430.653 79.8827 430.621 79.6222 430.499 79.3854C430.377 79.1486 430.17 78.9462 429.905 78.8038C429.639 78.6615 429.327 78.5854 429.008 78.5854C428.581 78.5854 428.17 78.722 427.868 78.965C427.565 79.208 427.396 79.5376 427.396 79.8813Z" fill="#263238"/>
<path d="M427.396 90.9187C427.396 91.175 427.49 91.4256 427.667 91.6387C427.845 91.8517 428.096 92.0178 428.391 92.1159C428.686 92.214 429.01 92.2397 429.323 92.1897C429.636 92.1397 429.923 92.0162 430.149 91.835C430.375 91.6538 430.528 91.4229 430.59 91.1715C430.653 90.9202 430.621 90.6596 430.499 90.4228C430.377 90.1861 430.17 89.9837 429.905 89.8413C429.639 89.6989 429.327 89.6229 429.008 89.6229C428.581 89.6229 428.17 89.7594 427.868 90.0025C427.565 90.2455 427.396 90.5751 427.396 90.9187Z" fill="#263238"/>
<path d="M409.31 167.492C409.31 167.363 419.605 167.253 432.188 167.253C444.771 167.253 455.067 167.363 455.067 167.492C455.067 167.62 444.829 167.73 432.188 167.73C419.548 167.73 409.31 167.593 409.31 167.492Z" fill="#263238"/>
<path d="M422.018 167.491C421.859 167.491 421.721 160.341 421.721 151.528C421.721 142.715 421.859 135.565 422.018 135.565C422.178 135.565 422.361 142.678 422.361 151.501C422.361 160.323 422.19 167.491 422.018 167.491Z" fill="#263238"/>
<path d="M429.008 146.115C429.899 146.115 430.621 145.535 430.621 144.819C430.621 144.104 429.899 143.523 429.008 143.523C428.118 143.523 427.396 144.104 427.396 144.819C427.396 145.535 428.118 146.115 429.008 146.115Z" fill="#263238"/>
<path d="M429.008 157.162C429.899 157.162 430.621 156.582 430.621 155.866C430.621 155.15 429.899 154.57 429.008 154.57C428.118 154.57 427.396 155.15 427.396 155.866C427.396 156.582 428.118 157.162 429.008 157.162Z" fill="#263238"/>
<path d="M455.032 135.326C455.032 135.454 444.794 135.565 432.154 135.565C419.514 135.565 409.276 135.454 409.276 135.326C409.276 135.197 419.571 135.087 432.154 135.087C444.737 135.087 455.032 135.151 455.032 135.326Z" fill="#263238"/>
<path d="M442.312 135.326C442.152 135.326 442.015 128.176 442.015 119.362C442.015 110.549 442.152 103.399 442.312 103.399C442.472 103.399 442.609 110.54 442.609 119.362C442.609 128.185 442.483 135.326 442.312 135.326Z" fill="#263238"/>
<path d="M436.936 112.644C436.933 112.9 436.837 113.15 436.658 113.362C436.48 113.574 436.227 113.738 435.932 113.835C435.637 113.932 435.313 113.956 435.001 113.905C434.689 113.854 434.403 113.73 434.178 113.548C433.954 113.367 433.801 113.136 433.74 112.885C433.679 112.634 433.711 112.373 433.834 112.137C433.956 111.901 434.163 111.699 434.428 111.557C434.693 111.415 435.004 111.339 435.323 111.339C435.535 111.339 435.746 111.373 435.943 111.439C436.139 111.505 436.317 111.601 436.467 111.722C436.617 111.843 436.736 111.987 436.816 112.146C436.896 112.304 436.937 112.473 436.936 112.644Z" fill="#263238"/>
<path d="M436.936 123.682C436.936 123.938 436.841 124.189 436.664 124.402C436.487 124.615 436.235 124.781 435.94 124.879C435.645 124.977 435.321 125.003 435.008 124.953C434.695 124.903 434.408 124.779 434.182 124.598C433.957 124.417 433.803 124.186 433.741 123.935C433.678 123.683 433.71 123.423 433.833 123.186C433.955 122.949 434.161 122.747 434.427 122.604C434.692 122.462 435.004 122.386 435.323 122.386C435.534 122.386 435.744 122.42 435.94 122.485C436.136 122.55 436.313 122.645 436.463 122.766C436.613 122.886 436.732 123.029 436.813 123.186C436.894 123.343 436.936 123.512 436.936 123.682Z" fill="#263238"/>
<path d="M452.104 73.7515C452.012 73.7515 451.841 72.7222 451.395 71.0863C450.824 68.9592 449.937 66.8949 448.752 64.9381C448.088 63.8715 447.303 62.8563 446.407 61.9053C445.667 61.1349 444.84 60.4211 443.936 59.7732C442.381 58.6703 441.225 58.1741 441.283 58.0914C441.583 58.1554 441.869 58.2578 442.129 58.3946C442.454 58.5179 442.765 58.6657 443.056 58.8358C443.451 59.0432 443.833 59.2671 444.2 59.5067C445.166 60.1389 446.048 60.8504 446.831 61.6296C447.771 62.5915 448.591 63.6259 449.279 64.7175C450.488 66.7115 451.336 68.8346 451.795 71.022C451.945 71.6815 452.048 72.3474 452.104 73.0163C452.16 73.2592 452.16 73.5085 452.104 73.7515Z" fill="white"/>
<path d="M433.584 56.5198C433.584 56.382 434.374 56.382 435.289 56.5198C436.204 56.6577 436.913 56.8507 436.89 56.9885C436.867 57.1264 436.101 57.1172 435.186 56.9885C434.271 56.8599 433.561 56.6485 433.584 56.5198Z" fill="white"/>
<path d="M358.875 4.96272L342.791 29.3535C338.048 36.5375 335.57 44.5462 335.573 52.6783V222.375L363.771 236.85H383.32L409.63 222.375V53.4227C409.608 45.6229 407.308 37.9362 402.916 30.9802L386.546 4.82486C385.636 3.37298 384.242 2.1529 382.519 1.30088C380.796 0.448867 378.812 -0.00152865 376.789 3.89803e-06H368.69C366.639 0.00365705 364.631 0.471036 362.895 1.34867C361.159 2.22631 359.766 3.47876 358.875 4.96272Z" fill="#FF725E"/>
<path d="M335.573 208.847H264.65C264.65 208.847 264.65 183.731 294.312 165.856C323.974 147.981 335.585 107.553 335.585 107.553L335.573 208.847Z" fill="#FF725E"/>
<path d="M409.608 208.847H480.531C480.531 208.847 480.531 183.731 450.869 165.856C421.207 147.981 409.608 107.553 409.608 107.553V208.847Z" fill="#FF725E"/>
<path opacity="0.2" d="M335.573 208.847H264.65C264.65 208.847 264.65 183.731 294.312 165.856C323.974 147.981 335.585 107.553 335.585 107.553L335.573 208.847Z" fill="black"/>
<path opacity="0.2" d="M409.608 208.847H480.531C480.531 208.847 480.531 183.731 450.869 165.856C421.207 147.981 409.608 107.553 409.608 107.553V208.847Z" fill="black"/>
<path d="M340.789 120.153C340.629 120.153 340.492 107.627 340.492 92.1686C340.492 76.7107 340.629 64.1844 340.789 64.1844C340.949 64.1844 341.143 76.7107 341.143 92.1319C341.143 107.553 340.949 120.153 340.789 120.153Z" fill="#FAFAFA"/>
<path d="M341.567 47.5869C341.864 48.4129 341.965 49.2766 341.864 50.1326C341.965 50.9886 341.864 51.8523 341.567 52.6783C341.277 51.8513 341.176 50.9886 341.27 50.1326C341.176 49.2766 341.277 48.4139 341.567 47.5869Z" fill="#FAFAFA"/>
<path d="M364.457 4.25504C364.606 4.31018 359.756 12.131 353.636 21.7164C347.516 31.3018 342.437 39.0308 342.288 38.9664C342.139 38.9021 346.99 31.0904 353.109 21.5051C359.229 11.9197 364.308 4.19071 364.457 4.25504Z" fill="#FAFAFA"/>
<path d="M327.898 134.048C327.913 134.121 327.913 134.196 327.898 134.269C327.898 134.443 327.818 134.655 327.76 134.921L327.509 135.969C327.403 136.451 327.258 136.927 327.074 137.394C326.067 140.404 324.583 143.298 322.658 146.005C319.784 150.005 316.357 153.732 312.443 157.116C308.085 160.976 302.88 164.881 297.378 168.925C292.198 172.705 287.493 176.886 283.331 181.405C281.533 183.385 279.868 185.441 278.343 187.563C277.034 189.423 275.847 191.338 274.786 193.298C273.25 196.136 272.036 199.079 271.159 202.093C270.816 203.149 270.679 203.995 270.507 204.556L270.336 205.199C270.327 205.276 270.3 205.351 270.256 205.419C270.243 205.346 270.243 205.272 270.256 205.199L270.37 204.546C270.496 203.977 270.599 203.122 270.908 202.047C271.696 199.003 272.845 196.027 274.339 193.16C275.378 191.18 276.551 189.247 277.851 187.37C279.369 185.225 281.03 183.148 282.827 181.148C286.993 176.589 291.714 172.374 296.92 168.567C302.423 164.532 307.627 160.645 311.986 156.812C315.909 153.467 319.362 149.784 322.281 145.83C324.224 143.16 325.76 140.312 326.857 137.348C327.047 136.886 327.208 136.417 327.337 135.941C327.451 135.537 327.554 135.197 327.634 134.903C327.715 134.609 327.783 134.434 327.84 134.26C327.845 134.187 327.865 134.116 327.898 134.048Z" fill="#FAFAFA"/>
<path d="M378.699 58.22H366.47C362.915 58.22 359.505 57.0852 356.99 55.0652C354.476 53.0453 353.064 50.3056 353.064 47.449C353.064 44.5924 354.476 41.8528 356.99 39.8328C359.505 37.8129 362.915 36.6781 366.47 36.6781H378.699C380.46 36.6769 382.204 36.9547 383.831 37.4955C385.458 38.0364 386.937 38.8297 388.182 39.8301C389.427 40.8305 390.415 42.0184 391.088 43.3257C391.761 44.6331 392.107 46.0342 392.106 47.449C392.106 50.3056 390.693 53.0453 388.179 55.0652C385.665 57.0852 382.255 58.22 378.699 58.22Z" fill="white"/>
<path opacity="0.4" d="M335.573 222.375L363.771 236.841H383.32L409.608 222.375V216.411H335.573V222.375Z" fill="black"/>
<path d="M444.85 1735C449.124 1777.91 454.188 1828.75 459.037 1899.5H253.23C248.481 1821.05 241.142 1761.07 234.521 1706.95C217.568 1568.38 205.32 1468.26 253.295 1195.26C286.742 1004.93 293.452 880.254 288.435 777.147C284.969 705.92 275.901 644.966 266.214 579.85C261.963 551.275 257.592 521.898 253.524 490.5H459.28C463.784 537.482 468.069 575.481 471.825 608.789C478.621 669.056 483.685 713.968 485.18 768.957C487.509 854.591 481.17 964.605 459.15 1194.86C437.13 1425.11 432.093 1527.99 435.089 1610.19C436.586 1651.29 440.092 1687.2 444.474 1731.22C444.599 1732.47 444.724 1733.73 444.85 1735Z" fill="#D9D9D9" stroke="#333333" stroke-width="3"/>
<path d="M353.371 606V559.455H386.098V569.636H366.007V577.636H384.098V587.818H366.007V606H353.371ZM371.277 683V636.455H404.823V646.636H383.914V654.636H403.096V664.818H383.914V672.818H404.732V683H371.277ZM385.652 760V713.455H398.289V749.818H417.107V760H385.652ZM400.882 790.455V837H388.246V790.455H400.882ZM350.022 914V907L372.022 877.636H350.113V867.455H388.113V874.455L366.113 903.818H388.022V914H350.022ZM365.056 1068H351.419L366.783 1021.45H384.056L399.419 1068H385.783L375.601 1034.27H375.238L365.056 1068ZM362.51 1049.64H388.147V1059.09H362.51V1049.64ZM382.831 1098.45V1145H372.286L355.468 1120.55H355.195V1145H342.559V1098.45H353.286L369.831 1122.82H370.195V1098.45H382.831ZM375.382 1175.45V1222H362.746V1175.45H375.382ZM346.567 1252.45L356.113 1285.27H356.476L366.022 1252.45H380.294L364.931 1299H347.658L332.294 1252.45H346.567ZM333.027 1376V1329.45H366.573V1339.64H345.664V1347.64H364.846V1357.82H345.664V1365.82H366.482V1376H333.027ZM318.809 1453V1406.45H338.9C342.354 1406.45 345.377 1407.08 347.968 1408.34C350.559 1409.6 352.574 1411.41 354.013 1413.77C355.453 1416.14 356.172 1418.97 356.172 1422.27C356.172 1425.61 355.43 1428.42 353.945 1430.7C352.475 1432.99 350.407 1434.72 347.74 1435.89C345.089 1437.05 341.99 1437.64 338.445 1437.64H326.445V1427.82H335.9C337.384 1427.82 338.65 1427.64 339.695 1427.27C340.756 1426.89 341.566 1426.3 342.127 1425.48C342.703 1424.66 342.99 1423.59 342.99 1422.27C342.99 1420.94 342.703 1419.86 342.127 1419.02C341.566 1418.17 340.756 1417.55 339.695 1417.16C338.65 1416.75 337.384 1416.55 335.9 1416.55H331.445V1453H318.809ZM346.081 1431.64L357.718 1453H343.99L332.627 1431.64H346.081ZM331.212 1498C331.091 1496.48 330.523 1495.3 329.507 1494.45C328.507 1493.61 326.985 1493.18 324.939 1493.18C323.636 1493.18 322.568 1493.34 321.735 1493.66C320.917 1493.96 320.31 1494.38 319.917 1494.91C319.523 1495.44 319.318 1496.05 319.303 1496.73C319.273 1497.29 319.371 1497.8 319.598 1498.25C319.841 1498.69 320.22 1499.09 320.735 1499.45C321.25 1499.8 321.909 1500.12 322.712 1500.41C323.515 1500.7 324.47 1500.95 325.576 1501.18L329.394 1502C331.97 1502.55 334.174 1503.27 336.007 1504.16C337.841 1505.05 339.341 1506.11 340.507 1507.32C341.674 1508.52 342.53 1509.86 343.076 1511.36C343.636 1512.86 343.924 1514.5 343.939 1516.27C343.924 1519.33 343.159 1521.92 341.644 1524.05C340.129 1526.17 337.962 1527.78 335.144 1528.89C332.341 1529.99 328.97 1530.55 325.03 1530.55C320.985 1530.55 317.454 1529.95 314.439 1528.75C311.439 1527.55 309.106 1525.71 307.439 1523.23C305.788 1520.73 304.954 1517.53 304.939 1513.64H316.939C317.015 1515.06 317.371 1516.26 318.007 1517.23C318.644 1518.2 319.538 1518.93 320.689 1519.43C321.856 1519.93 323.242 1520.18 324.848 1520.18C326.197 1520.18 327.326 1520.02 328.235 1519.68C329.144 1519.35 329.833 1518.89 330.303 1518.3C330.773 1517.7 331.015 1517.03 331.03 1516.27C331.015 1515.56 330.78 1514.94 330.326 1514.41C329.886 1513.86 329.159 1513.38 328.144 1512.95C327.129 1512.52 325.757 1512.11 324.03 1511.73L319.394 1510.73C315.273 1509.83 312.023 1508.34 309.644 1506.25C307.28 1504.14 306.106 1501.27 306.121 1497.64C306.106 1494.68 306.894 1492.1 308.485 1489.89C310.091 1487.66 312.31 1485.92 315.144 1484.68C317.992 1483.44 321.257 1482.82 324.939 1482.82C328.697 1482.82 331.947 1483.45 334.689 1484.7C337.432 1485.96 339.545 1487.73 341.03 1490.02C342.53 1492.3 343.288 1494.95 343.303 1498H331.212ZM320.431 1607H306.794L322.158 1560.45H339.431L354.794 1607H341.158L330.976 1573.27H330.613L320.431 1607ZM317.885 1588.64H343.522V1598.09H317.885V1588.64ZM326.613 1556.09L330.976 1545.91H341.703L334.885 1556.09H326.613ZM325.184 1684V1637.45H345.275C348.729 1637.45 351.752 1638.08 354.343 1639.34C356.934 1640.6 358.949 1642.41 360.388 1644.77C361.828 1647.14 362.547 1649.97 362.547 1653.27C362.547 1656.61 361.805 1659.42 360.32 1661.7C358.85 1663.99 356.782 1665.72 354.115 1666.89C351.464 1668.05 348.365 1668.64 344.82 1668.64H332.82V1658.82H342.275C343.759 1658.82 345.025 1658.64 346.07 1658.27C347.131 1657.89 347.941 1657.3 348.502 1656.48C349.078 1655.66 349.365 1654.59 349.365 1653.27C349.365 1651.94 349.078 1650.86 348.502 1650.02C347.941 1649.17 347.131 1648.55 346.07 1648.16C345.025 1647.75 343.759 1647.55 342.275 1647.55H337.82V1684H325.184ZM352.456 1662.64L364.093 1684H350.365L339.002 1662.64H352.456ZM356.257 1714.45V1761H343.621V1714.45H356.257ZM385.306 1814.73C385.306 1819.91 384.298 1824.28 382.283 1827.84C380.268 1831.39 377.548 1834.08 374.124 1835.91C370.7 1837.73 366.882 1838.64 362.669 1838.64C358.427 1838.64 354.594 1837.72 351.169 1835.89C347.76 1834.04 345.048 1831.34 343.033 1827.8C341.033 1824.23 340.033 1819.88 340.033 1814.73C340.033 1809.55 341.033 1805.18 343.033 1801.64C345.048 1798.08 347.76 1795.39 351.169 1793.57C354.594 1791.73 358.427 1790.82 362.669 1790.82C366.882 1790.82 370.7 1791.73 374.124 1793.57C377.548 1795.39 380.268 1798.08 382.283 1801.64C384.298 1805.18 385.306 1809.55 385.306 1814.73ZM372.306 1814.73C372.306 1811.94 371.935 1809.59 371.192 1807.68C370.465 1805.76 369.382 1804.3 367.942 1803.32C366.518 1802.32 364.76 1801.82 362.669 1801.82C360.578 1801.82 358.813 1802.32 357.374 1803.32C355.95 1804.3 354.866 1805.76 354.124 1807.68C353.397 1809.59 353.033 1811.94 353.033 1814.73C353.033 1817.52 353.397 1819.87 354.124 1821.8C354.866 1823.7 355.95 1825.16 357.374 1826.16C358.813 1827.14 360.578 1827.64 362.669 1827.64C364.76 1827.64 366.518 1827.14 367.942 1826.16C369.382 1825.16 370.465 1823.7 371.192 1821.8C371.935 1819.87 372.306 1817.52 372.306 1814.73Z" fill="#333333"/>
</svg>
