<svg width="770" height="723" viewBox="0 0 770 723" fill="none" xmlns="http://www.w3.org/2000/svg">
<path d="M60.8677 338.386L71.3293 279.355C72.7704 271.275 70.9783 262.948 66.3457 256.199C61.7131 249.451 54.6183 244.832 46.6166 243.355C38.6109 241.9 30.3605 243.709 23.6742 248.385C16.9879 253.06 12.4111 260.221 10.9478 268.297L0.486213 327.328C-0.954961 335.408 0.83721 343.735 5.46978 350.484C10.1023 357.232 17.1972 361.851 25.1989 363.328C33.2046 364.783 41.4549 362.974 48.1413 358.298C54.8276 353.622 59.4044 346.462 60.8677 338.386Z" fill="#DBDBDB"/>
<path d="M769.298 352.021L761.06 292.658C759.858 284.51 755.51 277.173 748.966 272.25C742.421 267.328 734.212 265.219 726.133 266.385C722.134 266.966 718.288 268.336 714.815 270.419C711.341 272.501 708.309 275.255 705.891 278.521C703.473 281.788 701.718 285.503 700.724 289.456C699.731 293.408 699.519 297.519 700.102 301.554L708.34 360.917C708.915 364.953 710.273 368.835 712.336 372.34C714.399 375.846 717.127 378.907 720.364 381.347C723.6 383.787 727.282 385.559 731.198 386.562C735.114 387.565 739.187 387.778 743.185 387.19C751.266 386.016 758.555 381.653 763.452 375.059C768.348 368.465 770.451 360.179 769.298 352.021Z" fill="#DBDBDB"/>
<path d="M162.024 121.555L185.336 99.6053C188.295 96.8244 190.681 93.4816 192.357 89.7684C194.033 86.0552 194.967 82.0446 195.105 77.9665C195.243 73.8884 194.582 69.8229 193.16 66.0031C191.738 62.1833 189.583 58.6843 186.819 55.7065C184.064 52.7203 180.752 50.3122 177.073 48.6203C173.394 46.9284 169.42 45.9859 165.38 45.8469C161.339 45.7078 157.311 46.375 153.526 47.8101C149.742 49.2453 146.275 51.4201 143.325 54.21L120.012 76.1593C117.054 78.9402 114.668 82.283 112.991 85.9962C111.315 89.7094 110.381 93.7199 110.244 97.7981C110.106 101.876 110.767 105.942 112.189 109.761C113.611 113.581 115.766 117.08 118.53 120.058C121.285 123.044 124.597 125.452 128.276 127.144C131.955 128.836 135.929 129.779 139.969 129.918C144.01 130.057 148.038 129.39 151.822 127.954C155.607 126.519 159.074 124.345 162.024 121.555Z" fill="#DBDBDB"/>
<path d="M194.645 610.923L172.898 587.144C170.143 584.158 166.831 581.75 163.152 580.058C159.473 578.366 155.499 577.424 151.459 577.285C147.418 577.146 143.39 577.813 139.605 579.248C135.821 580.683 132.354 582.858 129.404 585.648C126.445 588.429 124.059 591.771 122.383 595.484C120.706 599.198 119.773 603.208 119.635 607.286C119.497 611.364 120.158 615.43 121.58 619.25C123.002 623.07 125.157 626.569 127.921 629.546L149.668 653.075C152.423 656.062 155.735 658.47 159.414 660.162C163.093 661.853 167.067 662.796 171.108 662.935C175.148 663.074 179.176 662.407 182.961 660.972C186.745 659.537 190.212 657.362 193.163 654.572C199.064 648.964 202.53 641.231 202.808 633.055C203.086 624.88 200.152 616.925 194.645 610.923Z" fill="#DBDBDB"/>
<path d="M506.273 720.834L536.34 709.943C543.979 707.128 550.206 701.38 553.662 693.951C557.119 686.521 557.525 678.014 554.792 670.284C552.005 662.535 546.283 656.219 538.884 652.727C531.484 649.235 523.014 648.851 515.334 651.66L485.35 662.635C481.551 664.019 478.06 666.146 475.076 668.893C472.092 671.64 469.674 674.954 467.96 678.645C466.247 682.336 465.271 686.332 465.088 690.404C464.906 694.476 465.521 698.545 466.897 702.377C468.276 706.203 470.389 709.716 473.116 712.716C475.843 715.716 479.13 718.142 482.788 719.857C486.446 721.572 490.404 722.541 494.434 722.709C498.464 722.876 502.487 722.239 506.273 720.834Z" fill="#DBDBDB"/>
<path d="M386.004 716.846C582.132 716.846 741.126 556.375 741.126 358.423C741.126 160.472 582.132 0 386.004 0C189.876 0 30.8829 160.472 30.8829 358.423C30.8829 556.375 189.876 716.846 386.004 716.846Z" fill="#DBDBDB"/>
<path opacity="0.2" d="M660.067 388.684C670.48 402.306 676.258 418.956 676.542 436.158C677.105 453.813 672.89 471.289 664.351 486.708C655.733 502.744 641.342 514.828 624.151 520.464C607.703 525.645 589.974 524.821 574.067 518.136C589.783 518.568 605.399 515.473 619.785 509.073C626.43 505.984 632.482 501.734 637.661 496.519C642.932 491.43 647.379 485.539 650.841 479.059C652.653 475.733 654.383 472.325 655.948 468.916C657.514 465.507 658.832 461.849 659.82 458.191C662.171 450.954 663.745 443.484 664.516 435.909C666.12 420.025 664.608 403.978 660.067 388.684Z" fill="black"/>
<path opacity="0.2" d="M567.067 479.059C559.008 470.185 554.286 458.741 553.722 446.717C552.993 434.3 555.855 421.938 561.959 411.132C565.019 405.461 569.166 400.46 574.158 396.421C579.15 392.382 584.888 389.384 591.038 387.603C602.626 384.159 615.086 385.381 625.8 391.012C615.217 391.687 604.877 394.515 595.404 399.326C587.035 403.796 580.18 410.686 575.716 419.114C565.582 437.326 562.5 458.685 567.067 479.059Z" fill="black"/>
<path opacity="0.2" d="M501.412 562.701C505.834 570.046 507.472 578.758 506.025 587.227C504.661 596.036 500.666 604.216 494.575 610.673C491.485 614.041 487.757 616.748 483.611 618.634C479.465 620.519 474.985 621.544 470.439 621.648C461.863 621.903 453.499 618.941 446.962 613.334C454.428 614.516 462.043 614.347 469.45 612.835C475.929 611.259 481.804 607.789 486.337 602.858C491.156 597.746 494.934 591.729 497.458 585.149C500.056 577.954 501.394 570.358 501.412 562.701Z" fill="black"/>
<path opacity="0.2" d="M453.057 600.78C449.417 596.063 447.76 590.091 448.444 584.152C449.355 577.862 452.243 572.033 456.682 567.524C458.912 565.078 461.626 563.133 464.649 561.815C467.672 560.498 470.935 559.836 474.228 559.875C477.315 559.852 480.372 560.476 483.208 561.707C486.044 562.937 488.596 564.748 490.703 567.025C485.62 566.855 480.541 567.443 475.628 568.771C471.639 570.007 468.054 572.304 465.249 575.422C458.544 582.3 454.261 591.208 453.057 600.78Z" fill="black"/>
<path opacity="0.2" d="M170.921 173.767C174.071 178.995 175.241 185.196 174.216 191.227C173.225 197.491 170.349 203.296 165.979 207.855C163.792 210.256 161.147 212.186 158.203 213.529C155.258 214.872 152.075 215.6 148.845 215.67C142.824 215.794 136.965 213.695 132.369 209.767C137.625 210.736 143.012 210.736 148.268 209.767C152.887 208.678 157.076 206.216 160.295 202.7C163.87 199.134 166.674 194.86 168.532 190.146C170.299 184.876 171.108 179.327 170.921 173.767Z" fill="black"/>
<path opacity="0.2" d="M136.736 200.872C135.415 199.173 134.449 197.221 133.897 195.135C133.344 193.048 133.217 190.87 133.523 188.733C134.042 184.231 136.01 180.025 139.125 176.761C140.701 175.022 142.624 173.641 144.769 172.709C146.913 171.777 149.229 171.316 151.564 171.356C153.716 171.357 155.845 171.808 157.815 172.681C159.786 173.554 161.556 174.83 163.014 176.428C159.402 176.285 155.79 176.705 152.305 177.675C149.484 178.563 146.952 180.2 144.974 182.414C140.265 187.467 137.365 193.964 136.736 200.872Z" fill="black"/>
<path opacity="0.2" d="M184.265 490.452C188.509 491.068 192.585 492.542 196.251 494.785C199.917 497.028 203.097 499.994 205.601 503.505C208.319 507.308 210.258 511.62 211.305 516.188C212.351 520.756 212.485 525.49 211.697 530.111C210.84 534.866 208.907 539.358 206.05 543.237C203.192 547.116 199.487 550.278 195.222 552.476C187.684 556.634 178.966 558.071 170.509 556.55C176.689 552.41 182.479 547.707 187.808 542.499C192.08 538.503 194.968 533.228 196.045 527.45C197.09 521.441 196.608 515.262 194.645 509.492C192.255 502.608 188.747 496.174 184.265 490.452Z" fill="black"/>
<path opacity="0.2" d="M167.873 544.406C164.673 544.425 161.512 543.683 158.65 542.238C155.787 540.793 153.303 538.687 151.398 536.092C149.27 533.38 147.737 530.244 146.899 526.89C146.061 523.537 145.938 520.042 146.538 516.636C147.081 513.063 148.484 509.679 150.624 506.78C152.764 503.882 155.575 501.556 158.812 500.008C161.554 498.637 164.539 497.827 167.593 497.628C170.647 497.428 173.71 497.841 176.605 498.844C172.849 502.288 169.326 505.982 166.061 509.902C163.856 512.514 162.377 515.67 161.777 519.047C161.082 522.616 161.082 526.287 161.777 529.856C163.053 534.994 165.109 539.902 167.873 544.406Z" fill="black"/>
<path opacity="0.2" d="M553.803 74.1628C556.569 77.4611 558.644 81.2904 559.904 85.4199C561.164 89.5493 561.582 93.8936 561.134 98.1907C560.68 102.854 559.302 107.376 557.08 111.49C554.858 115.604 551.838 119.224 548.201 122.135C544.474 125.133 540.113 127.225 535.456 128.249C530.8 129.272 525.972 129.2 521.347 128.039C513.058 126.13 505.671 121.404 500.424 114.653C507.727 115.764 515.124 116.126 522.5 115.734C528.333 115.573 533.961 113.533 538.564 109.914C543.287 106.116 546.973 101.166 549.272 95.5302C551.95 88.7117 553.481 81.4901 553.803 74.1628Z" fill="black"/>
<path opacity="0.2" d="M506.025 103.509C503.684 101.46 501.843 98.894 500.643 96.0104C499.443 93.1268 498.917 90.003 499.106 86.8812C499.344 83.363 500.319 79.9359 501.966 76.826C503.614 73.7161 505.895 70.9941 508.661 68.8395C511.44 66.6104 514.707 65.0849 518.19 64.3906C521.672 63.6964 525.268 63.8534 528.678 64.8487C534.633 66.5196 539.695 70.4929 542.765 75.9065C537.664 75.9978 532.574 76.4143 527.525 77.1536C524.168 77.5957 521 78.9782 518.381 81.1444C515.526 83.4211 513.146 86.2471 511.38 89.4586C508.943 93.8619 507.14 98.5931 506.025 103.509Z" fill="black"/>
<path opacity="0.1" d="M639.145 609.928C614.557 635.083 586.441 656.457 555.698 673.365C556.68 677.25 556.848 681.299 556.193 685.254C555.444 690.853 553.19 696.137 549.676 700.534C546.161 704.931 541.521 708.273 536.258 710.196L506.273 721.171C502.916 722.382 499.377 723.001 495.811 723C492.792 722.984 489.793 722.507 486.915 721.587C479.369 719.332 472.989 714.203 469.122 707.286C421.695 718.682 372.457 720.134 324.452 711.553C276.447 702.973 230.698 684.542 190.033 657.401C183.957 661.77 176.516 663.765 169.093 663.016C161.67 662.266 154.768 658.824 149.669 653.328L127.839 629.799C123.937 625.569 121.282 620.324 120.176 614.653C119.07 608.982 119.556 603.113 121.579 597.706C64.385 533.414 32.1957 450.391 30.9659 363.995H30.8834C29.0871 363.998 27.2945 363.831 25.529 363.496C17.5482 361.979 10.4803 357.351 5.85522 350.613C1.23014 343.876 -0.580073 335.571 0.816354 327.496L11.3604 268.466C12.6184 261.272 16.3456 254.754 21.8887 250.056C27.4317 245.359 34.4366 242.781 41.6746 242.775C43.4686 242.817 45.2576 242.984 47.0289 243.274L50.0768 244.022C65.0072 198.929 88.6995 157.294 119.767 121.555C119.315 121.182 118.901 120.764 118.531 120.307C115.767 117.33 113.612 113.831 112.19 110.011C110.768 106.191 110.107 102.126 110.245 98.0475C110.383 93.9694 111.316 89.9588 112.993 86.2456C114.669 82.5324 117.055 79.1896 120.014 76.4088L143.326 54.4594C149.025 49.0925 156.537 46.1194 164.332 46.1453H167.957C175.173 47.0201 181.852 50.4351 186.82 55.7897C188.01 57.0477 189.085 58.4112 190.033 59.8637C246.587 21.9398 312.759 1.24527 380.65 0.251221C161.202 69.2587 73.6363 257.99 133.523 456.532C175.205 595.128 332.049 679.6 481.396 664.385C501.215 662.395 520.817 658.61 539.965 653.078C584.908 640.179 626.311 617.024 660.974 585.401C654.118 593.947 646.832 602.134 639.145 609.928Z" fill="black"/>
<path opacity="0.3" d="M769.546 356.51C769.559 363.973 766.897 371.19 762.053 376.828C757.208 382.466 750.507 386.146 743.185 387.19C742.116 387.272 741.042 387.272 739.973 387.19C739.067 398.497 737.584 409.804 735.607 421.194C725.009 481.529 699.224 538.101 660.727 585.482C824.325 257.905 573.656 41.6538 406.928 0.665039C420.733 1.61424 434.481 3.27926 448.116 5.65351C514.612 17.6324 576.342 48.5125 626.055 94.6674C675.768 140.822 711.401 200.336 728.77 266.219C736.357 265.913 743.789 268.454 749.63 273.351C755.471 278.249 759.309 285.156 760.402 292.741L768.639 352.104C769.022 353.555 769.324 355.026 769.546 356.51Z" fill="white"/>
<path d="M219.279 448.826C220.185 463.542 198.437 476.928 170.759 478.591C143.081 480.254 119.933 469.695 119.027 454.895C118.121 440.096 139.868 426.794 167.547 425.048C195.225 423.302 218.043 434.027 219.279 448.826Z" fill="#FF9CBD"/>
<path d="M570.446 349.809C577.283 362.945 602.654 362.945 627.202 349.809C651.75 336.672 666.084 315.554 659.247 302.501C652.409 289.448 626.955 289.365 602.408 302.501C577.86 315.637 563.609 336.423 570.446 349.809Z" fill="#FF9CBD"/>
<path d="M322.083 368.345C349.185 395.449 393.338 390.627 421.51 368.345C431.001 360.322 437.983 349.695 441.61 337.749C441.79 351.388 436.606 364.542 427.194 374.331C399.928 403.514 342.512 407.588 322.083 368.677V368.345Z" fill="#263238"/>
<path d="M246.051 281.379C219.36 284.618 194.991 298.289 178.173 319.458C172.454 326.618 167.588 334.431 163.675 342.737C163.635 337.871 164.301 333.025 165.652 328.354C174.878 295.097 212.689 270.57 246.051 281.379Z" fill="#263238"/>
<path d="M461.133 220.601C484.034 193.912 529.176 195.658 553.971 218.688C557.59 221.916 560.676 225.705 563.114 229.913C555.4 224.795 547.103 220.635 538.402 217.524C513.124 208.324 485.289 209.428 460.804 220.601H461.133Z" fill="#263238"/>
<path d="M471.101 321.367C482.914 324.897 495.441 325.218 507.417 322.298C519.392 319.379 530.393 313.322 539.308 304.739C545.361 298.76 550.874 292.249 555.783 285.283C554.794 326.854 501.579 343.482 471.183 321.201L471.101 321.367Z" fill="#263238"/>
<path d="M289.381 372.666C274.636 407.419 220.68 421.138 198.768 386.301C206.515 389.741 214.533 392.522 222.739 394.615C234.79 397.199 247.3 396.547 259.023 392.724C270.746 388.902 281.27 382.043 289.546 372.832L289.381 372.666Z" fill="#263238"/>
</svg>
