<svg width="528" height="584" viewBox="0 0 528 584" fill="none" xmlns="http://www.w3.org/2000/svg">
<g clip-path="url(#clip0_85_121)">
<path fill-rule="evenodd" clip-rule="evenodd" d="M525.232 490.487C494.737 464.187 466.443 433.141 448.516 420.15C442.607 415.867 434.571 411.525 439.782 420.066C454.213 443.716 476.769 468.168 502.283 484.823C483.63 485.668 461.783 494.685 444.589 505.609C442.469 506.954 433.571 511.589 431.116 515.763C430.204 517.312 430.178 518.802 431.719 520.031C432.599 520.733 433.912 520.929 435.605 520.672C440.534 519.919 454.227 513.8 467.67 507.963C487.615 499.305 503.485 493.824 525.232 490.487Z" fill="#DBDBDB"/>
<path fill-rule="evenodd" clip-rule="evenodd" d="M276.73 277.245C255.722 285.507 234.233 290.963 211.987 294.197C236.98 336.157 274.661 370.861 314.629 398.323C362.921 431.505 418.633 456.345 472.936 471.549C489.827 476.278 496.875 479.488 512.677 487.397C414.888 485.245 240.79 397.929 198.352 294.417C70.8668 303.337 -34.0269 191.313 40.1753 72.8668C-6.47271 178.409 52.9666 284.571 194.264 283.102C190.757 271.866 188.859 260.474 188.825 249.008C188.743 221.882 191.898 195.099 213.736 170.464C244.028 136.29 302.376 127.381 330.905 168.505C365.219 217.972 321.509 259.639 276.73 277.245ZM209.088 282.563C232.434 279.17 256.259 272.733 278.001 263.664C313.041 249.048 340.668 221.902 327.941 187.964C320.065 166.959 303.113 156.24 283.112 154.975C211.068 150.421 188.356 236.088 209.088 282.563Z" fill="#DBDBDB"/>
</g>
<defs>
<clipPath id="clip0_85_121">
<rect width="512" height="442.137" fill="white" transform="translate(434.975 0.189697) rotate(79.5694)"/>
</clipPath>
</defs>
</svg>
